<svg fill="#FFFFFF" xmlns="http://www.w3.org/2000/svg"  viewBox="0 0 100 100" width="200px" height="200px"><path d="M 50 14 C 30.129581 14 14 30.129595 14 50 C 14 69.870405 30.129581 86 50 86 C 69.870419 86 86 69.870405 86 50 C 86 30.129595 69.870419 14 50 14 z M 50 16 C 68.78954 16 84 31.210473 84 50 C 84 68.789527 68.78954 84 50 84 C 31.21046 84 16 68.789527 16 50 C 16 31.210473 31.21046 16 50 16 z M 50 19 C 32.884791 19 19 32.884791 19 50 C 19 67.115209 32.884791 81 50 81 C 67.115209 81 81 67.115209 81 50 C 81 40.904382 77.079076 32.716819 70.835938 27.046875 A 0.50005 0.50005 0 1 0 70.164062 27.787109 C 76.206924 33.275165 80 41.191618 80 50 C 80 66.574791 66.574791 80 50 80 C 33.425209 80 20 66.574791 20 50 C 20 33.425209 33.425209 20 50 20 C 53.630741 20 57.108062 20.645941 60.328125 21.826172 A 0.50018397 0.50018397 0 1 0 60.671875 20.886719 C 57.343938 19.66695 53.749259 19 50 19 z M 63.480469 22.140625 A 0.50005 0.50005 0 0 0 63.277344 23.091797 C 63.947092 23.423229 64.604492 23.779343 65.246094 24.158203 A 0.50005 0.50005 0 1 0 65.753906 23.296875 C 65.091508 22.905735 64.414908 22.53788 63.722656 22.195312 A 0.50005 0.50005 0 0 0 63.480469 22.140625 z M 67.507812 24.511719 A 0.50005 0.50005 0 0 0 67.457031 24.513672 A 0.50005 0.50005 0 0 0 67.212891 25.425781 C 67.545583 25.65906 67.873213 25.899999 68.195312 26.146484 A 0.50080937 0.50080937 0 1 0 68.804688 25.351562 C 68.470787 25.096048 68.130417 24.848143 67.787109 24.607422 A 0.50005 0.50005 0 0 0 67.507812 24.511719 z M 51.5 30 C 47.363781 30 44 33.363781 44 37.5 L 44 43 L 40.5 43 A 0.50005 0.50005 0 0 0 40 43.5 L 40 50.5 A 0.50005 0.50005 0 0 0 40.5 51 L 44 51 L 44 69.5 A 0.50005 0.50005 0 0 0 44.5 70 L 51.5 70 A 0.50005 0.50005 0 0 0 52 69.5 L 52 51 L 57.5 51 A 0.50005 0.50005 0 0 0 57.994141 50.570312 L 58.994141 43.570312 A 0.50005 0.50005 0 0 0 58.5 43 L 52 43 L 52 39.5 C 52 38.665287 52.666229 38 53.5 38 L 58.5 38 A 0.50005 0.50005 0 0 0 59 37.5 L 59 30.5 A 0.50005 0.50005 0 0 0 58.5 30 L 51.5 30 z M 51.5 31 L 58 31 L 58 37 L 53.5 37 C 52.125771 37 51 38.124713 51 39.5 L 51 43.5 A 0.50005 0.50005 0 0 0 51.5 44 L 57.923828 44 L 57.066406 50 L 51.5 50 A 0.50005 0.50005 0 0 0 51 50.5 L 51 69 L 45 69 L 45 50.5 A 0.50005 0.50005 0 0 0 44.5 50 L 41 50 L 41 44 L 44.5 44 A 0.50005 0.50005 0 0 0 45 43.5 L 45 37.5 C 45 33.904219 47.904219 31 51.5 31 z"/></svg>