<svg xmlns="http://www.w3.org/2000/svg" xmlns:xlink="http://www.w3.org/1999/xlink" width="500" zoomAndPan="magnify" viewBox="0 0 375 374.999991" height="500" preserveAspectRatio="xMidYMid meet" version="1.0"><defs><g/></defs><g fill="#ffffff" fill-opacity="1"><g transform="translate(28.061867, 198.791618)"><g><path d="M 47.734375 -53.492188 C 47.351562 -56.484375 41.671875 -56.714844 40.136719 -54.949219 C 39.90625 -54.71875 39.601562 -54.027344 39.140625 -53.644531 C 38.371094 -52.953125 38.679688 -53.261719 37.757812 -52.953125 C 35.609375 -52.339844 33.460938 -51.726562 31.3125 -51.035156 C 29.777344 -50.574219 28.011719 -50.269531 26.476562 -49.578125 C 25.554688 -49.195312 25.019531 -48.734375 24.019531 -48.425781 C 20.722656 -47.503906 17.191406 -46.816406 14.351562 -45.355469 C 12.433594 -44.359375 10.054688 -43.667969 9.898438 -40.980469 C 9.898438 -40.214844 10.207031 -39.601562 10.589844 -38.910156 C 11.050781 -37.988281 11.664062 -37.683594 12.355469 -37.144531 L 13.96875 -35.6875 C 14.964844 -34.765625 16.652344 -33.460938 18.035156 -33.539062 C 18.113281 -33.539062 19.417969 -34 19.492188 -34.152344 C 20.183594 -34.996094 17.804688 -36.761719 17.34375 -37.375 C 16.5 -38.449219 15.273438 -40.136719 15.65625 -41.597656 C 16.5 -44.4375 21.949219 -45.433594 24.40625 -46.125 C 26.324219 -46.660156 28.164062 -47.660156 30.085938 -48.195312 C 32.234375 -48.808594 34.304688 -49.117188 36.453125 -49.960938 C 31.773438 -42.515625 28.855469 -33.921875 25.863281 -25.785156 C 22.714844 -17.269531 19.722656 -8.59375 15.65625 -0.460938 C 14.734375 1.457031 12.355469 7.289062 9.363281 5.679688 C 7.828125 4.910156 7.0625 2.761719 6.523438 1.304688 C 5.679688 -0.765625 4.988281 -2.992188 4.375 -5.140625 C 3.222656 -9.363281 2.761719 -13.582031 2.226562 -17.957031 C 2.070312 -18.726562 1.765625 -21.105469 0.539062 -20.722656 C -0.539062 -20.335938 0.308594 -14.351562 0.230469 -13.355469 C 0 -9.054688 0.308594 -4.679688 1.382812 -0.460938 C 2.378906 3.53125 4.375 7.597656 8.136719 9.671875 C 9.824219 10.589844 11.894531 11.203125 13.8125 11.203125 C 15.808594 11.203125 16.960938 10.054688 18.035156 8.59375 C 22.792969 2.457031 25.480469 -4.910156 28.394531 -12.050781 C 29.238281 -14.042969 29.699219 -15.964844 30.238281 -17.882812 C 30.773438 -20.03125 31.925781 -22.101562 32.769531 -24.175781 C 34.382812 -28.164062 35.992188 -32.15625 37.835938 -36.148438 L 41.058594 -42.671875 C 41.828125 -44.050781 41.902344 -45.28125 42.824219 -46.507812 C 44.207031 -48.195312 45.585938 -49.808594 46.96875 -51.574219 C 47.351562 -52.109375 47.8125 -52.722656 47.734375 -53.492188 Z M 31.847656 -27.78125 C 30.390625 -24.480469 28.78125 -21.71875 27.476562 -18.34375 L 32.308594 -31.003906 C 33 -32.921875 33.921875 -34.6875 34.84375 -36.53125 C 33.691406 -33.84375 33.078125 -30.390625 31.847656 -27.78125 Z M 31.847656 -27.78125 "/></g></g></g><g fill="#ffffff" fill-opacity="1"><g transform="translate(63.748487, 198.791618)"><g><path d="M 36.300781 -18.726562 C 36.070312 -20.183594 32.539062 -16.117188 32.386719 -15.964844 C 30.160156 -13.582031 28.011719 -10.972656 25.402344 -8.902344 C 24.175781 -7.980469 23.636719 -7.445312 23.714844 -9.285156 C 23.792969 -10.898438 24.40625 -12.585938 24.867188 -14.042969 C 25.097656 -14.8125 26.628906 -17.726562 26.171875 -18.265625 C 26.09375 -18.34375 25.941406 -18.113281 25.785156 -17.957031 C 26.859375 -20.105469 29.46875 -23.792969 26.015625 -24.789062 C 22.101562 -25.863281 20.105469 -21.640625 18.417969 -19.109375 C 16.808594 -16.808594 15.273438 -14.582031 13.429688 -12.507812 C 12.050781 -10.898438 9.898438 -7.828125 7.675781 -7.214844 C 5.601562 -6.523438 6.984375 -9.898438 7.289062 -11.050781 C 7.519531 -11.664062 10.285156 -18.800781 10.4375 -18.726562 C 10.285156 -18.726562 10.128906 -18.648438 9.976562 -18.417969 C 10.820312 -20.261719 11.742188 -22.101562 12.738281 -23.867188 C 12.507812 -23.40625 12.277344 -22.640625 12.277344 -22.640625 C 12.664062 -22.5625 14.503906 -26.324219 14.351562 -26.324219 C 14.199219 -26.246094 14.042969 -26.09375 13.890625 -25.863281 C 14.503906 -26.9375 15.273438 -27.476562 13.890625 -28.550781 C 12.507812 -29.625 10.054688 -29.855469 8.671875 -28.625 C 6.984375 -27.246094 5.910156 -24.789062 5.066406 -22.871094 C 4.527344 -21.796875 3.605469 -21.183594 3.070312 -19.953125 C 1.996094 -17.574219 1.382812 -15.195312 0.765625 -12.738281 C 0.152344 -10.359375 -0.230469 -7.90625 0.152344 -5.449219 C 0.382812 -4.375 0.765625 -3.148438 1.613281 -2.378906 C 1.84375 -2.226562 4.066406 -1.382812 3.914062 -1.917969 C 3.761719 -1.917969 3.605469 -1.917969 3.53125 -1.996094 C 4.375 -1.996094 5.21875 -2.378906 5.984375 -2.839844 C 6.0625 -2.761719 5.371094 -2.457031 5.371094 -2.378906 C 6.140625 -1.382812 11.972656 -7.289062 12.507812 -7.980469 C 14.429688 -10.4375 16.347656 -12.816406 18.34375 -15.195312 C 17.34375 -12.507812 15.65625 -8.824219 17.269531 -5.910156 C 18.1875 -4.375 19.953125 -3.53125 21.640625 -3.683594 C 25.25 -3.914062 28.472656 -7.828125 30.699219 -10.207031 C 32.15625 -11.820312 33.613281 -13.507812 34.6875 -15.347656 C 35.148438 -16.117188 36.378906 -17.804688 36.300781 -18.726562 Z M 24.636719 -17.191406 C 24.480469 -16.730469 24.40625 -16.117188 24.175781 -15.734375 C 24.175781 -15.65625 24.097656 -15.578125 24.019531 -15.503906 C 24.097656 -15.578125 24.097656 -15.65625 24.097656 -15.734375 C 23.484375 -17.652344 25.785156 -20.105469 26.554688 -22.027344 C 25.941406 -20.335938 25.171875 -18.800781 24.636719 -17.191406 Z M 6.371094 -7.289062 C 5.910156 -9.515625 7.519531 -12.585938 8.367188 -14.660156 C 7.289062 -11.664062 6.214844 -7.980469 6.371094 -7.289062 Z M 18.34375 -14.8125 C 18.34375 -15.117188 18.417969 -15.347656 18.648438 -15.503906 C 18.496094 -15.273438 18.417969 -15.042969 18.34375 -14.8125 Z M 27.859375 -35.148438 C 27.78125 -35.304688 27.628906 -36.300781 27.476562 -36.53125 C 26.9375 -37.375 26.09375 -37.683594 25.324219 -37.914062 C 25.25 -37.914062 24.328125 -38.140625 23.945312 -38.066406 C 23.023438 -37.988281 23.40625 -37.605469 23.175781 -37.144531 L 20.335938 -32.234375 C 19.953125 -31.542969 18.417969 -28.472656 19.1875 -27.933594 C 19.648438 -27.550781 20.796875 -28.394531 21.105469 -28.625 C 22.410156 -29.625 24.097656 -30.851562 25.25 -32.15625 C 25.480469 -32.386719 28.320312 -34.917969 27.859375 -35.148438 Z M 27.859375 -35.148438 "/></g></g></g><g fill="#ffffff" fill-opacity="1"><g transform="translate(94.446655, 198.791618)"><g><path d="M 30.699219 -19.570312 C 29.625 -18.417969 28.933594 -16.5 28.089844 -15.117188 C 26.785156 -12.894531 25.480469 -10.746094 24.097656 -8.59375 C 21.488281 -4.453125 18.878906 -0.230469 15.734375 3.53125 C 14.429688 5.140625 11.664062 9.054688 9.054688 8.75 C 7.136719 8.441406 7.136719 5.140625 7.136719 3.683594 C 7.136719 2.457031 7.214844 1.226562 7.367188 0.078125 C 7.445312 -0.613281 8.058594 -2.917969 7.675781 -3.53125 L 7.0625 -1.226562 C 7.136719 -2.148438 7.289062 -3.148438 7.519531 -4.066406 C 7.445312 -4.222656 8.136719 -6.371094 8.289062 -7.0625 C 8.671875 -8.59375 9.054688 -10.128906 9.515625 -11.664062 C 9.898438 -13.199219 10.285156 -14.660156 10.746094 -16.117188 C 11.128906 -17.496094 11.664062 -18.1875 12.507812 -19.261719 C 15.964844 -23.5625 19.109375 -28.242188 22.027344 -32.921875 C 23.101562 -34.6875 23.792969 -36.222656 25.097656 -37.683594 C 27.015625 -39.675781 28.320312 -42.671875 29.546875 -45.125 C 31.621094 -49.117188 34.382812 -54.644531 33.921875 -59.324219 L 33.921875 -59.707031 L 33.84375 -59.785156 C 33.382812 -62.777344 30.621094 -66.308594 27.246094 -65.234375 C 25.480469 -64.695312 24.175781 -62.855469 23.101562 -61.550781 L 21.335938 -59.171875 C 20.953125 -58.710938 20.414062 -57.558594 20.03125 -56.945312 L 20.105469 -57.023438 L 17.652344 -52.800781 L 18.265625 -54.105469 C 17.882812 -54.183594 16.191406 -50.882812 15.964844 -50.5 C 15.117188 -49.039062 14.351562 -47.582031 13.660156 -46.125 C 12.125 -43.054688 10.589844 -39.90625 9.59375 -36.609375 C 8.519531 -33.308594 7.289062 -30.085938 6.140625 -26.785156 C 5.527344 -25.019531 4.910156 -23.175781 4.375 -21.410156 C 3.914062 -19.953125 2.839844 -17.574219 3.070312 -16.039062 L 3.300781 -16.039062 C 3.070312 -15.503906 2.917969 -14.964844 2.761719 -14.429688 C 2.839844 -14.886719 2.839844 -15.425781 2.917969 -15.578125 C 2.53125 -15.042969 2.609375 -13.199219 2.53125 -13.046875 C 1.535156 -8.902344 0.382812 -4.757812 0.078125 -0.460938 C -0.152344 3.605469 -0.152344 8.980469 3.070312 11.972656 C 6.675781 15.273438 10.820312 13.046875 13.8125 10.207031 C 17.34375 6.753906 20.335938 2.6875 23.101562 -1.304688 C 25.632812 -4.988281 27.628906 -8.902344 29.929688 -12.585938 C 30.851562 -14.121094 31.847656 -15.65625 32.308594 -17.34375 C 32.617188 -18.574219 32.464844 -21.410156 30.699219 -19.570312 Z M 21.105469 -47.046875 C 22.640625 -50.730469 24.175781 -54.488281 26.324219 -57.941406 C 26.859375 -58.785156 30.316406 -63.390625 30.160156 -59.324219 L 30.160156 -59.246094 C 30.007812 -54.949219 27.246094 -50.421875 25.402344 -46.738281 L 22.179688 -40.75 C 21.105469 -38.910156 19.261719 -36.609375 18.648438 -34.613281 C 19.109375 -35.839844 20.492188 -37.605469 21.183594 -38.757812 C 22.332031 -40.675781 23.332031 -42.59375 24.40625 -44.511719 C 26.171875 -47.890625 28.089844 -51.417969 29.394531 -55.101562 C 25.941406 -44.820312 19.492188 -35.226562 13.8125 -26.09375 C 16.039062 -32.847656 18.265625 -40.214844 21.105469 -47.046875 Z M 18.648438 -52.417969 C 19.417969 -53.875 20.796875 -55.101562 21.566406 -56.484375 C 19.953125 -53.261719 17.957031 -50.34375 16.269531 -47.273438 C 16.269531 -47.351562 16.269531 -47.503906 16.347656 -47.582031 C 17.039062 -49.269531 17.804688 -50.804688 18.648438 -52.417969 Z M 4.144531 -12.738281 C 4.066406 -12.585938 4.066406 -12.507812 4.066406 -12.507812 C 3.148438 -10.359375 3.070312 -7.445312 2.609375 -5.140625 C 2.53125 -4.605469 2.378906 -4.144531 2.378906 -3.605469 L 2.378906 -3.835938 L 2.148438 -1.382812 C 2.300781 -4.144531 2.609375 -6.984375 3.148438 -9.671875 L 3.148438 -9.59375 C 3.375 -11.359375 3.761719 -12.96875 4.066406 -12.96875 C 4.222656 -13.046875 4.222656 -12.816406 4.144531 -12.738281 Z M 4.144531 -12.738281 "/></g></g></g><g fill="#ffffff" fill-opacity="1"><g transform="translate(121.614535, 198.791618)"><g><path d="M 20.105469 -18.878906 C 19.953125 -19.878906 18.878906 -19.570312 18.34375 -19.1875 C 17.652344 -18.726562 13.8125 -13.660156 14.121094 -13.277344 C 14.351562 -13.277344 14.503906 -13.277344 14.660156 -13.429688 C 13.582031 -12.125 11.589844 -10.667969 10.128906 -9.515625 C 9.285156 -8.824219 7.214844 -6.90625 5.984375 -7.519531 C 3.375 -8.824219 8.671875 -18.035156 8.441406 -18.113281 C 8.210938 -18.1875 6.292969 -13.890625 5.910156 -12.894531 C 6.832031 -15.578125 8.058594 -18.265625 9.515625 -20.644531 C 9.441406 -20.414062 9.210938 -20.03125 9.363281 -20.03125 C 9.515625 -19.953125 10.667969 -21.566406 10.4375 -21.71875 C 10.359375 -21.71875 10.207031 -21.71875 10.128906 -21.640625 C 10.359375 -21.871094 10.746094 -21.949219 10.746094 -22.410156 C 10.746094 -23.175781 8.980469 -23.945312 8.367188 -24.175781 C 6.90625 -24.789062 5.449219 -24.941406 4.296875 -24.175781 C 2.761719 -23.253906 2.457031 -21.410156 1.84375 -19.800781 C 1.6875 -19.339844 0.230469 -13.890625 0.539062 -13.8125 C 0.691406 -13.890625 0.691406 -13.96875 0.765625 -14.121094 L 0.539062 -12.738281 C 0.460938 -12.738281 0.613281 -13.125 0.460938 -13.125 C -0.152344 -13.125 0 -10.359375 0.078125 -9.976562 C 0.382812 -8.59375 1.457031 -7.597656 2.300781 -6.445312 C 2.761719 -5.757812 3.222656 -5.066406 3.914062 -4.605469 C 4.835938 -3.914062 4.222656 -4.605469 4.835938 -4.296875 L 4.679688 -4.296875 C 4.605469 -3.835938 7.519531 -3.070312 8.136719 -3.148438 C 10.820312 -3.761719 12.738281 -7.0625 14.273438 -9.132812 C 15.734375 -10.972656 16.960938 -12.816406 18.265625 -14.734375 C 19.03125 -15.734375 20.414062 -17.421875 20.105469 -18.878906 Z M 6.675781 -28.550781 C 6.832031 -28.320312 6.601562 -28.011719 7.136719 -27.707031 C 7.675781 -27.476562 7.980469 -27.78125 8.441406 -27.933594 C 9.363281 -28.320312 10.054688 -29.316406 10.746094 -29.929688 C 10.972656 -30.085938 10.515625 -30.007812 10.515625 -30.007812 C 11.511719 -30.929688 10.667969 -29.855469 11.589844 -30.390625 C 12.507812 -31.003906 12.664062 -32.003906 13.429688 -32.847656 C 12.507812 -32.464844 11.820312 -31.925781 11.203125 -31.160156 C 10.4375 -30.160156 9.898438 -29.699219 9.054688 -29.164062 C 9.976562 -29.855469 10.4375 -30.542969 11.203125 -31.773438 C 11.433594 -32.003906 11.664062 -32.15625 11.972656 -32.308594 C 11.742188 -32.539062 11.742188 -32.769531 12.050781 -33 C 12.277344 -33.382812 12.738281 -33.539062 12.96875 -33.921875 C 13.355469 -34.457031 13.277344 -35.148438 13.738281 -35.6875 C 14.121094 -35.992188 14.660156 -36.222656 14.964844 -36.53125 C 15.65625 -37.144531 16.421875 -38.296875 16.117188 -39.292969 C 15.808594 -40.214844 15.042969 -41.367188 14.199219 -41.902344 C 13.199219 -42.441406 11.820312 -42.671875 10.746094 -42.210938 C 10.515625 -42.132812 9.59375 -41.902344 9.898438 -41.597656 C 9.976562 -41.441406 10.054688 -41.441406 10.207031 -41.441406 C 9.515625 -40.90625 8.367188 -39.984375 9.976562 -39.371094 C 9.824219 -39.21875 9.976562 -38.527344 9.976562 -38.449219 C 9.898438 -37.914062 8.824219 -35.074219 8.136719 -33.691406 L 9.054688 -35.074219 C 8.519531 -33.921875 7.90625 -32.847656 7.214844 -31.925781 C 7.675781 -32.921875 6.753906 -31.773438 6.753906 -31.542969 C 5.910156 -31.925781 6.140625 -29.546875 6.214844 -29.316406 C 6.214844 -29.238281 6.675781 -28.550781 6.675781 -28.550781 Z M 5.21875 -10.285156 L 5.21875 -10.207031 L 5.066406 -9.746094 L 5.21875 -10.359375 C 5.296875 -10.4375 5.296875 -10.4375 5.21875 -10.285156 Z M 7.75 -33.078125 C 7.75 -33.078125 7.90625 -33.230469 8.058594 -33.539062 Z M 6.984375 -31.621094 C 6.984375 -31.542969 6.984375 -31.542969 6.90625 -31.464844 C 6.90625 -31.464844 6.90625 -31.542969 6.832031 -31.542969 C 6.90625 -31.542969 6.90625 -31.542969 6.984375 -31.621094 Z M 6.984375 -31.621094 "/></g></g></g><g fill="#ffffff" fill-opacity="1"><g transform="translate(136.119416, 198.791618)"><g><path d="M 35.304688 -19.109375 C 35.304688 -19.109375 35.378906 -19.03125 35.304688 -19.1875 C 34.917969 -19.722656 34.382812 -19.339844 33.84375 -19.1875 C 31.621094 -18.726562 29.316406 -18.1875 27.015625 -17.804688 C 27.859375 -20.566406 28.703125 -23.484375 29.011719 -26.324219 C 29.164062 -27.398438 29.238281 -28.550781 29.011719 -29.625 C 28.855469 -30.316406 28.625 -31.003906 28.242188 -31.621094 C 28.242188 -31.621094 27.320312 -32.769531 27.550781 -32.15625 L 27.476562 -32.234375 L 27.167969 -32.847656 L 27.476562 -32.539062 C 27.550781 -33 26.246094 -33.84375 26.246094 -33.84375 C 24.328125 -35.761719 21.71875 -37.222656 19.109375 -35.761719 C 17.496094 -34.84375 16.191406 -33.308594 15.117188 -31.773438 C 14.734375 -31.234375 14.351562 -30.621094 14.042969 -30.007812 C 13.738281 -29.394531 13.277344 -27.398438 12.816406 -27.089844 C 12.433594 -26.785156 11.28125 -26.707031 10.746094 -26.402344 C 9.976562 -26.09375 9.285156 -25.710938 8.671875 -25.25 C 7.214844 -24.328125 6.0625 -23.023438 4.988281 -21.71875 C 3.148438 -19.261719 2.226562 -16.5 0.921875 -14.042969 C -1.535156 -9.363281 1.152344 -3.222656 5.679688 -0.996094 C 7.136719 -0.308594 8.824219 0 10.359375 -0.152344 C 11.972656 -0.382812 13.507812 -1.226562 14.734375 -2.148438 C 15.886719 -2.992188 18.417969 -4.527344 18.878906 -5.832031 C 18.878906 -5.910156 18.726562 -5.832031 18.496094 -5.601562 L 20.722656 -8.210938 C 20.796875 -8.136719 20.183594 -7.367188 20.183594 -7.367188 C 20.722656 -7.136719 23.484375 -11.203125 23.792969 -11.511719 C 24.328125 -12.433594 24.867188 -13.429688 25.480469 -14.351562 C 26.015625 -15.042969 25.863281 -14.964844 26.628906 -15.273438 C 26.554688 -15.195312 27.550781 -15.503906 27.707031 -15.503906 C 28.550781 -15.65625 37.527344 -16.269531 35.304688 -19.109375 Z M 8.75 -3.605469 L 8.671875 -3.605469 C 2.300781 -2.6875 9.671875 -16.191406 9.824219 -16.960938 L 9.363281 -16.269531 C 10.515625 -18.574219 11.589844 -20.414062 12.125 -21.027344 C 12.96875 -17.191406 17.113281 -15.734375 20.492188 -15.273438 C 18.265625 -10.820312 14.121094 -4.605469 8.75 -3.605469 Z M 23.867188 -24.867188 C 23.332031 -22.714844 22.871094 -19.878906 21.71875 -17.957031 C 21.335938 -17.191406 21.566406 -17.421875 20.796875 -17.269531 C 20.335938 -17.113281 19.339844 -17.269531 18.878906 -17.34375 C 18.035156 -17.421875 17.039062 -17.574219 16.421875 -18.113281 C 15.347656 -19.03125 15.503906 -20.492188 15.65625 -21.796875 C 15.808594 -23.101562 16.191406 -24.328125 16.652344 -25.554688 C 16.882812 -26.015625 18.34375 -28.472656 18.113281 -28.933594 C 18.035156 -29.164062 17.191406 -27.78125 17.113281 -27.707031 C 17.574219 -28.550781 18.035156 -29.011719 18.417969 -29.546875 C 18.34375 -29.546875 18.417969 -29.625 18.496094 -29.777344 L 18.496094 -29.699219 L 18.574219 -29.855469 C 18.574219 -29.855469 18.574219 -29.929688 18.648438 -29.929688 C 19.800781 -31.464844 22.640625 -34.917969 24.175781 -32.539062 C 25.324219 -30.542969 24.25 -26.785156 23.867188 -24.867188 Z M 18.574219 -29.855469 L 18.648438 -29.929688 C 18.648438 -29.855469 18.574219 -29.855469 18.574219 -29.855469 Z M 18.574219 -29.855469 "/></g></g></g><g fill="#ffffff" fill-opacity="1"><g transform="translate(166.126881, 198.791618)"><g/></g></g><g fill="#ffffff" fill-opacity="1"><g transform="translate(187.615606, 198.791618)"><g><path d="M 13.125 -36.761719 C 13.125 -36.835938 13.046875 -36.992188 13.046875 -37.066406 C 13.046875 -36.992188 13.125 -36.835938 13.125 -36.761719 L 12.894531 -41.671875 C 12.894531 -41.597656 12.96875 -41.597656 12.96875 -41.597656 C 12.894531 -42.054688 12.894531 -42.515625 12.894531 -42.976562 C 12.816406 -43.132812 12.816406 -43.207031 12.816406 -43.359375 C 12.816406 -43.285156 12.894531 -43.207031 12.894531 -43.132812 C 12.894531 -43.285156 12.816406 -43.285156 12.816406 -43.4375 L 12.816406 -43.359375 L 12.816406 -43.515625 L 12.816406 -43.4375 L 12.816406 -43.589844 L 12.816406 -43.515625 L 12.816406 -44.359375 C 12.664062 -47.734375 12.507812 -50.34375 12.507812 -50.34375 C 12.507812 -50.34375 12.585938 -48.503906 12.664062 -46.355469 C 12.507812 -48.964844 12.203125 -51.648438 11.820312 -54.257812 C 11.894531 -53.953125 11.972656 -53.644531 12.125 -53.722656 C 12.433594 -53.796875 11.820312 -57.023438 11.589844 -56.945312 C 11.511719 -56.792969 11.433594 -56.636719 11.433594 -56.5625 C 11.203125 -57.40625 11.203125 -58.019531 9.976562 -57.867188 C 8.441406 -57.789062 6.90625 -56.792969 5.679688 -55.949219 C 4.757812 -55.257812 3.300781 -54.257812 3.070312 -53.03125 C 2.917969 -52.339844 3.300781 -51.957031 3.300781 -51.417969 C 3.300781 -50.960938 3.070312 -50.34375 3.148438 -49.730469 C 3.222656 -48.964844 3.375 -48.121094 3.53125 -47.351562 C 3.761719 -45.894531 4.066406 -44.4375 4.144531 -42.902344 C 4.222656 -42.285156 5.066406 -34.074219 4.988281 -33.84375 C 5.066406 -33.921875 5.066406 -34.074219 5.140625 -34.226562 C 5.140625 -33.539062 5.140625 -32.769531 5.21875 -32.078125 C 5.066406 -32.078125 5.140625 -32.695312 4.988281 -32.617188 C 4.222656 -32.464844 4.757812 -25.402344 4.835938 -24.558594 C 4.988281 -22.945312 4.835938 -21.410156 4.679688 -19.800781 C 4.679688 -19.109375 4.527344 -18.417969 4.605469 -17.726562 C 4.605469 -17.652344 4.679688 -16.039062 4.910156 -16.730469 C 4.910156 -16.5 4.835938 -16.347656 4.835938 -16.191406 C 4.835938 -16.269531 4.757812 -16.347656 4.757812 -16.421875 C 4.605469 -16.347656 4.679688 -14.582031 4.679688 -14.582031 C 4.605469 -13.8125 4.375 -13.355469 4.144531 -12.585938 C 3.53125 -10.4375 3.300781 -8.058594 2.992188 -5.832031 C 2.609375 -3.453125 2.226562 -1.074219 1.457031 1.226562 C 1.074219 2.226562 0 3.683594 0 4.757812 C -0.078125 7.980469 6.601562 6.601562 7.75 5.066406 C 9.671875 2.53125 10.128906 -1.152344 11.589844 -3.992188 C 13.738281 -8.136719 16.191406 -12.050781 18.496094 -16.039062 C 18.957031 -16.882812 19.261719 -17.957031 19.648438 -18.726562 C 20.335938 -20.261719 21.566406 -21.640625 22.488281 -23.023438 C 26.785156 -29.394531 31.234375 -35.457031 36.300781 -41.289062 C 37.757812 -42.976562 39.445312 -44.4375 41.058594 -45.96875 C 41.75 -46.660156 42.59375 -47.199219 43.207031 -47.890625 C 43.820312 -48.503906 43.898438 -49.117188 44.511719 -49.65625 C 45.816406 -50.804688 51.035156 -51.726562 50.039062 -54.488281 C 49.65625 -55.488281 48.121094 -57.097656 46.890625 -56.714844 C 46.199219 -56.484375 46.429688 -56.253906 45.96875 -55.871094 C 44.207031 -54.335938 42.210938 -53.03125 40.523438 -51.34375 C 36.683594 -47.582031 33.382812 -43.4375 30.085938 -39.21875 C 26.246094 -34.152344 22.101562 -29.164062 19.109375 -23.5625 C 17.113281 -19.722656 14.429688 -16.269531 12.433594 -12.433594 C 12.433594 -12.507812 12.664062 -14.121094 12.355469 -13.96875 C 12.203125 -13.8125 12.125 -13.582031 12.050781 -13.355469 C 12.664062 -18.035156 13.890625 -22.945312 13.582031 -28.011719 Z M 6.90625 -19.261719 C 6.445312 -14.199219 6.140625 -9.210938 4.988281 -4.222656 C 4.605469 -2.609375 4.144531 -1.152344 3.605469 0.230469 C 3.761719 -0.308594 3.992188 -0.996094 4.144531 -1.6875 C 4.679688 -4.375 5.21875 -7.0625 5.601562 -9.746094 C 6.523438 -16.421875 7.0625 -23.023438 6.984375 -29.699219 C 7.0625 -26.324219 7.136719 -22.792969 6.90625 -19.492188 Z M 6.90625 -19.261719 "/></g></g></g><g fill="#ffffff" fill-opacity="1"><g transform="translate(215.397442, 198.791618)"><g><path d="M 39.0625 -18.496094 C 38.988281 -20.183594 37.605469 -18.726562 37.144531 -18.113281 C 36.148438 -16.652344 35.226562 -15.117188 34.304688 -13.660156 C 32.234375 -10.515625 30.160156 -7.367188 27.78125 -4.375 C 19.878906 5.371094 25.402344 -11.972656 24.789062 -11.820312 C 24.480469 -11.742188 24.25 -10.589844 24.175781 -10.359375 C 24.789062 -13.125 25.941406 -16.421875 27.398438 -19.109375 C 28.242188 -20.796875 29.238281 -22.179688 27.707031 -24.019531 C 24.867188 -27.476562 21.566406 -24.328125 19.722656 -21.949219 C 18.957031 -24.867188 17.421875 -29.164062 13.660156 -29.164062 C 11.972656 -29.164062 10.972656 -28.320312 9.824219 -27.320312 C 9.132812 -26.859375 8.59375 -26.785156 7.980469 -26.246094 C 6.984375 -25.554688 6.292969 -24.480469 5.601562 -23.5625 C 2.992188 -19.722656 1.152344 -14.886719 0.308594 -10.4375 C -0.078125 -8.289062 -0.230469 -5.910156 0.382812 -3.761719 C 0.765625 -2.53125 2.148438 0.230469 3.914062 0 C 3.992188 0 3.835938 -0.078125 3.605469 -0.230469 C 4.679688 0.078125 5.910156 -0.078125 6.832031 -0.691406 C 6.90625 -0.539062 5.984375 -0.152344 5.984375 -0.152344 C 6.832031 1.152344 13.125 -6.445312 13.582031 -7.136719 C 14.582031 -8.519531 15.273438 -9.976562 16.191406 -11.433594 C 16.882812 -12.507812 17.957031 -13.890625 18.726562 -15.042969 C 18.648438 -14.503906 18.648438 -13.8125 18.648438 -13.8125 C 17.269531 -9.441406 15.964844 -4.679688 17.804688 -0.152344 C 18.648438 2.148438 20.722656 4.296875 23.332031 3.835938 C 25.632812 3.453125 27.550781 1.226562 28.933594 -0.539062 C 30.621094 -2.53125 32.078125 -4.757812 33.539062 -7.0625 C 34.765625 -9.132812 35.917969 -11.203125 36.914062 -13.507812 C 37.527344 -14.964844 39.21875 -16.730469 39.0625 -18.496094 Z M 17.039062 -17.957031 C 16.652344 -17.421875 16.269531 -16.882812 15.964844 -16.347656 L 13.96875 -13.507812 C 12.664062 -11.589844 11.28125 -9.746094 9.824219 -7.980469 C 9.441406 -7.445312 7.597656 -5.066406 6.832031 -5.296875 C 5.679688 -5.679688 6.90625 -9.671875 7.0625 -10.285156 C 7.289062 -11.359375 11.359375 -23.175781 12.433594 -23.40625 C 11.050781 -23.484375 6.601562 -9.59375 6.371094 -8.441406 C 6.984375 -12.203125 8.367188 -15.886719 9.898438 -19.339844 C 10.746094 -21.105469 12.664062 -25.785156 15.195312 -25.785156 C 16.578125 -25.785156 16.882812 -22.945312 17.113281 -22.027344 C 17.039062 -22.179688 16.347656 -24.40625 16.269531 -24.328125 C 15.886719 -24.019531 17.421875 -19.800781 17.421875 -19.1875 C 17.421875 -18.574219 17.421875 -18.574219 17.039062 -17.957031 Z M 18.800781 -14.199219 C 18.800781 -14.199219 19.03125 -15.273438 19.109375 -15.503906 L 19.492188 -16.039062 Z M 17.652344 -18.957031 L 17.652344 -19.722656 C 17.882812 -19.417969 17.882812 -19.1875 17.652344 -18.957031 Z M 17.652344 -18.957031 "/></g></g></g><g fill="#ffffff" fill-opacity="1"><g transform="translate(248.858448, 198.791618)"><g><path d="M 31.773438 -18.265625 C 31.390625 -20.105469 30.316406 -18.878906 29.855469 -18.1875 C 28.78125 -16.882812 27.089844 -15.65625 25.785156 -14.429688 C 24.019531 -12.894531 22.257812 -11.28125 20.414062 -9.824219 C 19.492188 -9.054688 18.34375 -7.980469 17.191406 -7.597656 C 17.039062 -7.519531 16.5 -7.445312 16.5 -7.367188 L 16.421875 -7.445312 C 16.421875 -7.445312 16.347656 -8.671875 16.421875 -8.75 C 16.5 -9.746094 16.808594 -10.746094 17.113281 -11.664062 C 17.191406 -11.820312 18.035156 -14.429688 17.882812 -14.429688 L 17.496094 -13.96875 C 17.957031 -14.886719 18.574219 -15.808594 19.109375 -16.808594 C 17.882812 -15.65625 17.039062 -14.351562 16.421875 -12.738281 C 16.117188 -11.972656 15.273438 -10.589844 15.117188 -9.441406 C 15.273438 -11.128906 16.421875 -13.355469 16.960938 -14.351562 C 17.726562 -15.964844 18.574219 -17.804688 19.570312 -19.339844 C 21.410156 -22.101562 25.402344 -24.636719 24.175781 -28.472656 C 23.101562 -32.078125 20.261719 -32.15625 18.035156 -30.085938 C 16.960938 -29.085938 7.828125 -17.421875 8.058594 -17.269531 C 8.058594 -17.269531 8.824219 -18.1875 9.824219 -19.492188 L 5.296875 -12.894531 C 5.21875 -12.894531 6.0625 -14.199219 5.984375 -14.273438 C 5.910156 -14.351562 5.371094 -13.8125 5.296875 -13.507812 C 5.449219 -15.117188 5.984375 -16.730469 6.140625 -18.34375 C 6.214844 -18.957031 6.140625 -19.417969 6.292969 -20.03125 C 6.601562 -21.027344 6.90625 -22.101562 7.367188 -22.945312 C 7.675781 -23.5625 8.289062 -24.097656 8.441406 -24.710938 C 8.75 -25.710938 8.671875 -26.09375 9.363281 -26.9375 C 9.976562 -27.707031 10.898438 -28.472656 11.433594 -29.164062 C 12.738281 -31.082031 10.515625 -32.386719 9.285156 -32.617188 C 8.289062 -32.769531 7.289062 -32.847656 6.371094 -32.308594 C 5.371094 -31.695312 5.601562 -31.160156 5.371094 -30.316406 C 5.140625 -29.238281 4.375 -28.011719 3.992188 -27.015625 C 3.375 -25.402344 2.839844 -23.792969 2.300781 -22.179688 C 1.6875 -20.566406 1.074219 -19.03125 0.613281 -17.421875 C 0.230469 -16.117188 0.308594 -14.886719 0.152344 -13.660156 C 0 -12.277344 -0.230469 -11.359375 0.460938 -10.128906 C 1.226562 -8.824219 3.300781 -6.832031 4.679688 -8.519531 L 4.988281 -7.90625 C 6.292969 -10.746094 8.289062 -13.277344 9.898438 -16.039062 C 10.589844 -17.269531 11.820312 -18.113281 12.816406 -19.417969 C 14.199219 -21.257812 15.425781 -23.101562 16.960938 -24.867188 C 16.730469 -24.480469 15.734375 -22.714844 15.808594 -22.640625 C 15.964844 -22.714844 16.039062 -22.871094 16.191406 -23.023438 L 15.117188 -20.875 C 15.042969 -20.953125 15.425781 -21.488281 15.273438 -21.488281 C 14.734375 -21.640625 13.125 -17.34375 12.96875 -16.960938 C 12.433594 -15.273438 12.355469 -13.738281 12.203125 -11.972656 C 12.125 -11.128906 11.972656 -10.285156 11.972656 -9.441406 C 11.972656 -8.59375 12.050781 -7.75 12.433594 -6.90625 C 12.664062 -6.445312 12.96875 -5.832031 13.355469 -5.449219 C 13.429688 -5.449219 14.273438 -4.679688 13.890625 -5.296875 L 14.351562 -4.835938 L 14.121094 -4.988281 C 14.042969 -4.605469 16.882812 -3.070312 17.34375 -2.917969 C 19.492188 -2.226562 21.796875 -4.679688 23.175781 -6.140625 C 25.019531 -8.136719 26.554688 -10.4375 28.242188 -12.585938 C 29.164062 -13.8125 32.078125 -16.421875 31.773438 -18.265625 Z M 31.773438 -18.265625 "/></g></g></g><g fill="#ffffff" fill-opacity="1"><g transform="translate(275.02864, 198.791618)"><g><path d="M 25.171875 -11.972656 C 25.171875 -11.820312 25.097656 -11.664062 25.019531 -11.589844 C 23.5625 -15.808594 20.261719 -17.726562 15.886719 -17.496094 C 16.421875 -17.957031 22.101562 -23.332031 22.101562 -23.332031 C 21.871094 -23.332031 21.71875 -23.253906 21.488281 -23.101562 C 23.332031 -24.710938 26.015625 -26.171875 27.933594 -28.164062 C 28.550781 -28.78125 29.546875 -29.777344 29.699219 -30.699219 C 30.085938 -32.921875 27.089844 -32.847656 25.632812 -32.921875 C 24.789062 -32.921875 15.808594 -32.617188 15.808594 -32.464844 C 15.808594 -32.386719 16.808594 -32.386719 17.726562 -32.386719 C 16.117188 -32.308594 14.582031 -32.078125 12.96875 -31.847656 C 13.277344 -31.925781 13.507812 -32.078125 13.507812 -32.15625 C 13.507812 -32.386719 11.203125 -32.078125 11.28125 -31.773438 L 11.28125 -31.695312 C 10.972656 -31.695312 10.746094 -31.847656 10.285156 -31.773438 C 9.515625 -31.621094 8.59375 -30.542969 8.210938 -29.929688 C 7.75 -29.164062 7.519531 -28.164062 7.980469 -27.320312 C 8.441406 -26.628906 8.980469 -26.785156 9.441406 -26.476562 C 9.898438 -26.171875 10.054688 -25.785156 10.667969 -25.554688 C 11.742188 -25.097656 13.355469 -25.554688 14.429688 -25.785156 C 14.964844 -25.863281 21.871094 -27.628906 21.71875 -27.933594 L 21.488281 -27.933594 L 22.410156 -28.320312 C 21.183594 -27.015625 20.183594 -25.480469 18.957031 -24.25 C 18.265625 -23.5625 17.34375 -23.023438 16.652344 -22.332031 C 16.117188 -21.71875 16.117188 -21.566406 15.886719 -21.257812 C 15.578125 -20.953125 14.429688 -20.03125 14.351562 -20.03125 C 13.125 -19.261719 11.972656 -18.648438 10.898438 -17.726562 C 9.898438 -16.882812 9.132812 -16.421875 7.980469 -15.886719 C 7.90625 -15.886719 5.21875 -14.351562 5.601562 -14.199219 L 5.601562 -14.121094 C 5.140625 -13.582031 4.757812 -12.894531 4.988281 -12.125 C 5.296875 -10.972656 6.292969 -10.128906 7.519531 -10.359375 C 9.054688 -10.746094 10.820312 -12.355469 12.277344 -13.125 C 14.042969 -13.96875 16.960938 -15.117188 18.648438 -13.507812 C 19.492188 -12.664062 19.953125 -11.050781 20.105469 -9.898438 C 20.261719 -8.289062 19.492188 -8.058594 18.113281 -7.214844 C 11.128906 -3.070312 3.53125 0 -3.53125 4.222656 C -6.292969 5.832031 -9.441406 7.597656 -11.433594 10.207031 C -12.050781 11.128906 -14.503906 14.886719 -13.507812 15.886719 C -13.429688 15.886719 -13.277344 15.425781 -13.125 15.042969 C -13.199219 15.425781 -13.199219 15.808594 -13.199219 16.269531 C -13.125 16.578125 -13.199219 18.113281 -12.664062 18.957031 C -11.972656 20.105469 -10.820312 20.796875 -9.59375 21.335938 C -8.441406 21.796875 -7.136719 22.101562 -5.910156 22.257812 C -2.070312 22.714844 2.457031 22.410156 5.757812 20.261719 C 8.902344 18.265625 12.125 15.964844 14.351562 12.894531 C 16.039062 10.667969 17.804688 8.519531 19.1875 6.140625 C 20.335938 4.144531 21.796875 1.765625 22.5625 -0.460938 C 21.871094 1.613281 20.796875 3.761719 20.03125 5.757812 C 19.03125 8.367188 17.421875 10.667969 15.65625 12.816406 C 12.96875 16.117188 8.980469 18.648438 5.371094 20.722656 C 13.8125 17.269531 20.335938 9.210938 24.097656 1.074219 C 25.019531 -0.921875 25.710938 -2.992188 25.941406 -5.21875 C 26.015625 -5.832031 26.015625 -6.523438 26.015625 -7.214844 C 26.015625 -8.136719 25.941406 -8.210938 26.554688 -8.902344 C 27.320312 -9.746094 28.550781 -10.515625 29.46875 -11.28125 C 31.542969 -12.96875 33.691406 -14.582031 35.53125 -16.5 C 36.148438 -17.113281 37.144531 -18.1875 36.835938 -19.109375 C 35.992188 -20.722656 32.539062 -17.191406 31.925781 -16.730469 L 25.25 -11.742188 C 25.25 -11.820312 25.171875 -11.894531 25.171875 -11.972656 Z M 17.574219 -1.613281 C 15.964844 2.457031 13.8125 5.757812 10.820312 9.054688 C 9.054688 10.972656 7.136719 12.894531 5.140625 14.582031 C 4.296875 15.347656 3.375 16.039062 2.457031 16.652344 C 1.917969 16.960938 0.765625 17.882812 0 18.265625 L 0.078125 18.265625 C -0.921875 18.800781 -1.917969 19.261719 -2.917969 19.648438 C -2.6875 19.492188 -2.378906 19.339844 -2.378906 19.339844 C -2.457031 19.339844 -5.757812 19.878906 -6.371094 19.722656 C -6.90625 19.570312 -7.367188 19.339844 -7.75 18.878906 C -10.054688 16.269531 -6.523438 12.96875 -4.605469 11.28125 C -2.761719 9.59375 -0.539062 8.367188 1.613281 7.136719 L 5.066406 5.140625 C 5.910156 4.679688 7.75 3.914062 8.289062 3.070312 C 8.289062 2.992188 8.210938 2.917969 8.136719 2.917969 L 9.824219 1.996094 L 8.59375 2.839844 C 9.054688 2.917969 10.207031 1.765625 10.285156 1.6875 C 12.816406 0.152344 15.503906 -1.226562 18.035156 -2.839844 C 17.882812 -2.457031 17.804688 -2.070312 17.574219 -1.613281 Z M 21.410156 -16.808594 C 21.566406 -16.730469 18.113281 -18.113281 18.113281 -17.726562 C 18.113281 -17.957031 21.640625 -16.5 21.566406 -16.578125 C 21.949219 -16.269531 23.792969 -14.503906 24.636719 -13.125 C 23.945312 -14.660156 22.871094 -15.964844 21.410156 -16.808594 Z M 25.710938 -5.449219 C 25.632812 -4.757812 25.480469 -4.066406 25.324219 -3.453125 C 25.480469 -4.453125 25.402344 -7.980469 25.785156 -8.289062 C 25.863281 -7.367188 25.785156 -6.371094 25.710938 -5.449219 Z M 25.097656 -32.695312 L 25.171875 -32.695312 C 25.25 -32.695312 25.480469 -32.617188 25.632812 -32.617188 L 24.710938 -32.617188 C 24.789062 -32.617188 24.941406 -32.695312 25.097656 -32.695312 Z M 25.171875 -11.972656 C 25.171875 -12.277344 24.941406 -12.664062 24.636719 -13.125 C 24.867188 -12.738281 25.019531 -12.355469 25.171875 -11.972656 Z M 8.980469 -15.964844 L 9.054688 -15.964844 C 8.980469 -15.886719 8.980469 -15.886719 8.902344 -15.886719 Z M 20.261719 7.289062 C 20.335938 7.214844 20.414062 7.214844 20.414062 7.136719 C 20.414062 7.214844 20.335938 7.214844 20.261719 7.289062 Z M 20.261719 7.289062 "/></g></g></g><g fill="#ffffff" fill-opacity="1"><g transform="translate(306.264032, 198.791618)"><g><path d="M 20.105469 -18.878906 C 19.953125 -19.878906 18.878906 -19.570312 18.34375 -19.1875 C 17.652344 -18.726562 13.8125 -13.660156 14.121094 -13.277344 C 14.351562 -13.277344 14.503906 -13.277344 14.660156 -13.429688 C 13.582031 -12.125 11.589844 -10.667969 10.128906 -9.515625 C 9.285156 -8.824219 7.214844 -6.90625 5.984375 -7.519531 C 3.375 -8.824219 8.671875 -18.035156 8.441406 -18.113281 C 8.210938 -18.1875 6.292969 -13.890625 5.910156 -12.894531 C 6.832031 -15.578125 8.058594 -18.265625 9.515625 -20.644531 C 9.441406 -20.414062 9.210938 -20.03125 9.363281 -20.03125 C 9.515625 -19.953125 10.667969 -21.566406 10.4375 -21.71875 C 10.359375 -21.71875 10.207031 -21.71875 10.128906 -21.640625 C 10.359375 -21.871094 10.746094 -21.949219 10.746094 -22.410156 C 10.746094 -23.175781 8.980469 -23.945312 8.367188 -24.175781 C 6.90625 -24.789062 5.449219 -24.941406 4.296875 -24.175781 C 2.761719 -23.253906 2.457031 -21.410156 1.84375 -19.800781 C 1.6875 -19.339844 0.230469 -13.890625 0.539062 -13.8125 C 0.691406 -13.890625 0.691406 -13.96875 0.765625 -14.121094 L 0.539062 -12.738281 C 0.460938 -12.738281 0.613281 -13.125 0.460938 -13.125 C -0.152344 -13.125 0 -10.359375 0.078125 -9.976562 C 0.382812 -8.59375 1.457031 -7.597656 2.300781 -6.445312 C 2.761719 -5.757812 3.222656 -5.066406 3.914062 -4.605469 C 4.835938 -3.914062 4.222656 -4.605469 4.835938 -4.296875 L 4.679688 -4.296875 C 4.605469 -3.835938 7.519531 -3.070312 8.136719 -3.148438 C 10.820312 -3.761719 12.738281 -7.0625 14.273438 -9.132812 C 15.734375 -10.972656 16.960938 -12.816406 18.265625 -14.734375 C 19.03125 -15.734375 20.414062 -17.421875 20.105469 -18.878906 Z M 6.675781 -28.550781 C 6.832031 -28.320312 6.601562 -28.011719 7.136719 -27.707031 C 7.675781 -27.476562 7.980469 -27.78125 8.441406 -27.933594 C 9.363281 -28.320312 10.054688 -29.316406 10.746094 -29.929688 C 10.972656 -30.085938 10.515625 -30.007812 10.515625 -30.007812 C 11.511719 -30.929688 10.667969 -29.855469 11.589844 -30.390625 C 12.507812 -31.003906 12.664062 -32.003906 13.429688 -32.847656 C 12.507812 -32.464844 11.820312 -31.925781 11.203125 -31.160156 C 10.4375 -30.160156 9.898438 -29.699219 9.054688 -29.164062 C 9.976562 -29.855469 10.4375 -30.542969 11.203125 -31.773438 C 11.433594 -32.003906 11.664062 -32.15625 11.972656 -32.308594 C 11.742188 -32.539062 11.742188 -32.769531 12.050781 -33 C 12.277344 -33.382812 12.738281 -33.539062 12.96875 -33.921875 C 13.355469 -34.457031 13.277344 -35.148438 13.738281 -35.6875 C 14.121094 -35.992188 14.660156 -36.222656 14.964844 -36.53125 C 15.65625 -37.144531 16.421875 -38.296875 16.117188 -39.292969 C 15.808594 -40.214844 15.042969 -41.367188 14.199219 -41.902344 C 13.199219 -42.441406 11.820312 -42.671875 10.746094 -42.210938 C 10.515625 -42.132812 9.59375 -41.902344 9.898438 -41.597656 C 9.976562 -41.441406 10.054688 -41.441406 10.207031 -41.441406 C 9.515625 -40.90625 8.367188 -39.984375 9.976562 -39.371094 C 9.824219 -39.21875 9.976562 -38.527344 9.976562 -38.449219 C 9.898438 -37.914062 8.824219 -35.074219 8.136719 -33.691406 L 9.054688 -35.074219 C 8.519531 -33.921875 7.90625 -32.847656 7.214844 -31.925781 C 7.675781 -32.921875 6.753906 -31.773438 6.753906 -31.542969 C 5.910156 -31.925781 6.140625 -29.546875 6.214844 -29.316406 C 6.214844 -29.238281 6.675781 -28.550781 6.675781 -28.550781 Z M 5.21875 -10.285156 L 5.21875 -10.207031 L 5.066406 -9.746094 L 5.21875 -10.359375 C 5.296875 -10.4375 5.296875 -10.4375 5.21875 -10.285156 Z M 7.75 -33.078125 C 7.75 -33.078125 7.90625 -33.230469 8.058594 -33.539062 Z M 6.984375 -31.621094 C 6.984375 -31.542969 6.984375 -31.542969 6.90625 -31.464844 C 6.90625 -31.464844 6.90625 -31.542969 6.832031 -31.542969 C 6.90625 -31.542969 6.90625 -31.542969 6.984375 -31.621094 Z M 6.984375 -31.621094 "/></g></g></g><g fill="#ffffff" fill-opacity="1"><g transform="translate(320.768899, 198.791618)"><g><path d="M 31.773438 -18.265625 C 31.390625 -20.105469 30.316406 -18.878906 29.855469 -18.1875 C 28.78125 -16.882812 27.089844 -15.65625 25.785156 -14.429688 C 24.019531 -12.894531 22.257812 -11.28125 20.414062 -9.824219 C 19.492188 -9.054688 18.34375 -7.980469 17.191406 -7.597656 C 17.039062 -7.519531 16.5 -7.445312 16.5 -7.367188 L 16.421875 -7.445312 C 16.421875 -7.445312 16.347656 -8.671875 16.421875 -8.75 C 16.5 -9.746094 16.808594 -10.746094 17.113281 -11.664062 C 17.191406 -11.820312 18.035156 -14.429688 17.882812 -14.429688 L 17.496094 -13.96875 C 17.957031 -14.886719 18.574219 -15.808594 19.109375 -16.808594 C 17.882812 -15.65625 17.039062 -14.351562 16.421875 -12.738281 C 16.117188 -11.972656 15.273438 -10.589844 15.117188 -9.441406 C 15.273438 -11.128906 16.421875 -13.355469 16.960938 -14.351562 C 17.726562 -15.964844 18.574219 -17.804688 19.570312 -19.339844 C 21.410156 -22.101562 25.402344 -24.636719 24.175781 -28.472656 C 23.101562 -32.078125 20.261719 -32.15625 18.035156 -30.085938 C 16.960938 -29.085938 7.828125 -17.421875 8.058594 -17.269531 C 8.058594 -17.269531 8.824219 -18.1875 9.824219 -19.492188 L 5.296875 -12.894531 C 5.21875 -12.894531 6.0625 -14.199219 5.984375 -14.273438 C 5.910156 -14.351562 5.371094 -13.8125 5.296875 -13.507812 C 5.449219 -15.117188 5.984375 -16.730469 6.140625 -18.34375 C 6.214844 -18.957031 6.140625 -19.417969 6.292969 -20.03125 C 6.601562 -21.027344 6.90625 -22.101562 7.367188 -22.945312 C 7.675781 -23.5625 8.289062 -24.097656 8.441406 -24.710938 C 8.75 -25.710938 8.671875 -26.09375 9.363281 -26.9375 C 9.976562 -27.707031 10.898438 -28.472656 11.433594 -29.164062 C 12.738281 -31.082031 10.515625 -32.386719 9.285156 -32.617188 C 8.289062 -32.769531 7.289062 -32.847656 6.371094 -32.308594 C 5.371094 -31.695312 5.601562 -31.160156 5.371094 -30.316406 C 5.140625 -29.238281 4.375 -28.011719 3.992188 -27.015625 C 3.375 -25.402344 2.839844 -23.792969 2.300781 -22.179688 C 1.6875 -20.566406 1.074219 -19.03125 0.613281 -17.421875 C 0.230469 -16.117188 0.308594 -14.886719 0.152344 -13.660156 C 0 -12.277344 -0.230469 -11.359375 0.460938 -10.128906 C 1.226562 -8.824219 3.300781 -6.832031 4.679688 -8.519531 L 4.988281 -7.90625 C 6.292969 -10.746094 8.289062 -13.277344 9.898438 -16.039062 C 10.589844 -17.269531 11.820312 -18.113281 12.816406 -19.417969 C 14.199219 -21.257812 15.425781 -23.101562 16.960938 -24.867188 C 16.730469 -24.480469 15.734375 -22.714844 15.808594 -22.640625 C 15.964844 -22.714844 16.039062 -22.871094 16.191406 -23.023438 L 15.117188 -20.875 C 15.042969 -20.953125 15.425781 -21.488281 15.273438 -21.488281 C 14.734375 -21.640625 13.125 -17.34375 12.96875 -16.960938 C 12.433594 -15.273438 12.355469 -13.738281 12.203125 -11.972656 C 12.125 -11.128906 11.972656 -10.285156 11.972656 -9.441406 C 11.972656 -8.59375 12.050781 -7.75 12.433594 -6.90625 C 12.664062 -6.445312 12.96875 -5.832031 13.355469 -5.449219 C 13.429688 -5.449219 14.273438 -4.679688 13.890625 -5.296875 L 14.351562 -4.835938 L 14.121094 -4.988281 C 14.042969 -4.605469 16.882812 -3.070312 17.34375 -2.917969 C 19.492188 -2.226562 21.796875 -4.679688 23.175781 -6.140625 C 25.019531 -8.136719 26.554688 -10.4375 28.242188 -12.585938 C 29.164062 -13.8125 32.078125 -16.421875 31.773438 -18.265625 Z M 31.773438 -18.265625 "/></g></g></g><g fill="#ffffff" fill-opacity="1"><g transform="translate(72.795383, 238.392448)"><g><path d="M 8.15625 -0.890625 L 8.15625 0 L 1.28125 0 L 1.28125 -10.234375 L 8.03125 -10.234375 L 8.03125 -9.328125 L 2.296875 -9.328125 L 2.296875 -5.640625 L 7.296875 -5.640625 L 7.296875 -4.796875 L 2.296875 -4.796875 L 2.296875 -0.890625 Z M 8.15625 -0.890625 "/></g></g></g><g fill="#ffffff" fill-opacity="1"><g transform="translate(86.608691, 238.392448)"><g><path d="M 10.34375 0 L 10.34375 -8.40625 L 6.609375 -1.90625 L 6.015625 -1.90625 L 2.296875 -8.40625 L 2.296875 0 L 1.28125 0 L 1.28125 -10.234375 L 2.3125 -10.234375 L 6.3125 -3.234375 L 10.328125 -10.234375 L 11.359375 -10.234375 L 11.359375 0 Z M 10.34375 0 "/></g></g></g><g fill="#ffffff" fill-opacity="1"><g transform="translate(104.28224, 238.392448)"><g><path d="M 1.28125 0 L 1.28125 -10.234375 L 5.515625 -10.234375 C 5.960938 -10.234375 6.367188 -10.140625 6.734375 -9.953125 C 7.109375 -9.765625 7.425781 -9.519531 7.6875 -9.21875 C 7.957031 -8.914062 8.171875 -8.570312 8.328125 -8.1875 C 8.484375 -7.800781 8.5625 -7.410156 8.5625 -7.015625 C 8.5625 -6.585938 8.488281 -6.179688 8.34375 -5.796875 C 8.195312 -5.410156 7.992188 -5.066406 7.734375 -4.765625 C 7.472656 -4.472656 7.160156 -4.234375 6.796875 -4.046875 C 6.441406 -3.867188 6.046875 -3.78125 5.609375 -3.78125 L 2.296875 -3.78125 L 2.296875 0 Z M 2.296875 -4.671875 L 5.5625 -4.671875 C 5.851562 -4.671875 6.117188 -4.734375 6.359375 -4.859375 C 6.609375 -4.992188 6.820312 -5.164062 7 -5.375 C 7.175781 -5.59375 7.3125 -5.84375 7.40625 -6.125 C 7.5 -6.414062 7.546875 -6.710938 7.546875 -7.015625 C 7.546875 -7.328125 7.488281 -7.625 7.375 -7.90625 C 7.269531 -8.195312 7.125 -8.445312 6.9375 -8.65625 C 6.75 -8.863281 6.523438 -9.023438 6.265625 -9.140625 C 6.015625 -9.265625 5.75 -9.328125 5.46875 -9.328125 L 2.296875 -9.328125 Z M 2.296875 -4.671875 "/></g></g></g><g fill="#ffffff" fill-opacity="1"><g transform="translate(118.282807, 238.392448)"><g><path d="M 1.28125 0 L 1.28125 -10.234375 L 5.609375 -10.234375 C 6.046875 -10.234375 6.445312 -10.140625 6.8125 -9.953125 C 7.1875 -9.765625 7.507812 -9.519531 7.78125 -9.21875 C 8.050781 -8.914062 8.257812 -8.570312 8.40625 -8.1875 C 8.550781 -7.800781 8.625 -7.410156 8.625 -7.015625 C 8.625 -6.640625 8.566406 -6.28125 8.453125 -5.9375 C 8.347656 -5.601562 8.195312 -5.296875 8 -5.015625 C 7.800781 -4.742188 7.5625 -4.515625 7.28125 -4.328125 C 7.007812 -4.140625 6.703125 -4.015625 6.359375 -3.953125 L 8.859375 0 L 7.71875 0 L 5.3125 -3.78125 L 2.296875 -3.78125 L 2.296875 0 Z M 2.296875 -4.671875 L 5.640625 -4.671875 C 5.929688 -4.671875 6.195312 -4.734375 6.4375 -4.859375 C 6.6875 -4.992188 6.894531 -5.171875 7.0625 -5.390625 C 7.238281 -5.609375 7.375 -5.859375 7.46875 -6.140625 C 7.570312 -6.421875 7.625 -6.710938 7.625 -7.015625 C 7.625 -7.328125 7.566406 -7.625 7.453125 -7.90625 C 7.347656 -8.1875 7.203125 -8.429688 7.015625 -8.640625 C 6.828125 -8.847656 6.601562 -9.015625 6.34375 -9.140625 C 6.09375 -9.265625 5.828125 -9.328125 5.546875 -9.328125 L 2.296875 -9.328125 Z M 2.296875 -4.671875 "/></g></g></g><g fill="#ffffff" fill-opacity="1"><g transform="translate(132.729892, 238.392448)"><g><path d="M 8.15625 -0.890625 L 8.15625 0 L 1.28125 0 L 1.28125 -10.234375 L 8.03125 -10.234375 L 8.03125 -9.328125 L 2.296875 -9.328125 L 2.296875 -5.640625 L 7.296875 -5.640625 L 7.296875 -4.796875 L 2.296875 -4.796875 L 2.296875 -0.890625 Z M 8.15625 -0.890625 "/></g></g></g><g fill="#ffffff" fill-opacity="1"><g transform="translate(146.543199, 238.392448)"><g><path d="M 8.15625 -0.890625 L 8.15625 0 L 1.28125 0 L 1.28125 -10.234375 L 8.03125 -10.234375 L 8.03125 -9.328125 L 2.296875 -9.328125 L 2.296875 -5.640625 L 7.296875 -5.640625 L 7.296875 -4.796875 L 2.296875 -4.796875 L 2.296875 -0.890625 Z M 8.15625 -0.890625 "/></g></g></g><g fill="#ffffff" fill-opacity="1"><g transform="translate(160.356505, 238.392448)"><g><path d="M 2.296875 -8.359375 L 2.296875 0 L 1.28125 0 L 1.28125 -10.234375 L 2.0625 -10.234375 L 8.828125 -1.71875 L 8.828125 -10.21875 L 9.84375 -10.21875 L 9.84375 0 L 8.953125 0 Z M 2.296875 -8.359375 "/></g></g></g><g fill="#ffffff" fill-opacity="1"><g transform="translate(176.517641, 238.392448)"><g><path d="M 1.28125 0 L 1.28125 -10.234375 L 4.75 -10.234375 C 5.570312 -10.234375 6.285156 -10.097656 6.890625 -9.828125 C 7.503906 -9.554688 8.015625 -9.1875 8.421875 -8.71875 C 8.828125 -8.257812 9.132812 -7.722656 9.34375 -7.109375 C 9.550781 -6.492188 9.65625 -5.832031 9.65625 -5.125 C 9.65625 -4.351562 9.535156 -3.648438 9.296875 -3.015625 C 9.066406 -2.390625 8.738281 -1.851562 8.3125 -1.40625 C 7.882812 -0.957031 7.367188 -0.609375 6.765625 -0.359375 C 6.171875 -0.117188 5.5 0 4.75 0 Z M 8.640625 -5.125 C 8.640625 -5.738281 8.550781 -6.300781 8.375 -6.8125 C 8.207031 -7.332031 7.957031 -7.78125 7.625 -8.15625 C 7.289062 -8.53125 6.882812 -8.816406 6.40625 -9.015625 C 5.925781 -9.222656 5.375 -9.328125 4.75 -9.328125 L 2.296875 -9.328125 L 2.296875 -0.890625 L 4.75 -0.890625 C 5.382812 -0.890625 5.941406 -1 6.421875 -1.21875 C 6.910156 -1.4375 7.316406 -1.734375 7.640625 -2.109375 C 7.972656 -2.484375 8.222656 -2.925781 8.390625 -3.4375 C 8.554688 -3.957031 8.640625 -4.519531 8.640625 -5.125 Z M 8.640625 -5.125 "/></g></g></g><g fill="#ffffff" fill-opacity="1"><g transform="translate(191.857762, 238.392448)"><g><path d="M 8.15625 -0.890625 L 8.15625 0 L 1.28125 0 L 1.28125 -10.234375 L 8.03125 -10.234375 L 8.03125 -9.328125 L 2.296875 -9.328125 L 2.296875 -5.640625 L 7.296875 -5.640625 L 7.296875 -4.796875 L 2.296875 -4.796875 L 2.296875 -0.890625 Z M 8.15625 -0.890625 "/></g></g></g><g fill="#ffffff" fill-opacity="1"><g transform="translate(205.671075, 238.392448)"><g><path d="M 1.28125 0 L 1.28125 -10.234375 L 4.75 -10.234375 C 5.570312 -10.234375 6.285156 -10.097656 6.890625 -9.828125 C 7.503906 -9.554688 8.015625 -9.1875 8.421875 -8.71875 C 8.828125 -8.257812 9.132812 -7.722656 9.34375 -7.109375 C 9.550781 -6.492188 9.65625 -5.832031 9.65625 -5.125 C 9.65625 -4.351562 9.535156 -3.648438 9.296875 -3.015625 C 9.066406 -2.390625 8.738281 -1.851562 8.3125 -1.40625 C 7.882812 -0.957031 7.367188 -0.609375 6.765625 -0.359375 C 6.171875 -0.117188 5.5 0 4.75 0 Z M 8.640625 -5.125 C 8.640625 -5.738281 8.550781 -6.300781 8.375 -6.8125 C 8.207031 -7.332031 7.957031 -7.78125 7.625 -8.15625 C 7.289062 -8.53125 6.882812 -8.816406 6.40625 -9.015625 C 5.925781 -9.222656 5.375 -9.328125 4.75 -9.328125 L 2.296875 -9.328125 L 2.296875 -0.890625 L 4.75 -0.890625 C 5.382812 -0.890625 5.941406 -1 6.421875 -1.21875 C 6.910156 -1.4375 7.316406 -1.734375 7.640625 -2.109375 C 7.972656 -2.484375 8.222656 -2.925781 8.390625 -3.4375 C 8.554688 -3.957031 8.640625 -4.519531 8.640625 -5.125 Z M 8.640625 -5.125 "/></g></g></g><g fill="#ffffff" fill-opacity="1"><g transform="translate(221.011196, 238.392448)"><g><path d="M 5.40625 0.078125 C 4.695312 0.078125 4.046875 -0.0664062 3.453125 -0.359375 C 2.859375 -0.660156 2.347656 -1.050781 1.921875 -1.53125 C 1.503906 -2.019531 1.179688 -2.578125 0.953125 -3.203125 C 0.722656 -3.828125 0.609375 -4.460938 0.609375 -5.109375 C 0.609375 -5.796875 0.726562 -6.453125 0.96875 -7.078125 C 1.21875 -7.703125 1.554688 -8.253906 1.984375 -8.734375 C 2.421875 -9.210938 2.929688 -9.59375 3.515625 -9.875 C 4.097656 -10.15625 4.734375 -10.296875 5.421875 -10.296875 C 6.128906 -10.296875 6.773438 -10.144531 7.359375 -9.84375 C 7.953125 -9.539062 8.457031 -9.144531 8.875 -8.65625 C 9.300781 -8.164062 9.628906 -7.609375 9.859375 -6.984375 C 10.085938 -6.367188 10.203125 -5.738281 10.203125 -5.09375 C 10.203125 -4.414062 10.078125 -3.765625 9.828125 -3.140625 C 9.585938 -2.515625 9.253906 -1.960938 8.828125 -1.484375 C 8.398438 -1.015625 7.890625 -0.632812 7.296875 -0.34375 C 6.710938 -0.0625 6.082031 0.078125 5.40625 0.078125 Z M 1.609375 -5.109375 C 1.609375 -4.554688 1.695312 -4.019531 1.875 -3.5 C 2.0625 -2.988281 2.320312 -2.535156 2.65625 -2.140625 C 3 -1.742188 3.398438 -1.425781 3.859375 -1.1875 C 4.316406 -0.945312 4.832031 -0.828125 5.40625 -0.828125 C 5.976562 -0.828125 6.5 -0.953125 6.96875 -1.203125 C 7.4375 -1.453125 7.832031 -1.78125 8.15625 -2.1875 C 8.488281 -2.59375 8.742188 -3.050781 8.921875 -3.5625 C 9.097656 -4.070312 9.1875 -4.585938 9.1875 -5.109375 C 9.1875 -5.671875 9.09375 -6.207031 8.90625 -6.71875 C 8.71875 -7.226562 8.457031 -7.679688 8.125 -8.078125 C 7.789062 -8.472656 7.390625 -8.785156 6.921875 -9.015625 C 6.460938 -9.253906 5.957031 -9.375 5.40625 -9.375 C 4.820312 -9.375 4.296875 -9.25 3.828125 -9 C 3.359375 -8.757812 2.957031 -8.4375 2.625 -8.03125 C 2.300781 -7.632812 2.050781 -7.179688 1.875 -6.671875 C 1.695312 -6.160156 1.609375 -5.640625 1.609375 -5.109375 Z M 1.609375 -5.109375 "/></g></g></g><g fill="#ffffff" fill-opacity="1"><g transform="translate(236.869859, 238.392448)"><g><path d="M 1.28125 0 L 1.28125 -10.234375 L 5.609375 -10.234375 C 6.046875 -10.234375 6.445312 -10.140625 6.8125 -9.953125 C 7.1875 -9.765625 7.507812 -9.519531 7.78125 -9.21875 C 8.050781 -8.914062 8.257812 -8.570312 8.40625 -8.1875 C 8.550781 -7.800781 8.625 -7.410156 8.625 -7.015625 C 8.625 -6.640625 8.566406 -6.28125 8.453125 -5.9375 C 8.347656 -5.601562 8.195312 -5.296875 8 -5.015625 C 7.800781 -4.742188 7.5625 -4.515625 7.28125 -4.328125 C 7.007812 -4.140625 6.703125 -4.015625 6.359375 -3.953125 L 8.859375 0 L 7.71875 0 L 5.3125 -3.78125 L 2.296875 -3.78125 L 2.296875 0 Z M 2.296875 -4.671875 L 5.640625 -4.671875 C 5.929688 -4.671875 6.195312 -4.734375 6.4375 -4.859375 C 6.6875 -4.992188 6.894531 -5.171875 7.0625 -5.390625 C 7.238281 -5.609375 7.375 -5.859375 7.46875 -6.140625 C 7.570312 -6.421875 7.625 -6.710938 7.625 -7.015625 C 7.625 -7.328125 7.566406 -7.625 7.453125 -7.90625 C 7.347656 -8.1875 7.203125 -8.429688 7.015625 -8.640625 C 6.828125 -8.847656 6.601562 -9.015625 6.34375 -9.140625 C 6.09375 -9.265625 5.828125 -9.328125 5.546875 -9.328125 L 2.296875 -9.328125 Z M 2.296875 -4.671875 "/></g></g></g><g fill="#ffffff" fill-opacity="1"><g transform="translate(251.316951, 238.392448)"><g><path d="M 1.28125 0 L 1.28125 -10.234375 L 2.296875 -10.234375 L 2.296875 0 Z M 1.28125 0 "/></g></g></g><g fill="#ffffff" fill-opacity="1"><g transform="translate(259.93046, 238.392448)"><g><path d="M 7.265625 -8.3125 C 6.972656 -8.632812 6.585938 -8.894531 6.109375 -9.09375 C 5.628906 -9.300781 5.082031 -9.40625 4.46875 -9.40625 C 3.5625 -9.40625 2.898438 -9.234375 2.484375 -8.890625 C 2.078125 -8.554688 1.875 -8.09375 1.875 -7.5 C 1.875 -7.195312 1.925781 -6.945312 2.03125 -6.75 C 2.144531 -6.550781 2.316406 -6.378906 2.546875 -6.234375 C 2.773438 -6.085938 3.066406 -5.960938 3.421875 -5.859375 C 3.785156 -5.753906 4.210938 -5.648438 4.703125 -5.546875 C 5.253906 -5.429688 5.75 -5.300781 6.1875 -5.15625 C 6.625 -5.007812 6.992188 -4.828125 7.296875 -4.609375 C 7.609375 -4.398438 7.84375 -4.140625 8 -3.828125 C 8.164062 -3.523438 8.25 -3.140625 8.25 -2.671875 C 8.25 -2.203125 8.15625 -1.796875 7.96875 -1.453125 C 7.789062 -1.109375 7.539062 -0.820312 7.21875 -0.59375 C 6.894531 -0.363281 6.503906 -0.191406 6.046875 -0.078125 C 5.597656 0.0351562 5.101562 0.09375 4.5625 0.09375 C 2.976562 0.09375 1.613281 -0.398438 0.46875 -1.390625 L 0.96875 -2.21875 C 1.144531 -2.03125 1.359375 -1.847656 1.609375 -1.671875 C 1.867188 -1.492188 2.15625 -1.335938 2.46875 -1.203125 C 2.78125 -1.078125 3.113281 -0.976562 3.46875 -0.90625 C 3.820312 -0.84375 4.195312 -0.8125 4.59375 -0.8125 C 5.40625 -0.8125 6.039062 -0.957031 6.5 -1.25 C 6.957031 -1.539062 7.1875 -1.984375 7.1875 -2.578125 C 7.1875 -2.890625 7.117188 -3.15625 6.984375 -3.375 C 6.859375 -3.59375 6.664062 -3.78125 6.40625 -3.9375 C 6.144531 -4.09375 5.820312 -4.226562 5.4375 -4.34375 C 5.0625 -4.46875 4.617188 -4.585938 4.109375 -4.703125 C 3.566406 -4.828125 3.09375 -4.953125 2.6875 -5.078125 C 2.289062 -5.210938 1.953125 -5.378906 1.671875 -5.578125 C 1.390625 -5.785156 1.175781 -6.03125 1.03125 -6.3125 C 0.894531 -6.59375 0.828125 -6.941406 0.828125 -7.359375 C 0.828125 -7.828125 0.914062 -8.242188 1.09375 -8.609375 C 1.28125 -8.984375 1.535156 -9.289062 1.859375 -9.53125 C 2.179688 -9.78125 2.5625 -9.96875 3 -10.09375 C 3.445312 -10.226562 3.941406 -10.296875 4.484375 -10.296875 C 5.160156 -10.296875 5.765625 -10.191406 6.296875 -9.984375 C 6.835938 -9.785156 7.320312 -9.5 7.75 -9.125 Z M 7.265625 -8.3125 "/></g></g></g><g fill="#ffffff" fill-opacity="1"><g transform="translate(273.714968, 238.392448)"><g><path d="M 10.34375 0 L 10.34375 -8.40625 L 6.609375 -1.90625 L 6.015625 -1.90625 L 2.296875 -8.40625 L 2.296875 0 L 1.28125 0 L 1.28125 -10.234375 L 2.3125 -10.234375 L 6.3125 -3.234375 L 10.328125 -10.234375 L 11.359375 -10.234375 L 11.359375 0 Z M 10.34375 0 "/></g></g></g><g fill="#ffffff" fill-opacity="1"><g transform="translate(291.388521, 238.392448)"><g><path d="M 5.40625 0.078125 C 4.695312 0.078125 4.046875 -0.0664062 3.453125 -0.359375 C 2.859375 -0.660156 2.347656 -1.050781 1.921875 -1.53125 C 1.503906 -2.019531 1.179688 -2.578125 0.953125 -3.203125 C 0.722656 -3.828125 0.609375 -4.460938 0.609375 -5.109375 C 0.609375 -5.796875 0.726562 -6.453125 0.96875 -7.078125 C 1.21875 -7.703125 1.554688 -8.253906 1.984375 -8.734375 C 2.421875 -9.210938 2.929688 -9.59375 3.515625 -9.875 C 4.097656 -10.15625 4.734375 -10.296875 5.421875 -10.296875 C 6.128906 -10.296875 6.773438 -10.144531 7.359375 -9.84375 C 7.953125 -9.539062 8.457031 -9.144531 8.875 -8.65625 C 9.300781 -8.164062 9.628906 -7.609375 9.859375 -6.984375 C 10.085938 -6.367188 10.203125 -5.738281 10.203125 -5.09375 C 10.203125 -4.414062 10.078125 -3.765625 9.828125 -3.140625 C 9.585938 -2.515625 9.253906 -1.960938 8.828125 -1.484375 C 8.398438 -1.015625 7.890625 -0.632812 7.296875 -0.34375 C 6.710938 -0.0625 6.082031 0.078125 5.40625 0.078125 Z M 1.609375 -5.109375 C 1.609375 -4.554688 1.695312 -4.019531 1.875 -3.5 C 2.0625 -2.988281 2.320312 -2.535156 2.65625 -2.140625 C 3 -1.742188 3.398438 -1.425781 3.859375 -1.1875 C 4.316406 -0.945312 4.832031 -0.828125 5.40625 -0.828125 C 5.976562 -0.828125 6.5 -0.953125 6.96875 -1.203125 C 7.4375 -1.453125 7.832031 -1.78125 8.15625 -2.1875 C 8.488281 -2.59375 8.742188 -3.050781 8.921875 -3.5625 C 9.097656 -4.070312 9.1875 -4.585938 9.1875 -5.109375 C 9.1875 -5.671875 9.09375 -6.207031 8.90625 -6.71875 C 8.71875 -7.226562 8.457031 -7.679688 8.125 -8.078125 C 7.789062 -8.472656 7.390625 -8.785156 6.921875 -9.015625 C 6.460938 -9.253906 5.957031 -9.375 5.40625 -9.375 C 4.820312 -9.375 4.296875 -9.25 3.828125 -9 C 3.359375 -8.757812 2.957031 -8.4375 2.625 -8.03125 C 2.300781 -7.632812 2.050781 -7.179688 1.875 -6.671875 C 1.695312 -6.160156 1.609375 -5.640625 1.609375 -5.109375 Z M 1.609375 -5.109375 "/></g></g></g><g fill="#ffffff" fill-opacity="1"><g transform="translate(76.185351, 258.19774)"><g><path d="M 10.34375 0 L 10.34375 -8.40625 L 6.609375 -1.90625 L 6.015625 -1.90625 L 2.296875 -8.40625 L 2.296875 0 L 1.28125 0 L 1.28125 -10.234375 L 2.3125 -10.234375 L 6.3125 -3.234375 L 10.328125 -10.234375 L 11.359375 -10.234375 L 11.359375 0 Z M 10.34375 0 "/></g></g></g><g fill="#ffffff" fill-opacity="1"><g transform="translate(93.8589, 258.19774)"><g><path d="M 4.453125 -10.234375 L 5.296875 -10.234375 L 9.546875 0 L 8.484375 0 L 7.15625 -3.203125 L 2.5625 -3.203125 L 1.25 0 L 0.171875 0 Z M 6.921875 -3.984375 L 4.875 -9.046875 L 2.78125 -3.984375 Z M 6.921875 -3.984375 "/></g></g></g><g fill="#ffffff" fill-opacity="1"><g transform="translate(108.637272, 258.19774)"><g><path d="M 1.28125 0 L 1.28125 -10.234375 L 5.609375 -10.234375 C 6.046875 -10.234375 6.445312 -10.140625 6.8125 -9.953125 C 7.1875 -9.765625 7.507812 -9.519531 7.78125 -9.21875 C 8.050781 -8.914062 8.257812 -8.570312 8.40625 -8.1875 C 8.550781 -7.800781 8.625 -7.410156 8.625 -7.015625 C 8.625 -6.640625 8.566406 -6.28125 8.453125 -5.9375 C 8.347656 -5.601562 8.195312 -5.296875 8 -5.015625 C 7.800781 -4.742188 7.5625 -4.515625 7.28125 -4.328125 C 7.007812 -4.140625 6.703125 -4.015625 6.359375 -3.953125 L 8.859375 0 L 7.71875 0 L 5.3125 -3.78125 L 2.296875 -3.78125 L 2.296875 0 Z M 2.296875 -4.671875 L 5.640625 -4.671875 C 5.929688 -4.671875 6.195312 -4.734375 6.4375 -4.859375 C 6.6875 -4.992188 6.894531 -5.171875 7.0625 -5.390625 C 7.238281 -5.609375 7.375 -5.859375 7.46875 -6.140625 C 7.570312 -6.421875 7.625 -6.710938 7.625 -7.015625 C 7.625 -7.328125 7.566406 -7.625 7.453125 -7.90625 C 7.347656 -8.1875 7.203125 -8.429688 7.015625 -8.640625 C 6.828125 -8.847656 6.601562 -9.015625 6.34375 -9.140625 C 6.09375 -9.265625 5.828125 -9.328125 5.546875 -9.328125 L 2.296875 -9.328125 Z M 2.296875 -4.671875 "/></g></g></g><g fill="#ffffff" fill-opacity="1"><g transform="translate(123.084361, 258.19774)"><g><path d="M 1.28125 0 L 1.28125 -10.21875 L 2.296875 -10.21875 L 2.296875 -4.28125 L 7.921875 -10.234375 L 9.03125 -10.234375 L 4.859375 -5.734375 L 9.25 0 L 8.140625 0 L 4.21875 -5.140625 L 2.296875 -3.140625 L 2.296875 0 Z M 1.28125 0 "/></g></g></g><g fill="#ffffff" fill-opacity="1"><g transform="translate(137.387404, 258.19774)"><g><path d="M 8.15625 -0.890625 L 8.15625 0 L 1.28125 0 L 1.28125 -10.234375 L 8.03125 -10.234375 L 8.03125 -9.328125 L 2.296875 -9.328125 L 2.296875 -5.640625 L 7.296875 -5.640625 L 7.296875 -4.796875 L 2.296875 -4.796875 L 2.296875 -0.890625 Z M 8.15625 -0.890625 "/></g></g></g><g fill="#ffffff" fill-opacity="1"><g transform="translate(151.20071, 258.19774)"><g><path d="M 8.546875 -9.328125 L 4.890625 -9.328125 L 4.890625 0 L 3.890625 0 L 3.890625 -9.328125 L 0.25 -9.328125 L 0.25 -10.234375 L 8.546875 -10.234375 Z M 8.546875 -9.328125 "/></g></g></g><g fill="#ffffff" fill-opacity="1"><g transform="translate(165.028426, 258.19774)"><g><path d="M 1.28125 0 L 1.28125 -10.234375 L 2.296875 -10.234375 L 2.296875 0 Z M 1.28125 0 "/></g></g></g><g fill="#ffffff" fill-opacity="1"><g transform="translate(173.641929, 258.19774)"><g><path d="M 2.296875 -8.359375 L 2.296875 0 L 1.28125 0 L 1.28125 -10.234375 L 2.0625 -10.234375 L 8.828125 -1.71875 L 8.828125 -10.21875 L 9.84375 -10.21875 L 9.84375 0 L 8.953125 0 Z M 2.296875 -8.359375 "/></g></g></g><g fill="#ffffff" fill-opacity="1"><g transform="translate(189.803065, 258.19774)"><g><path d="M 8.671875 -1.5 C 7.722656 -0.445312 6.628906 0.078125 5.390625 0.078125 C 4.691406 0.078125 4.050781 -0.0703125 3.46875 -0.375 C 2.894531 -0.675781 2.394531 -1.070312 1.96875 -1.5625 C 1.539062 -2.050781 1.207031 -2.601562 0.96875 -3.21875 C 0.726562 -3.84375 0.609375 -4.476562 0.609375 -5.125 C 0.609375 -5.8125 0.722656 -6.46875 0.953125 -7.09375 C 1.191406 -7.71875 1.519531 -8.265625 1.9375 -8.734375 C 2.363281 -9.210938 2.863281 -9.59375 3.4375 -9.875 C 4.019531 -10.15625 4.648438 -10.296875 5.328125 -10.296875 C 5.828125 -10.296875 6.28125 -10.238281 6.6875 -10.125 C 7.101562 -10.019531 7.472656 -9.867188 7.796875 -9.671875 C 8.117188 -9.472656 8.394531 -9.238281 8.625 -8.96875 C 8.863281 -8.695312 9.066406 -8.394531 9.234375 -8.0625 L 8.453125 -7.546875 C 8.117188 -8.179688 7.679688 -8.644531 7.140625 -8.9375 C 6.609375 -9.238281 6 -9.390625 5.3125 -9.390625 C 4.75 -9.390625 4.238281 -9.269531 3.78125 -9.03125 C 3.320312 -8.789062 2.929688 -8.472656 2.609375 -8.078125 C 2.285156 -7.679688 2.035156 -7.222656 1.859375 -6.703125 C 1.691406 -6.191406 1.609375 -5.660156 1.609375 -5.109375 C 1.609375 -4.535156 1.707031 -3.988281 1.90625 -3.46875 C 2.101562 -2.945312 2.375 -2.492188 2.71875 -2.109375 C 3.0625 -1.722656 3.46875 -1.410156 3.9375 -1.171875 C 4.40625 -0.941406 4.910156 -0.828125 5.453125 -0.828125 C 6.046875 -0.828125 6.609375 -0.960938 7.140625 -1.234375 C 7.671875 -1.515625 8.179688 -1.953125 8.671875 -2.546875 L 8.671875 -4.25 L 6.390625 -4.25 L 6.390625 -5.03125 L 9.515625 -5.03125 L 9.515625 0 L 8.671875 0 Z M 8.671875 -1.5 "/></g></g></g><g fill="#ffffff" fill-opacity="1"><g transform="translate(205.157588, 258.19774)"><g/></g></g><g fill="#ffffff" fill-opacity="1"><g transform="translate(213.871924, 258.19774)"><g><path d="M 1.28125 0 L 1.28125 -10.234375 L 4.75 -10.234375 C 5.570312 -10.234375 6.285156 -10.097656 6.890625 -9.828125 C 7.503906 -9.554688 8.015625 -9.1875 8.421875 -8.71875 C 8.828125 -8.257812 9.132812 -7.722656 9.34375 -7.109375 C 9.550781 -6.492188 9.65625 -5.832031 9.65625 -5.125 C 9.65625 -4.351562 9.535156 -3.648438 9.296875 -3.015625 C 9.066406 -2.390625 8.738281 -1.851562 8.3125 -1.40625 C 7.882812 -0.957031 7.367188 -0.609375 6.765625 -0.359375 C 6.171875 -0.117188 5.5 0 4.75 0 Z M 8.640625 -5.125 C 8.640625 -5.738281 8.550781 -6.300781 8.375 -6.8125 C 8.207031 -7.332031 7.957031 -7.78125 7.625 -8.15625 C 7.289062 -8.53125 6.882812 -8.816406 6.40625 -9.015625 C 5.925781 -9.222656 5.375 -9.328125 4.75 -9.328125 L 2.296875 -9.328125 L 2.296875 -0.890625 L 4.75 -0.890625 C 5.382812 -0.890625 5.941406 -1 6.421875 -1.21875 C 6.910156 -1.4375 7.316406 -1.734375 7.640625 -2.109375 C 7.972656 -2.484375 8.222656 -2.925781 8.390625 -3.4375 C 8.554688 -3.957031 8.640625 -4.519531 8.640625 -5.125 Z M 8.640625 -5.125 "/></g></g></g><g fill="#ffffff" fill-opacity="1"><g transform="translate(229.212045, 258.19774)"><g><path d="M 1.28125 0 L 1.28125 -10.234375 L 2.296875 -10.234375 L 2.296875 0 Z M 1.28125 0 "/></g></g></g><g fill="#ffffff" fill-opacity="1"><g transform="translate(237.825554, 258.19774)"><g><path d="M 8.671875 -1.5 C 7.722656 -0.445312 6.628906 0.078125 5.390625 0.078125 C 4.691406 0.078125 4.050781 -0.0703125 3.46875 -0.375 C 2.894531 -0.675781 2.394531 -1.070312 1.96875 -1.5625 C 1.539062 -2.050781 1.207031 -2.601562 0.96875 -3.21875 C 0.726562 -3.84375 0.609375 -4.476562 0.609375 -5.125 C 0.609375 -5.8125 0.722656 -6.46875 0.953125 -7.09375 C 1.191406 -7.71875 1.519531 -8.265625 1.9375 -8.734375 C 2.363281 -9.210938 2.863281 -9.59375 3.4375 -9.875 C 4.019531 -10.15625 4.648438 -10.296875 5.328125 -10.296875 C 5.828125 -10.296875 6.28125 -10.238281 6.6875 -10.125 C 7.101562 -10.019531 7.472656 -9.867188 7.796875 -9.671875 C 8.117188 -9.472656 8.394531 -9.238281 8.625 -8.96875 C 8.863281 -8.695312 9.066406 -8.394531 9.234375 -8.0625 L 8.453125 -7.546875 C 8.117188 -8.179688 7.679688 -8.644531 7.140625 -8.9375 C 6.609375 -9.238281 6 -9.390625 5.3125 -9.390625 C 4.75 -9.390625 4.238281 -9.269531 3.78125 -9.03125 C 3.320312 -8.789062 2.929688 -8.472656 2.609375 -8.078125 C 2.285156 -7.679688 2.035156 -7.222656 1.859375 -6.703125 C 1.691406 -6.191406 1.609375 -5.660156 1.609375 -5.109375 C 1.609375 -4.535156 1.707031 -3.988281 1.90625 -3.46875 C 2.101562 -2.945312 2.375 -2.492188 2.71875 -2.109375 C 3.0625 -1.722656 3.46875 -1.410156 3.9375 -1.171875 C 4.40625 -0.941406 4.910156 -0.828125 5.453125 -0.828125 C 6.046875 -0.828125 6.609375 -0.960938 7.140625 -1.234375 C 7.671875 -1.515625 8.179688 -1.953125 8.671875 -2.546875 L 8.671875 -4.25 L 6.390625 -4.25 L 6.390625 -5.03125 L 9.515625 -5.03125 L 9.515625 0 L 8.671875 0 Z M 8.671875 -1.5 "/></g></g></g><g fill="#ffffff" fill-opacity="1"><g transform="translate(253.180084, 258.19774)"><g><path d="M 1.28125 0 L 1.28125 -10.234375 L 2.296875 -10.234375 L 2.296875 0 Z M 1.28125 0 "/></g></g></g><g fill="#ffffff" fill-opacity="1"><g transform="translate(261.793594, 258.19774)"><g><path d="M 8.546875 -9.328125 L 4.890625 -9.328125 L 4.890625 0 L 3.890625 0 L 3.890625 -9.328125 L 0.25 -9.328125 L 0.25 -10.234375 L 8.546875 -10.234375 Z M 8.546875 -9.328125 "/></g></g></g><g fill="#ffffff" fill-opacity="1"><g transform="translate(275.621317, 258.19774)"><g><path d="M 4.453125 -10.234375 L 5.296875 -10.234375 L 9.546875 0 L 8.484375 0 L 7.15625 -3.203125 L 2.5625 -3.203125 L 1.25 0 L 0.171875 0 Z M 6.921875 -3.984375 L 4.875 -9.046875 L 2.78125 -3.984375 Z M 6.921875 -3.984375 "/></g></g></g><g fill="#ffffff" fill-opacity="1"><g transform="translate(290.399694, 258.19774)"><g><path d="M 1.28125 0 L 1.28125 -10.234375 L 2.296875 -10.234375 L 2.296875 -0.890625 L 8.203125 -0.890625 L 8.203125 0 Z M 1.28125 0 "/></g></g></g></svg>