<svg xmlns="http://www.w3.org/2000/svg" xmlns:xlink="http://www.w3.org/1999/xlink" width="500" zoomAndPan="magnify" viewBox="0 0 375 374.999991" height="500" preserveAspectRatio="xMidYMid meet" version="1.0"><defs><g/></defs><g fill="#ffffff" fill-opacity="1"><g transform="translate(74.030783, 270.254235)"><g><path d="M 56.5 -175 L 56.5 -172.5 C 71 -172.5 73 -170.5 73 -156 L 73 -38.75 C 73 -13.25 61 0 39.25 0 C 21.25 0 9.5 -8.5 6 -22 C 8 -18.5 11.75 -16.25 17 -16.25 C 25.75 -16.25 31.75 -22.25 31.75 -31 C 31.75 -39.75 25.75 -45.5 17 -45.5 C 8.25 -45.5 2.5 -39.75 2.5 -31 C 2.5 -11 16 2.5 39.25 2.5 C 58.25 2.5 72.25 -1.5 81.5 -9.75 C 92.5 -19 97 -34 97 -52 L 97 -156 C 97 -170.5 98.5 -172.5 113 -172.5 L 113 -175 Z M 56.5 -175 "/></g></g></g><g fill="#ffffff" fill-opacity="1"><g transform="translate(132.693635, 270.254235)"><g><path d="M 2.5 -175 L 2.5 -172.5 C 17.25 -172.5 21 -169.25 26.5 -150.5 L 72.75 0 L 96.5 0 L 140 -143 C 147.5 -165.75 152.75 -172.5 167 -172.5 L 167 -175 L 117.25 -175 L 117.25 -172.5 C 133.5 -172.5 140.25 -169.25 140.25 -158.25 C 140.25 -153.25 139 -146.75 136.5 -138.25 L 95.75 -6 C 95.75 -6 62.25 -118.75 54 -141.5 C 51.75 -149.25 50.5 -155.25 50.5 -159.5 C 50.5 -169.75 57 -172.5 72.5 -172.5 L 72.5 -175 Z M 2.5 -175 "/></g></g></g></svg>