<svg xmlns="http://www.w3.org/2000/svg" xmlns:xlink="http://www.w3.org/1999/xlink" width="500" zoomAndPan="magnify" viewBox="0 0 375 374.999991" height="500" preserveAspectRatio="xMidYMid meet" version="1.0"><defs><g/></defs><g fill="#ffffff" fill-opacity="1"><g transform="translate(34.406349, 190.867286)"><g><path d="M 12.296875 -38.082031 L 12.296875 -37.539062 C 15.449219 -37.539062 15.886719 -37.105469 15.886719 -33.949219 L 15.886719 -8.433594 C 15.886719 -2.882812 13.273438 0 8.542969 0 C 4.625 0 2.066406 -1.851562 1.304688 -4.789062 C 1.742188 -4.027344 2.558594 -3.535156 3.699219 -3.535156 C 5.605469 -3.535156 6.910156 -4.84375 6.910156 -6.746094 C 6.910156 -8.652344 5.605469 -9.902344 3.699219 -9.902344 C 1.796875 -9.902344 0.542969 -8.652344 0.542969 -6.746094 C 0.542969 -2.394531 3.480469 0.542969 8.542969 0.542969 C 12.675781 0.542969 15.722656 -0.328125 17.734375 -2.121094 C 20.128906 -4.136719 21.109375 -7.398438 21.109375 -11.316406 L 21.109375 -33.949219 C 21.109375 -37.105469 21.4375 -37.539062 24.589844 -37.539062 L 24.589844 -38.082031 Z M 12.296875 -38.082031 "/></g></g></g><g fill="#ffffff" fill-opacity="1"><g transform="translate(60.193086, 190.867286)"><g><path d="M 19.804688 -41.785156 C 18.496094 -37.8125 16.320312 -34.65625 12.949219 -32.152344 L 13.273438 -31.773438 C 17.410156 -33.296875 20.402344 -35.363281 22.6875 -38.953125 Z M 1.414062 -26.496094 L 1.414062 -25.953125 C 4.625 -25.953125 4.949219 -25.570312 4.949219 -22.359375 L 4.949219 -9.085938 C 4.949219 -3.753906 7.835938 0.542969 14.691406 0.542969 C 19.585938 0.542969 21.980469 -1.796875 22.960938 -5.332031 L 22.960938 0 L 31.28125 0 L 31.28125 -0.542969 C 28.183594 -0.542969 27.746094 -1.035156 27.746094 -4.136719 L 27.746094 -27.746094 L 27.203125 -27.746094 C 24.753906 -26.820312 22.6875 -26.496094 19.367188 -26.496094 L 19.367188 -25.953125 C 22.578125 -25.953125 22.960938 -25.570312 22.960938 -22.359375 L 22.960938 -9.957031 C 22.960938 -5.058594 21.542969 -0.816406 16.210938 -0.816406 C 11.425781 -0.816406 9.738281 -4.136719 9.738281 -8.488281 L 9.738281 -27.746094 L 9.195312 -27.746094 C 6.746094 -26.820312 4.734375 -26.496094 1.414062 -26.496094 Z M 1.414062 -26.496094 "/></g></g></g><g fill="#ffffff" fill-opacity="1"><g transform="translate(92.725729, 190.867286)"><g><path d="M 1.359375 -40.097656 L 1.359375 -39.550781 C 4.570312 -39.550781 4.949219 -39.226562 4.949219 -36.015625 L 4.949219 -4.136719 C 4.949219 -1.035156 4.460938 -0.542969 1.359375 -0.542969 L 1.359375 0 L 13.328125 0 L 13.328125 -0.542969 C 10.226562 -0.542969 9.738281 -1.035156 9.738281 -4.136719 L 9.738281 -41.347656 L 9.195312 -41.347656 C 6.746094 -40.421875 4.679688 -40.097656 1.359375 -40.097656 Z M 1.359375 -40.097656 "/></g></g></g><g fill="#ffffff" fill-opacity="1"><g transform="translate(107.305578, 190.867286)"><g><path d="M 7.34375 -39.445312 C 5.277344 -39.445312 4.082031 -38.246094 4.082031 -36.179688 C 4.082031 -34.113281 5.277344 -32.914062 7.34375 -32.914062 C 9.414062 -32.914062 10.609375 -34.113281 10.609375 -36.179688 C 10.609375 -38.246094 9.414062 -39.445312 7.34375 -39.445312 Z M 1.359375 -26.496094 L 1.359375 -25.953125 C 4.570312 -25.953125 4.949219 -25.570312 4.949219 -22.359375 L 4.949219 -4.136719 C 4.949219 -1.035156 4.460938 -0.542969 1.359375 -0.542969 L 1.359375 0 L 13.273438 0 L 13.273438 -0.542969 C 10.171875 -0.542969 9.738281 -1.035156 9.738281 -4.136719 L 9.738281 -27.746094 L 9.195312 -27.746094 C 6.746094 -26.820312 4.679688 -26.496094 1.359375 -26.496094 Z M 1.359375 -26.496094 "/></g></g></g><g fill="#ffffff" fill-opacity="1"><g transform="translate(121.885426, 190.867286)"><g><path d="M 15.558594 -27.746094 C 7.289062 -27.746094 2.828125 -23.230469 2.828125 -13.601562 C 2.828125 -3.972656 7.289062 0.542969 15.558594 0.542969 C 23.828125 0.542969 28.289062 -3.972656 28.289062 -13.601562 C 28.289062 -23.230469 23.828125 -27.746094 15.558594 -27.746094 Z M 15.558594 -27.203125 C 20.726562 -27.203125 23.503906 -23.722656 23.503906 -13.601562 C 23.503906 -3.480469 20.726562 0 15.558594 0 C 10.390625 0 7.5625 -3.480469 7.5625 -13.601562 C 7.5625 -23.722656 10.390625 -27.203125 15.558594 -27.203125 Z M 15.558594 -27.203125 "/></g></g></g><g fill="#ffffff" fill-opacity="1"><g transform="translate(152.894801, 190.867286)"><g/></g></g><g fill="#ffffff" fill-opacity="1"><g transform="translate(167.474649, 190.867286)"><g><path d="M 0.542969 -38.082031 L 0.542969 -37.539062 C 3.753906 -37.539062 4.570312 -36.832031 5.765625 -32.753906 L 15.832031 0 L 21 0 L 30.46875 -31.121094 C 32.097656 -36.070312 33.242188 -37.539062 36.34375 -37.539062 L 36.34375 -38.082031 L 25.515625 -38.082031 L 25.515625 -37.539062 C 29.050781 -37.539062 30.519531 -36.832031 30.519531 -34.4375 C 30.519531 -33.351562 30.25 -31.9375 29.707031 -30.085938 L 20.835938 -1.304688 C 20.835938 -1.304688 13.546875 -25.84375 11.75 -30.792969 C 11.261719 -32.480469 10.988281 -33.785156 10.988281 -34.710938 C 10.988281 -36.941406 12.40625 -37.539062 15.777344 -37.539062 L 15.777344 -38.082031 Z M 0.542969 -38.082031 "/></g></g></g><g fill="#ffffff" fill-opacity="1"><g transform="translate(204.141866, 190.867286)"><g><path d="M 13.003906 -27.746094 C 6.855469 -27.746094 4.40625 -24.917969 4.40625 -21.652344 C 4.40625 -20.128906 5.277344 -19.042969 7.128906 -19.042969 C 8.976562 -19.042969 9.792969 -20.183594 9.792969 -21.652344 C 9.792969 -23.230469 8.867188 -24.375 7.128906 -24.375 C 6.417969 -24.375 5.710938 -24.046875 5.277344 -23.503906 C 6.09375 -25.625 8.378906 -27.203125 13.003906 -27.203125 C 18.007812 -27.203125 20.78125 -24.644531 20.78125 -19.964844 L 20.78125 -15.613281 C 8.378906 -15.503906 2.773438 -12.839844 2.773438 -6.3125 C 2.773438 -1.851562 5.65625 0.542969 10.988281 0.542969 C 15.558594 0.542969 19.367188 -1.742188 20.78125 -6.636719 L 20.78125 0 L 29.160156 0 L 29.160156 -0.542969 C 26.058594 -0.542969 25.570312 -1.035156 25.570312 -4.136719 L 25.570312 -18.769531 C 25.570312 -22.199219 24.265625 -24.644531 21.652344 -26.113281 C 19.585938 -27.3125 16.703125 -27.746094 13.003906 -27.746094 Z M 20.78125 -11.207031 C 20.78125 -3.808594 16.867188 -0.816406 12.621094 -0.816406 C 8.8125 -0.816406 7.179688 -2.882812 7.179688 -6.472656 C 7.179688 -12.566406 10.988281 -15.015625 20.78125 -15.125 Z M 20.78125 -11.207031 "/></g></g></g><g fill="#ffffff" fill-opacity="1"><g transform="translate(234.498408, 190.867286)"><g><path d="M 1.359375 -26.496094 L 1.359375 -25.953125 C 4.570312 -25.953125 4.949219 -25.570312 4.949219 -22.359375 L 4.949219 -4.136719 C 4.949219 -1.035156 4.460938 -0.542969 1.359375 -0.542969 L 1.359375 0 L 13.328125 0 L 13.328125 -0.542969 C 10.226562 -0.542969 9.738281 -1.035156 9.738281 -4.136719 L 9.738281 -17.246094 C 9.738281 -22.144531 11.152344 -26.386719 16.484375 -26.386719 C 21.273438 -26.386719 22.960938 -23.066406 22.960938 -18.714844 L 22.960938 0 L 31.28125 0 L 31.28125 -0.542969 C 28.183594 -0.542969 27.746094 -1.035156 27.746094 -4.136719 L 27.746094 -18.117188 C 27.746094 -23.449219 24.863281 -27.746094 18.007812 -27.746094 C 13.113281 -27.746094 10.71875 -25.40625 9.738281 -21.871094 L 9.738281 -27.746094 L 9.195312 -27.746094 C 6.746094 -26.820312 4.679688 -26.496094 1.359375 -26.496094 Z M 1.359375 -26.496094 "/></g></g></g><g fill="#ffffff" fill-opacity="1"><g transform="translate(267.03105, 190.867286)"><g><path d="M 3.15625 -27.203125 L 3.15625 -19.859375 L 3.644531 -19.859375 C 3.644531 -24.808594 5.550781 -26.660156 10.5 -26.660156 L 18.933594 -26.660156 L 1.742188 -0.542969 L 1.742188 0 L 24.589844 0 L 24.589844 -7.34375 L 23.992188 -7.34375 C 23.992188 -2.230469 22.035156 -0.542969 16.8125 -0.542969 L 7.398438 -0.542969 L 24.589844 -26.660156 L 24.589844 -27.203125 Z M 3.15625 -27.203125 "/></g></g></g><g fill="#ffffff" fill-opacity="1"><g transform="translate(293.470621, 190.867286)"><g><path d="M 7.34375 -39.445312 C 5.277344 -39.445312 4.082031 -38.246094 4.082031 -36.179688 C 4.082031 -34.113281 5.277344 -32.914062 7.34375 -32.914062 C 9.414062 -32.914062 10.609375 -34.113281 10.609375 -36.179688 C 10.609375 -38.246094 9.414062 -39.445312 7.34375 -39.445312 Z M 1.359375 -26.496094 L 1.359375 -25.953125 C 4.570312 -25.953125 4.949219 -25.570312 4.949219 -22.359375 L 4.949219 -4.136719 C 4.949219 -1.035156 4.460938 -0.542969 1.359375 -0.542969 L 1.359375 0 L 13.273438 0 L 13.273438 -0.542969 C 10.171875 -0.542969 9.738281 -1.035156 9.738281 -4.136719 L 9.738281 -27.746094 L 9.195312 -27.746094 C 6.746094 -26.820312 4.679688 -26.496094 1.359375 -26.496094 Z M 1.359375 -26.496094 "/></g></g></g><g fill="#ffffff" fill-opacity="1"><g transform="translate(308.050481, 190.867286)"><g><path d="M 1.359375 -26.496094 L 1.359375 -25.953125 C 4.570312 -25.953125 4.949219 -25.570312 4.949219 -22.359375 L 4.949219 -4.136719 C 4.949219 -1.035156 4.460938 -0.542969 1.359375 -0.542969 L 1.359375 0 L 13.328125 0 L 13.328125 -0.542969 C 10.226562 -0.542969 9.738281 -1.035156 9.738281 -4.136719 L 9.738281 -17.246094 C 9.738281 -22.144531 11.152344 -26.386719 16.484375 -26.386719 C 21.273438 -26.386719 22.960938 -23.066406 22.960938 -18.714844 L 22.960938 0 L 31.28125 0 L 31.28125 -0.542969 C 28.183594 -0.542969 27.746094 -1.035156 27.746094 -4.136719 L 27.746094 -18.117188 C 27.746094 -23.449219 24.863281 -27.746094 18.007812 -27.746094 C 13.113281 -27.746094 10.71875 -25.40625 9.738281 -21.871094 L 9.738281 -27.746094 L 9.195312 -27.746094 C 6.746094 -26.820312 4.679688 -26.496094 1.359375 -26.496094 Z M 1.359375 -26.496094 "/></g></g></g><g fill="#ffffff" fill-opacity="1"><g transform="translate(56.37493, 215.176144)"><g><path d="M 1.683594 0 L 7.324219 0 L 7.324219 -0.488281 L 1.957031 -0.488281 L 1.957031 -4.761719 L 5.679688 -4.761719 L 5.679688 -5.25 L 1.957031 -5.25 L 1.957031 -10.636719 L 7.324219 -10.636719 L 7.324219 -11.125 L 1.683594 -11.125 C 1.546875 -11.125 1.46875 -11.046875 1.46875 -10.890625 L 1.46875 -0.234375 C 1.46875 -0.078125 1.546875 0 1.683594 0 Z M 1.683594 0 "/></g></g></g><g fill="#ffffff" fill-opacity="1"><g transform="translate(64.641003, 215.176144)"><g><path d="M 1.371094 0 L 1.859375 0 L 1.859375 -5.816406 C 1.859375 -7.050781 2.625 -7.5625 3.644531 -7.5625 C 4.71875 -7.5625 5.425781 -7.050781 5.425781 -5.816406 L 5.425781 0 L 5.894531 0 L 5.894531 -5.816406 C 5.894531 -7.050781 6.601562 -7.5625 7.679688 -7.5625 C 8.695312 -7.5625 9.460938 -7.050781 9.460938 -5.816406 L 9.460938 0 L 9.949219 0 L 9.949219 -5.914062 C 9.949219 -7.226562 8.875 -8.050781 7.621094 -8.050781 C 6.933594 -8.050781 6.050781 -7.738281 5.660156 -6.933594 C 5.269531 -7.738281 4.386719 -8.050781 3.703125 -8.050781 C 2.449219 -8.050781 1.371094 -7.226562 1.371094 -5.914062 Z M 1.371094 0 "/></g></g></g><g fill="#ffffff" fill-opacity="1"><g transform="translate(75.962777, 215.176144)"><g><path d="M 1.46875 3.78125 L 1.957031 3.78125 L 1.957031 -0.921875 C 2.742188 0.0195312 3.722656 0.0976562 4.25 0.0976562 C 5.738281 0.0976562 7.011719 -0.785156 7.011719 -2.410156 L 7.011719 -5.542969 C 7.011719 -7.167969 5.738281 -8.050781 4.25 -8.050781 C 2.722656 -8.050781 1.46875 -7.167969 1.46875 -5.542969 Z M 4.25 -0.390625 C 3.152344 -0.390625 1.957031 -1 1.957031 -2.351562 L 1.957031 -5.542969 C 1.957031 -6.894531 3.09375 -7.5625 4.25 -7.5625 C 5.328125 -7.5625 6.523438 -6.894531 6.523438 -5.542969 L 6.523438 -2.410156 C 6.523438 -1.039062 5.328125 -0.390625 4.25 -0.390625 Z M 4.25 -0.390625 "/></g></g></g><g fill="#ffffff" fill-opacity="1"><g transform="translate(84.248439, 215.176144)"><g><path d="M 1.371094 0 L 1.859375 0 L 1.859375 -5.816406 C 1.859375 -7.050781 2.644531 -7.5625 3.683594 -7.5625 C 4.542969 -7.5625 5.152344 -7.246094 5.445312 -6.25 L 5.972656 -6.25 C 5.640625 -7.582031 4.761719 -8.050781 3.683594 -8.050781 C 2.410156 -8.050781 1.371094 -7.246094 1.371094 -5.914062 Z M 1.371094 0 "/></g></g></g><g fill="#ffffff" fill-opacity="1"><g transform="translate(90.712431, 215.176144)"><g><path d="M 4.035156 0.0976562 C 5.445312 0.0976562 6.484375 -0.664062 6.777344 -1.996094 L 6.289062 -1.996094 C 5.894531 -0.765625 4.976562 -0.390625 4.035156 -0.390625 C 2.917969 -0.390625 1.761719 -1.039062 1.761719 -2.410156 L 1.761719 -3.210938 L 6.425781 -4.464844 C 6.679688 -4.523438 6.796875 -4.601562 6.796875 -4.71875 L 6.796875 -5.542969 C 6.796875 -7.167969 5.5625 -8.050781 4.035156 -8.050781 C 2.507812 -8.050781 1.273438 -7.167969 1.273438 -5.542969 L 1.273438 -2.410156 C 1.273438 -0.785156 2.507812 0.0976562 4.035156 0.0976562 Z M 1.761719 -3.722656 L 1.761719 -5.542969 C 1.761719 -6.894531 2.917969 -7.5625 4.035156 -7.5625 C 5.171875 -7.5625 6.308594 -6.894531 6.308594 -5.542969 L 6.308594 -4.9375 Z M 1.761719 -3.722656 "/></g></g></g><g fill="#ffffff" fill-opacity="1"><g transform="translate(98.586736, 215.176144)"><g><path d="M 4.035156 0.0976562 C 5.445312 0.0976562 6.484375 -0.664062 6.777344 -1.996094 L 6.289062 -1.996094 C 5.894531 -0.765625 4.976562 -0.390625 4.035156 -0.390625 C 2.917969 -0.390625 1.761719 -1.039062 1.761719 -2.410156 L 1.761719 -3.210938 L 6.425781 -4.464844 C 6.679688 -4.523438 6.796875 -4.601562 6.796875 -4.71875 L 6.796875 -5.542969 C 6.796875 -7.167969 5.5625 -8.050781 4.035156 -8.050781 C 2.507812 -8.050781 1.273438 -7.167969 1.273438 -5.542969 L 1.273438 -2.410156 C 1.273438 -0.785156 2.507812 0.0976562 4.035156 0.0976562 Z M 1.761719 -3.722656 L 1.761719 -5.542969 C 1.761719 -6.894531 2.917969 -7.5625 4.035156 -7.5625 C 5.171875 -7.5625 6.308594 -6.894531 6.308594 -5.542969 L 6.308594 -4.9375 Z M 1.761719 -3.722656 "/></g></g></g><g fill="#ffffff" fill-opacity="1"><g transform="translate(106.461042, 215.176144)"><g><path d="M 1.371094 0 L 1.859375 0 L 1.859375 -5.542969 C 1.859375 -6.894531 3.015625 -7.5625 4.132812 -7.5625 C 5.25 -7.5625 6.40625 -6.894531 6.40625 -5.542969 L 6.40625 0 L 6.894531 0 L 6.894531 -5.542969 C 6.894531 -7.167969 5.640625 -8.050781 4.132812 -8.050781 C 2.644531 -8.050781 1.371094 -7.167969 1.371094 -5.542969 Z M 1.371094 0 "/></g></g></g><g fill="#ffffff" fill-opacity="1"><g transform="translate(114.727114, 215.176144)"><g><path d="M 4.035156 0.0976562 C 5.5625 0.0976562 6.816406 -0.785156 6.816406 -2.410156 L 6.816406 -11.125 L 6.328125 -11.125 L 6.328125 -7.03125 C 5.542969 -7.972656 4.5625 -8.050781 4.035156 -8.050781 C 2.546875 -8.050781 1.273438 -7.167969 1.273438 -5.542969 L 1.273438 -2.410156 C 1.273438 -0.785156 2.546875 0.0976562 4.035156 0.0976562 Z M 4.035156 -0.390625 C 2.917969 -0.390625 1.761719 -1.039062 1.761719 -2.410156 L 1.761719 -5.542969 C 1.761719 -6.894531 2.917969 -7.5625 4.035156 -7.5625 C 5.132812 -7.5625 6.328125 -6.953125 6.328125 -5.601562 L 6.328125 -2.410156 C 6.328125 -1.039062 5.191406 -0.390625 4.035156 -0.390625 Z M 4.035156 -0.390625 "/></g></g></g><g fill="#ffffff" fill-opacity="1"><g transform="translate(123.012776, 215.176144)"><g><path d="M 4.035156 0.0976562 C 5.445312 0.0976562 6.484375 -0.664062 6.777344 -1.996094 L 6.289062 -1.996094 C 5.894531 -0.765625 4.976562 -0.390625 4.035156 -0.390625 C 2.917969 -0.390625 1.761719 -1.039062 1.761719 -2.410156 L 1.761719 -3.210938 L 6.425781 -4.464844 C 6.679688 -4.523438 6.796875 -4.601562 6.796875 -4.71875 L 6.796875 -5.542969 C 6.796875 -7.167969 5.5625 -8.050781 4.035156 -8.050781 C 2.507812 -8.050781 1.273438 -7.167969 1.273438 -5.542969 L 1.273438 -2.410156 C 1.273438 -0.785156 2.507812 0.0976562 4.035156 0.0976562 Z M 1.761719 -3.722656 L 1.761719 -5.542969 C 1.761719 -6.894531 2.917969 -7.5625 4.035156 -7.5625 C 5.171875 -7.5625 6.308594 -6.894531 6.308594 -5.542969 L 6.308594 -4.9375 Z M 1.761719 -3.722656 "/></g></g></g><g fill="#ffffff" fill-opacity="1"><g transform="translate(130.887081, 215.176144)"><g><path d="M 4.035156 0.0976562 C 5.5625 0.0976562 6.816406 -0.785156 6.816406 -2.410156 L 6.816406 -11.125 L 6.328125 -11.125 L 6.328125 -7.03125 C 5.542969 -7.972656 4.5625 -8.050781 4.035156 -8.050781 C 2.546875 -8.050781 1.273438 -7.167969 1.273438 -5.542969 L 1.273438 -2.410156 C 1.273438 -0.785156 2.546875 0.0976562 4.035156 0.0976562 Z M 4.035156 -0.390625 C 2.917969 -0.390625 1.761719 -1.039062 1.761719 -2.410156 L 1.761719 -5.542969 C 1.761719 -6.894531 2.917969 -7.5625 4.035156 -7.5625 C 5.132812 -7.5625 6.328125 -6.953125 6.328125 -5.601562 L 6.328125 -2.410156 C 6.328125 -1.039062 5.191406 -0.390625 4.035156 -0.390625 Z M 4.035156 -0.390625 "/></g></g></g><g fill="#ffffff" fill-opacity="1"><g transform="translate(139.172743, 215.176144)"><g><path d="M 4.035156 0.0976562 C 5.542969 0.0976562 6.796875 -0.785156 6.796875 -2.410156 L 6.796875 -5.542969 C 6.796875 -7.167969 5.542969 -8.050781 4.035156 -8.050781 C 2.546875 -8.050781 1.273438 -7.167969 1.273438 -5.542969 L 1.273438 -2.410156 C 1.273438 -0.785156 2.546875 0.0976562 4.035156 0.0976562 Z M 4.035156 -0.390625 C 2.917969 -0.390625 1.761719 -1.039062 1.761719 -2.410156 L 1.761719 -5.542969 C 1.761719 -6.894531 2.917969 -7.5625 4.035156 -7.5625 C 5.152344 -7.5625 6.308594 -6.894531 6.308594 -5.542969 L 6.308594 -2.410156 C 6.308594 -1.039062 5.152344 -0.390625 4.035156 -0.390625 Z M 4.035156 -0.390625 "/></g></g></g><g fill="#ffffff" fill-opacity="1"><g transform="translate(147.242932, 215.176144)"><g><path d="M 1.371094 0 L 1.859375 0 L 1.859375 -5.816406 C 1.859375 -7.050781 2.644531 -7.5625 3.683594 -7.5625 C 4.542969 -7.5625 5.152344 -7.246094 5.445312 -6.25 L 5.972656 -6.25 C 5.640625 -7.582031 4.761719 -8.050781 3.683594 -8.050781 C 2.410156 -8.050781 1.371094 -7.246094 1.371094 -5.914062 Z M 1.371094 0 "/></g></g></g><g fill="#ffffff" fill-opacity="1"><g transform="translate(153.706924, 215.176144)"><g><path d="M 1.703125 -9.363281 C 1.957031 -9.363281 2.175781 -9.558594 2.175781 -9.8125 C 2.175781 -10.066406 1.957031 -10.285156 1.703125 -10.285156 C 1.449219 -10.285156 1.253906 -10.066406 1.253906 -9.8125 C 1.253906 -9.558594 1.449219 -9.363281 1.703125 -9.363281 Z M 1.46875 0 L 1.957031 0 L 1.957031 -7.933594 L 1.46875 -7.933594 Z M 1.46875 0 "/></g></g></g><g fill="#ffffff" fill-opacity="1"><g transform="translate(157.134791, 215.176144)"><g><path d="M 3.859375 0.0976562 C 5.523438 0.0976562 6.621094 -0.664062 6.621094 -2.015625 C 6.621094 -4.742188 1.566406 -3.644531 1.566406 -5.933594 C 1.566406 -7.421875 3.074219 -7.5625 3.78125 -7.5625 C 4.78125 -7.5625 5.699219 -7.109375 5.933594 -6.03125 L 6.445312 -6.03125 C 6.210938 -7.34375 5.113281 -8.050781 3.78125 -8.050781 C 2.234375 -8.050781 1.078125 -7.324219 1.078125 -5.894531 C 1.078125 -3.25 6.132812 -4.269531 6.132812 -2.015625 C 6.132812 -0.605469 4.71875 -0.390625 3.859375 -0.390625 C 2.859375 -0.390625 1.898438 -0.785156 1.605469 -1.878906 L 1.097656 -1.878906 C 1.332031 -0.605469 2.527344 0.0976562 3.859375 0.0976562 Z M 3.859375 0.0976562 "/></g></g></g><g fill="#ffffff" fill-opacity="1"><g transform="translate(164.734867, 215.176144)"><g><path d="M 1.371094 0 L 1.859375 0 L 1.859375 -5.816406 C 1.859375 -7.050781 2.625 -7.5625 3.644531 -7.5625 C 4.71875 -7.5625 5.425781 -7.050781 5.425781 -5.816406 L 5.425781 0 L 5.894531 0 L 5.894531 -5.816406 C 5.894531 -7.050781 6.601562 -7.5625 7.679688 -7.5625 C 8.695312 -7.5625 9.460938 -7.050781 9.460938 -5.816406 L 9.460938 0 L 9.949219 0 L 9.949219 -5.914062 C 9.949219 -7.226562 8.875 -8.050781 7.621094 -8.050781 C 6.933594 -8.050781 6.050781 -7.738281 5.660156 -6.933594 C 5.269531 -7.738281 4.386719 -8.050781 3.703125 -8.050781 C 2.449219 -8.050781 1.371094 -7.226562 1.371094 -5.914062 Z M 1.371094 0 "/></g></g></g><g fill="#ffffff" fill-opacity="1"><g transform="translate(176.056641, 215.176144)"><g><path d="M 4.035156 0.0976562 C 5.542969 0.0976562 6.796875 -0.785156 6.796875 -2.410156 L 6.796875 -5.542969 C 6.796875 -7.167969 5.542969 -8.050781 4.035156 -8.050781 C 2.546875 -8.050781 1.273438 -7.167969 1.273438 -5.542969 L 1.273438 -2.410156 C 1.273438 -0.785156 2.546875 0.0976562 4.035156 0.0976562 Z M 4.035156 -0.390625 C 2.917969 -0.390625 1.761719 -1.039062 1.761719 -2.410156 L 1.761719 -5.542969 C 1.761719 -6.894531 2.917969 -7.5625 4.035156 -7.5625 C 5.152344 -7.5625 6.308594 -6.894531 6.308594 -5.542969 L 6.308594 -2.410156 C 6.308594 -1.039062 5.152344 -0.390625 4.035156 -0.390625 Z M 4.035156 -0.390625 "/></g></g></g><g fill="#ffffff" fill-opacity="1"><g transform="translate(184.12683, 215.176144)"><g/></g></g><g fill="#ffffff" fill-opacity="1"><g transform="translate(188.02481, 215.176144)"><g><path d="M 5.25 0.0976562 C 7.523438 0.0976562 9.402344 -1.546875 9.402344 -4.761719 L 9.402344 -6.601562 L 8.914062 -6.601562 L 8.914062 -4.761719 C 8.914062 -3.410156 8.617188 -2.410156 7.855469 -1.546875 L 2.683594 -10.636719 L 8.070312 -10.636719 L 8.070312 -11.125 L 2.546875 -11.125 C 2.371094 -11.125 2.292969 -11.046875 2.292969 -10.890625 L 2.292969 -10.285156 L 4.289062 -6.816406 C 2.488281 -6.289062 1.46875 -4.976562 1.46875 -3.328125 C 1.46875 -1.234375 2.722656 0.0976562 5.25 0.0976562 Z M 5.269531 -0.390625 C 3.664062 -0.390625 1.957031 -1.039062 1.957031 -3.328125 C 1.957031 -5.054688 3.074219 -6.113281 4.542969 -6.367188 L 7.503906 -1.175781 C 6.738281 -0.488281 6.03125 -0.390625 5.269531 -0.390625 Z M 5.269531 -0.390625 "/></g></g></g><g fill="#ffffff" fill-opacity="1"><g transform="translate(198.896061, 215.176144)"><g/></g></g><g fill="#ffffff" fill-opacity="1"><g transform="translate(202.794041, 215.176144)"><g><path d="M 1.371094 0 L 1.859375 0 L 1.859375 -7.738281 C 1.859375 -9.792969 2.410156 -10.734375 4.132812 -10.734375 C 5.835938 -10.734375 6.328125 -9.382812 6.328125 -7.34375 L 6.308594 0 L 6.796875 0 L 6.796875 -7.34375 C 6.796875 -9.382812 7.285156 -10.734375 8.992188 -10.734375 C 10.714844 -10.734375 11.261719 -9.792969 11.261719 -7.738281 L 11.261719 0 L 11.753906 0 L 11.753906 -7.757812 C 11.753906 -9.792969 11.105469 -11.222656 8.992188 -11.222656 C 7.914062 -11.222656 7.246094 -10.8125 6.5625 -9.636719 C 5.875 -10.8125 5.210938 -11.222656 4.132812 -11.222656 C 2.015625 -11.222656 1.371094 -9.792969 1.371094 -7.757812 Z M 1.371094 0 "/></g></g></g><g fill="#ffffff" fill-opacity="1"><g transform="translate(215.917896, 215.176144)"><g><path d="M 3.839844 0.0976562 C 5.367188 0.0976562 6.601562 -0.707031 6.601562 -2.292969 L 6.601562 -5.542969 C 6.601562 -7.167969 5.308594 -8.050781 3.78125 -8.050781 C 2.371094 -8.050781 1.390625 -7.285156 1.097656 -5.953125 L 1.585938 -5.953125 C 1.976562 -7.1875 2.839844 -7.5625 3.78125 -7.5625 C 4.898438 -7.5625 6.113281 -6.894531 6.113281 -5.542969 L 6.113281 -4.09375 L 3.113281 -4.09375 C 2.015625 -4.09375 1.078125 -3.527344 1.078125 -2.015625 C 1.078125 -0.527344 2.371094 0.0976562 3.839844 0.0976562 Z M 3.839844 -0.390625 C 2.78125 -0.390625 1.566406 -0.707031 1.566406 -2.015625 C 1.566406 -3.410156 2.371094 -3.585938 3.09375 -3.585938 L 6.113281 -3.585938 L 6.113281 -2.292969 C 6.113281 -0.882812 4.957031 -0.390625 3.839844 -0.390625 Z M 3.839844 -0.390625 "/></g></g></g><g fill="#ffffff" fill-opacity="1"><g transform="translate(223.792201, 215.176144)"><g><path d="M 1.371094 0 L 1.859375 0 L 1.859375 -5.816406 C 1.859375 -7.050781 2.644531 -7.5625 3.683594 -7.5625 C 4.542969 -7.5625 5.152344 -7.246094 5.445312 -6.25 L 5.972656 -6.25 C 5.640625 -7.582031 4.761719 -8.050781 3.683594 -8.050781 C 2.410156 -8.050781 1.371094 -7.246094 1.371094 -5.914062 Z M 1.371094 0 "/></g></g></g><g fill="#ffffff" fill-opacity="1"><g transform="translate(230.256193, 215.176144)"><g><path d="M 1.46875 0 L 1.957031 0 L 1.957031 -3.742188 L 2.234375 -3.742188 C 3.152344 -3.742188 4.25 -4.054688 5.054688 -4.503906 L 6.855469 0 L 7.363281 0 L 5.464844 -4.800781 C 6.230469 -5.308594 7.246094 -6.914062 7.34375 -7.933594 L 6.855469 -7.933594 C 6.132812 -4.742188 3.289062 -4.230469 2.273438 -4.230469 L 1.957031 -4.230469 L 1.957031 -11.125 L 1.46875 -11.125 Z M 1.46875 0 "/></g></g></g><g fill="#ffffff" fill-opacity="1"><g transform="translate(238.40474, 215.176144)"><g><path d="M 4.035156 0.0976562 C 5.445312 0.0976562 6.484375 -0.664062 6.777344 -1.996094 L 6.289062 -1.996094 C 5.894531 -0.765625 4.976562 -0.390625 4.035156 -0.390625 C 2.917969 -0.390625 1.761719 -1.039062 1.761719 -2.410156 L 1.761719 -3.210938 L 6.425781 -4.464844 C 6.679688 -4.523438 6.796875 -4.601562 6.796875 -4.71875 L 6.796875 -5.542969 C 6.796875 -7.167969 5.5625 -8.050781 4.035156 -8.050781 C 2.507812 -8.050781 1.273438 -7.167969 1.273438 -5.542969 L 1.273438 -2.410156 C 1.273438 -0.785156 2.507812 0.0976562 4.035156 0.0976562 Z M 1.761719 -3.722656 L 1.761719 -5.542969 C 1.761719 -6.894531 2.917969 -7.5625 4.035156 -7.5625 C 5.171875 -7.5625 6.308594 -6.894531 6.308594 -5.542969 L 6.308594 -4.9375 Z M 1.761719 -3.722656 "/></g></g></g><g fill="#ffffff" fill-opacity="1"><g transform="translate(246.279046, 215.176144)"><g><path d="M 4.09375 0.0976562 C 5.171875 0.0976562 5.894531 -0.429688 6.070312 -1.195312 L 5.5625 -1.195312 C 5.40625 -0.707031 4.9375 -0.390625 4.09375 -0.390625 C 3.074219 -0.390625 2.46875 -0.902344 2.46875 -2.136719 L 2.46875 -7.445312 L 5.035156 -7.445312 L 5.035156 -7.933594 L 2.46875 -7.933594 L 2.46875 -11.125 L 1.976562 -11.125 L 1.976562 -7.933594 L 0.585938 -7.933594 L 0.585938 -7.445312 L 1.976562 -7.445312 L 1.976562 -2.039062 C 1.976562 -0.707031 2.839844 0.0976562 4.09375 0.0976562 Z M 4.09375 0.0976562 "/></g></g></g><g fill="#ffffff" fill-opacity="1"><g transform="translate(252.743037, 215.176144)"><g><path d="M 1.703125 -9.363281 C 1.957031 -9.363281 2.175781 -9.558594 2.175781 -9.8125 C 2.175781 -10.066406 1.957031 -10.285156 1.703125 -10.285156 C 1.449219 -10.285156 1.253906 -10.066406 1.253906 -9.8125 C 1.253906 -9.558594 1.449219 -9.363281 1.703125 -9.363281 Z M 1.46875 0 L 1.957031 0 L 1.957031 -7.933594 L 1.46875 -7.933594 Z M 1.46875 0 "/></g></g></g><g fill="#ffffff" fill-opacity="1"><g transform="translate(256.170904, 215.176144)"><g><path d="M 1.371094 0 L 1.859375 0 L 1.859375 -5.542969 C 1.859375 -6.894531 3.015625 -7.5625 4.132812 -7.5625 C 5.25 -7.5625 6.40625 -6.894531 6.40625 -5.542969 L 6.40625 0 L 6.894531 0 L 6.894531 -5.542969 C 6.894531 -7.167969 5.640625 -8.050781 4.132812 -8.050781 C 2.644531 -8.050781 1.371094 -7.167969 1.371094 -5.542969 Z M 1.371094 0 "/></g></g></g><g fill="#ffffff" fill-opacity="1"><g transform="translate(264.436977, 215.176144)"><g><path d="M 4.054688 3.78125 C 5.582031 3.78125 6.816406 2.898438 6.816406 1.273438 L 6.816406 -5.542969 C 6.816406 -7.167969 5.5625 -8.050781 4.035156 -8.050781 C 2.546875 -8.050781 1.273438 -7.167969 1.273438 -5.542969 L 1.273438 -2.410156 C 1.273438 -0.785156 2.546875 0.0976562 4.035156 0.0976562 C 4.5625 0.0976562 5.542969 0.0195312 6.328125 -0.921875 L 6.328125 1.273438 C 6.328125 2.644531 5.191406 3.289062 4.09375 3.289062 C 3.152344 3.289062 2.195312 2.917969 1.800781 1.683594 L 1.3125 1.683594 C 1.605469 3.015625 2.644531 3.78125 4.054688 3.78125 Z M 4.035156 -0.390625 C 2.917969 -0.390625 1.761719 -1.039062 1.761719 -2.410156 L 1.761719 -5.542969 C 1.761719 -6.894531 2.917969 -7.5625 4.035156 -7.5625 C 5.191406 -7.5625 6.328125 -6.894531 6.328125 -5.542969 L 6.328125 -2.351562 C 6.328125 -1 5.132812 -0.390625 4.035156 -0.390625 Z M 4.035156 -0.390625 "/></g></g></g><g fill="#ffffff" fill-opacity="1"><g transform="translate(272.526743, 215.176144)"><g/></g></g><g fill="#ffffff" fill-opacity="1"><g transform="translate(276.424735, 215.176144)"><g><path d="M 1.722656 0 L 4.660156 0 C 6.855469 0 8.207031 -1.488281 8.207031 -3.46875 L 8.207031 -7.660156 C 8.207031 -9.636719 6.855469 -11.125 4.660156 -11.125 L 1.722656 -11.125 C 1.546875 -11.125 1.46875 -11.046875 1.46875 -10.890625 L 1.46875 -0.234375 C 1.46875 -0.078125 1.546875 0 1.722656 0 Z M 1.957031 -0.488281 L 1.957031 -10.636719 L 4.660156 -10.636719 C 6.269531 -10.636719 7.71875 -9.695312 7.71875 -7.660156 L 7.71875 -3.46875 C 7.71875 -1.429688 6.269531 -0.488281 4.660156 -0.488281 Z M 1.957031 -0.488281 "/></g></g></g><g fill="#ffffff" fill-opacity="1"><g transform="translate(285.90525, 215.176144)"><g><path d="M 1.703125 -9.363281 C 1.957031 -9.363281 2.175781 -9.558594 2.175781 -9.8125 C 2.175781 -10.066406 1.957031 -10.285156 1.703125 -10.285156 C 1.449219 -10.285156 1.253906 -10.066406 1.253906 -9.8125 C 1.253906 -9.558594 1.449219 -9.363281 1.703125 -9.363281 Z M 1.46875 0 L 1.957031 0 L 1.957031 -7.933594 L 1.46875 -7.933594 Z M 1.46875 0 "/></g></g></g><g fill="#ffffff" fill-opacity="1"><g transform="translate(289.333117, 215.176144)"><g><path d="M 4.054688 3.78125 C 5.582031 3.78125 6.816406 2.898438 6.816406 1.273438 L 6.816406 -5.542969 C 6.816406 -7.167969 5.5625 -8.050781 4.035156 -8.050781 C 2.546875 -8.050781 1.273438 -7.167969 1.273438 -5.542969 L 1.273438 -2.410156 C 1.273438 -0.785156 2.546875 0.0976562 4.035156 0.0976562 C 4.5625 0.0976562 5.542969 0.0195312 6.328125 -0.921875 L 6.328125 1.273438 C 6.328125 2.644531 5.191406 3.289062 4.09375 3.289062 C 3.152344 3.289062 2.195312 2.917969 1.800781 1.683594 L 1.3125 1.683594 C 1.605469 3.015625 2.644531 3.78125 4.054688 3.78125 Z M 4.035156 -0.390625 C 2.917969 -0.390625 1.761719 -1.039062 1.761719 -2.410156 L 1.761719 -5.542969 C 1.761719 -6.894531 2.917969 -7.5625 4.035156 -7.5625 C 5.191406 -7.5625 6.328125 -6.894531 6.328125 -5.542969 L 6.328125 -2.351562 C 6.328125 -1 5.132812 -0.390625 4.035156 -0.390625 Z M 4.035156 -0.390625 "/></g></g></g><g fill="#ffffff" fill-opacity="1"><g transform="translate(297.422883, 215.176144)"><g><path d="M 1.703125 -9.363281 C 1.957031 -9.363281 2.175781 -9.558594 2.175781 -9.8125 C 2.175781 -10.066406 1.957031 -10.285156 1.703125 -10.285156 C 1.449219 -10.285156 1.253906 -10.066406 1.253906 -9.8125 C 1.253906 -9.558594 1.449219 -9.363281 1.703125 -9.363281 Z M 1.46875 0 L 1.957031 0 L 1.957031 -7.933594 L 1.46875 -7.933594 Z M 1.46875 0 "/></g></g></g><g fill="#ffffff" fill-opacity="1"><g transform="translate(300.85075, 215.176144)"><g><path d="M 4.09375 0.0976562 C 5.171875 0.0976562 5.894531 -0.429688 6.070312 -1.195312 L 5.5625 -1.195312 C 5.40625 -0.707031 4.9375 -0.390625 4.09375 -0.390625 C 3.074219 -0.390625 2.46875 -0.902344 2.46875 -2.136719 L 2.46875 -7.445312 L 5.035156 -7.445312 L 5.035156 -7.933594 L 2.46875 -7.933594 L 2.46875 -11.125 L 1.976562 -11.125 L 1.976562 -7.933594 L 0.585938 -7.933594 L 0.585938 -7.445312 L 1.976562 -7.445312 L 1.976562 -2.039062 C 1.976562 -0.707031 2.839844 0.0976562 4.09375 0.0976562 Z M 4.09375 0.0976562 "/></g></g></g><g fill="#ffffff" fill-opacity="1"><g transform="translate(307.314742, 215.176144)"><g><path d="M 3.839844 0.0976562 C 5.367188 0.0976562 6.601562 -0.707031 6.601562 -2.292969 L 6.601562 -5.542969 C 6.601562 -7.167969 5.308594 -8.050781 3.78125 -8.050781 C 2.371094 -8.050781 1.390625 -7.285156 1.097656 -5.953125 L 1.585938 -5.953125 C 1.976562 -7.1875 2.839844 -7.5625 3.78125 -7.5625 C 4.898438 -7.5625 6.113281 -6.894531 6.113281 -5.542969 L 6.113281 -4.09375 L 3.113281 -4.09375 C 2.015625 -4.09375 1.078125 -3.527344 1.078125 -2.015625 C 1.078125 -0.527344 2.371094 0.0976562 3.839844 0.0976562 Z M 3.839844 -0.390625 C 2.78125 -0.390625 1.566406 -0.707031 1.566406 -2.015625 C 1.566406 -3.410156 2.371094 -3.585938 3.09375 -3.585938 L 6.113281 -3.585938 L 6.113281 -2.292969 C 6.113281 -0.882812 4.957031 -0.390625 3.839844 -0.390625 Z M 3.839844 -0.390625 "/></g></g></g><g fill="#ffffff" fill-opacity="1"><g transform="translate(315.189059, 215.176144)"><g><path d="M 1.46875 0 L 1.957031 0 L 1.957031 -11.125 L 1.46875 -11.125 Z M 1.46875 0 "/></g></g></g></svg>