<svg xmlns="http://www.w3.org/2000/svg" xmlns:xlink="http://www.w3.org/1999/xlink" width="1080" zoomAndPan="magnify" viewBox="0 0 810 374.999991" height="500" preserveAspectRatio="xMidYMid meet" version="1.0"><defs><g/></defs><g fill="#ffffff" fill-opacity="1"><g transform="translate(22.348481, 216.827824)"><g><path d="M 114.566406 -128.378906 C 113.644531 -135.5625 100.015625 -136.117188 96.332031 -131.878906 C 95.777344 -131.328125 95.042969 -129.667969 93.9375 -128.75 C 92.09375 -127.089844 92.832031 -127.828125 90.621094 -127.089844 C 85.464844 -125.617188 80.304688 -124.144531 75.148438 -122.484375 C 71.464844 -121.378906 67.230469 -120.644531 63.546875 -118.984375 C 61.335938 -118.066406 60.046875 -116.960938 57.652344 -116.222656 C 49.730469 -114.011719 41.257812 -112.355469 34.445312 -108.855469 C 29.839844 -106.460938 24.128906 -104.804688 23.761719 -98.355469 C 23.761719 -96.515625 24.496094 -95.042969 25.417969 -93.382812 C 26.523438 -91.171875 27.996094 -90.4375 29.65625 -89.148438 L 33.523438 -85.648438 C 35.917969 -83.4375 39.96875 -80.304688 43.285156 -80.492188 C 43.46875 -80.492188 46.601562 -81.597656 46.785156 -81.964844 C 48.441406 -83.992188 42.730469 -88.226562 41.625 -89.699219 C 39.601562 -92.277344 36.652344 -96.332031 37.574219 -99.832031 C 39.601562 -106.644531 52.679688 -109.039062 58.570312 -110.699219 C 63.175781 -111.988281 67.597656 -114.382812 72.203125 -115.671875 C 77.359375 -117.144531 82.332031 -117.882812 87.488281 -119.90625 C 76.253906 -102.039062 69.253906 -81.410156 62.070312 -61.886719 C 54.519531 -41.441406 47.335938 -20.628906 37.574219 -1.105469 C 35.363281 3.5 29.65625 17.496094 22.472656 13.628906 C 18.789062 11.789062 16.945312 6.628906 15.65625 3.132812 C 13.628906 -1.84375 11.972656 -7.183594 10.5 -12.339844 C 7.734375 -22.472656 6.628906 -32.601562 5.339844 -43.101562 C 4.972656 -44.941406 4.238281 -50.652344 1.289062 -49.730469 C -1.289062 -48.808594 0.738281 -34.445312 0.550781 -32.050781 C 0 -21.734375 0.738281 -11.234375 3.316406 -1.105469 C 5.710938 8.472656 10.5 18.234375 19.523438 23.207031 C 23.578125 25.417969 28.550781 26.890625 33.152344 26.890625 C 37.941406 26.890625 40.707031 24.128906 43.285156 20.628906 C 54.703125 5.894531 61.152344 -11.789062 68.148438 -28.917969 C 70.175781 -33.707031 71.28125 -38.3125 72.570312 -42.917969 C 73.859375 -48.074219 76.621094 -53.046875 78.648438 -58.019531 C 82.515625 -67.597656 86.382812 -77.175781 90.804688 -86.753906 L 98.542969 -102.410156 C 100.382812 -105.726562 100.566406 -108.671875 102.777344 -111.617188 C 106.09375 -115.671875 109.410156 -119.539062 112.722656 -123.773438 C 113.644531 -125.066406 114.75 -126.539062 114.566406 -128.378906 Z M 76.4375 -66.675781 C 72.9375 -58.757812 69.070312 -52.125 65.941406 -44.019531 L 77.542969 -74.414062 C 79.203125 -79.015625 81.410156 -83.253906 83.621094 -87.675781 C 80.859375 -81.226562 79.386719 -72.9375 76.4375 -66.675781 Z M 76.4375 -66.675781 "/></g></g></g><g fill="#ffffff" fill-opacity="1"><g transform="translate(107.99637, 216.827824)"><g><path d="M 87.121094 -44.941406 C 86.570312 -48.441406 78.097656 -38.679688 77.726562 -38.3125 C 72.386719 -32.601562 67.230469 -26.339844 60.964844 -21.367188 C 58.019531 -19.15625 56.730469 -17.867188 56.914062 -22.285156 C 57.097656 -26.15625 58.570312 -30.207031 59.675781 -33.707031 C 60.230469 -35.546875 63.914062 -42.546875 62.808594 -43.835938 C 62.625 -44.019531 62.257812 -43.46875 61.886719 -43.101562 C 64.464844 -48.257812 70.730469 -57.097656 62.441406 -59.492188 C 53.046875 -62.070312 48.257812 -51.941406 44.207031 -45.863281 C 40.335938 -40.335938 36.652344 -34.996094 32.234375 -30.023438 C 28.917969 -26.15625 23.761719 -18.789062 18.417969 -17.3125 C 13.445312 -15.65625 16.761719 -23.761719 17.496094 -26.523438 C 18.050781 -27.996094 24.679688 -45.125 25.050781 -44.941406 C 24.679688 -44.941406 24.3125 -44.757812 23.945312 -44.207031 C 25.96875 -48.625 28.179688 -53.046875 30.574219 -57.28125 C 30.023438 -56.175781 29.46875 -54.335938 29.46875 -54.335938 C 30.390625 -54.152344 34.8125 -63.175781 34.445312 -63.175781 C 34.074219 -62.992188 33.707031 -62.625 33.339844 -62.070312 C 34.8125 -64.652344 36.652344 -65.941406 33.339844 -68.519531 C 30.023438 -71.097656 24.128906 -71.648438 20.8125 -68.703125 C 16.761719 -65.386719 14.183594 -59.492188 12.15625 -54.886719 C 10.867188 -52.308594 8.65625 -50.835938 7.367188 -47.890625 C 4.789062 -42.179688 3.316406 -36.46875 1.84375 -30.574219 C 0.367188 -24.867188 -0.550781 -18.972656 0.367188 -13.078125 C 0.921875 -10.5 1.84375 -7.550781 3.867188 -5.710938 C 4.421875 -5.339844 9.761719 -3.316406 9.394531 -4.605469 C 9.023438 -4.605469 8.65625 -4.605469 8.472656 -4.789062 C 10.5 -4.789062 12.523438 -5.710938 14.367188 -6.816406 C 14.550781 -6.628906 12.894531 -5.894531 12.894531 -5.710938 C 14.734375 -3.316406 28.734375 -17.496094 30.023438 -19.15625 C 34.628906 -25.050781 39.230469 -30.757812 44.019531 -36.46875 C 41.625 -30.023438 37.574219 -21.183594 41.441406 -14.183594 C 43.652344 -10.5 47.890625 -8.472656 51.941406 -8.839844 C 60.597656 -9.394531 68.335938 -18.789062 73.675781 -24.496094 C 77.175781 -28.363281 80.675781 -32.417969 83.253906 -36.835938 C 84.359375 -38.679688 87.304688 -42.730469 87.121094 -44.941406 Z M 59.125 -41.257812 C 58.757812 -40.152344 58.570312 -38.679688 58.019531 -37.757812 C 58.019531 -37.574219 57.835938 -37.390625 57.652344 -37.207031 C 57.835938 -37.390625 57.835938 -37.574219 57.835938 -37.757812 C 56.363281 -42.363281 61.886719 -48.257812 63.730469 -52.863281 C 62.257812 -48.808594 60.414062 -45.125 59.125 -41.257812 Z M 15.289062 -17.496094 C 14.183594 -22.839844 18.050781 -30.207031 20.078125 -35.179688 C 17.496094 -27.996094 14.917969 -19.15625 15.289062 -17.496094 Z M 44.019531 -35.546875 C 44.019531 -36.285156 44.207031 -36.835938 44.757812 -37.207031 C 44.390625 -36.652344 44.207031 -36.101562 44.019531 -35.546875 Z M 66.859375 -84.359375 C 66.675781 -84.726562 66.308594 -87.121094 65.941406 -87.675781 C 64.652344 -89.699219 62.625 -90.4375 60.78125 -90.988281 C 60.597656 -90.988281 58.386719 -91.542969 57.46875 -91.359375 C 55.257812 -91.171875 56.175781 -90.253906 55.625 -89.148438 L 48.808594 -77.359375 C 47.890625 -75.703125 44.207031 -68.335938 46.046875 -67.042969 C 47.152344 -66.125 49.914062 -68.148438 50.652344 -68.703125 C 53.785156 -71.097656 57.835938 -74.042969 60.597656 -77.175781 C 61.152344 -77.726562 67.964844 -83.804688 66.859375 -84.359375 Z M 66.859375 -84.359375 "/></g></g></g><g fill="#ffffff" fill-opacity="1"><g transform="translate(181.67197, 216.827824)"><g><path d="M 73.675781 -46.96875 C 71.097656 -44.207031 69.4375 -39.601562 67.414062 -36.285156 C 64.28125 -30.945312 61.152344 -25.785156 57.835938 -20.628906 C 51.574219 -10.683594 45.3125 -0.550781 37.757812 8.472656 C 34.628906 12.339844 27.996094 21.734375 21.734375 20.996094 C 17.128906 20.261719 17.128906 12.339844 17.128906 8.839844 C 17.128906 5.894531 17.3125 2.945312 17.683594 0.183594 C 17.867188 -1.472656 19.339844 -7 18.417969 -8.472656 L 16.945312 -2.945312 C 17.128906 -5.15625 17.496094 -7.550781 18.050781 -9.761719 C 17.867188 -10.128906 19.523438 -15.289062 19.890625 -16.945312 C 20.8125 -20.628906 21.734375 -24.3125 22.839844 -27.996094 C 23.761719 -31.679688 24.679688 -35.179688 25.785156 -38.679688 C 26.707031 -41.996094 27.996094 -43.652344 30.023438 -46.230469 C 38.3125 -56.546875 45.863281 -67.78125 52.863281 -79.015625 C 55.441406 -83.253906 57.097656 -86.9375 60.230469 -90.4375 C 64.835938 -95.226562 67.964844 -102.410156 70.914062 -108.304688 C 75.886719 -117.882812 82.515625 -131.144531 81.410156 -142.378906 L 81.410156 -143.300781 L 81.226562 -143.484375 C 80.121094 -150.667969 73.492188 -159.140625 65.386719 -156.5625 C 61.152344 -155.273438 58.019531 -150.851562 55.441406 -147.71875 L 51.203125 -142.011719 C 50.285156 -140.90625 48.996094 -138.140625 48.074219 -136.667969 L 48.257812 -136.851562 L 42.363281 -126.722656 L 43.835938 -129.851562 C 42.917969 -130.039062 38.863281 -122.117188 38.3125 -121.195312 C 36.285156 -117.695312 34.445312 -114.199219 32.785156 -110.699219 C 29.101562 -103.332031 25.417969 -95.777344 23.023438 -87.859375 C 20.445312 -79.9375 17.496094 -72.203125 14.734375 -64.28125 C 13.261719 -60.046875 11.789062 -55.625 10.5 -51.390625 C 9.394531 -47.890625 6.816406 -42.179688 7.367188 -38.496094 L 7.921875 -38.496094 C 7.367188 -37.207031 7 -35.917969 6.628906 -34.628906 C 6.816406 -35.734375 6.816406 -37.023438 7 -37.390625 C 6.078125 -36.101562 6.261719 -31.679688 6.078125 -31.3125 C 3.683594 -21.367188 0.921875 -11.417969 0.183594 -1.105469 C -0.367188 8.65625 -0.367188 21.550781 7.367188 28.734375 C 16.023438 36.652344 25.96875 31.3125 33.152344 24.496094 C 41.625 16.207031 48.808594 6.445312 55.441406 -3.132812 C 61.519531 -11.972656 66.308594 -21.367188 71.832031 -30.207031 C 74.042969 -33.890625 76.4375 -37.574219 77.542969 -41.625 C 78.28125 -44.574219 77.910156 -51.390625 73.675781 -46.96875 Z M 50.652344 -112.90625 C 54.335938 -121.75 58.019531 -130.773438 63.175781 -139.0625 C 64.464844 -141.089844 72.753906 -152.140625 72.386719 -142.378906 L 72.386719 -142.195312 C 72.019531 -131.878906 65.386719 -121.011719 60.964844 -112.171875 L 53.230469 -97.804688 C 50.652344 -93.382812 46.230469 -87.859375 44.757812 -83.070312 C 45.863281 -86.015625 49.179688 -90.253906 50.835938 -93.015625 C 53.597656 -97.621094 55.992188 -102.226562 58.570312 -106.828125 C 62.808594 -114.933594 67.414062 -123.40625 70.542969 -132.246094 C 62.257812 -107.566406 46.785156 -84.542969 33.152344 -62.625 C 38.496094 -78.832031 43.835938 -96.515625 50.652344 -112.90625 Z M 44.757812 -125.800781 C 46.601562 -129.300781 49.914062 -132.246094 51.757812 -135.5625 C 47.890625 -127.828125 43.101562 -120.828125 39.046875 -113.460938 C 39.046875 -113.644531 39.046875 -114.011719 39.230469 -114.199219 C 40.890625 -118.25 42.730469 -121.933594 44.757812 -125.800781 Z M 9.945312 -30.574219 C 9.761719 -30.207031 9.761719 -30.023438 9.761719 -30.023438 C 7.550781 -24.867188 7.367188 -17.867188 6.261719 -12.339844 C 6.078125 -11.050781 5.710938 -9.945312 5.710938 -8.65625 L 5.710938 -9.210938 L 5.15625 -3.316406 C 5.527344 -9.945312 6.261719 -16.761719 7.550781 -23.207031 L 7.550781 -23.023438 C 8.105469 -27.261719 9.023438 -31.128906 9.761719 -31.128906 C 10.128906 -31.3125 10.128906 -30.757812 9.945312 -30.574219 Z M 9.945312 -30.574219 "/></g></g></g><g fill="#ffffff" fill-opacity="1"><g transform="translate(246.874882, 216.827824)"><g><path d="M 48.257812 -45.3125 C 47.890625 -47.703125 45.3125 -46.96875 44.019531 -46.046875 C 42.363281 -44.941406 33.152344 -32.785156 33.890625 -31.863281 C 34.445312 -31.863281 34.8125 -31.863281 35.179688 -32.234375 C 32.601562 -29.101562 27.8125 -25.601562 24.3125 -22.839844 C 22.285156 -21.183594 17.3125 -16.578125 14.367188 -18.050781 C 8.105469 -21.183594 20.8125 -43.285156 20.261719 -43.46875 C 19.707031 -43.652344 15.105469 -33.339844 14.183594 -30.945312 C 16.394531 -37.390625 19.339844 -43.835938 22.839844 -49.546875 C 22.65625 -48.996094 22.101562 -48.074219 22.472656 -48.074219 C 22.839844 -47.890625 25.601562 -51.757812 25.050781 -52.125 C 24.867188 -52.125 24.496094 -52.125 24.3125 -51.941406 C 24.867188 -52.492188 25.785156 -52.679688 25.785156 -53.785156 C 25.785156 -55.625 21.550781 -57.46875 20.078125 -58.019531 C 16.578125 -59.492188 13.078125 -59.863281 10.316406 -58.019531 C 6.628906 -55.808594 5.894531 -51.390625 4.421875 -47.519531 C 4.050781 -46.414062 0.550781 -33.339844 1.289062 -33.152344 C 1.65625 -33.339844 1.65625 -33.523438 1.84375 -33.890625 L 1.289062 -30.574219 C 1.105469 -30.574219 1.472656 -31.496094 1.105469 -31.496094 C -0.367188 -31.496094 0 -24.867188 0.183594 -23.945312 C 0.921875 -20.628906 3.5 -18.234375 5.527344 -15.472656 C 6.628906 -13.8125 7.734375 -12.15625 9.394531 -11.050781 C 11.605469 -9.394531 10.128906 -11.050781 11.605469 -10.316406 L 11.234375 -10.316406 C 11.050781 -9.210938 18.050781 -7.367188 19.523438 -7.550781 C 25.96875 -9.023438 30.574219 -16.945312 34.257812 -21.917969 C 37.757812 -26.339844 40.707031 -30.757812 43.835938 -35.363281 C 45.679688 -37.757812 48.996094 -41.8125 48.257812 -45.3125 Z M 16.023438 -68.519531 C 16.394531 -67.964844 15.839844 -67.230469 17.128906 -66.492188 C 18.417969 -65.941406 19.15625 -66.675781 20.261719 -67.042969 C 22.472656 -67.964844 24.128906 -70.359375 25.785156 -71.832031 C 26.339844 -72.203125 25.234375 -72.019531 25.234375 -72.019531 C 27.628906 -74.226562 25.601562 -71.648438 27.8125 -72.9375 C 30.023438 -74.414062 30.390625 -76.808594 32.234375 -78.832031 C 30.023438 -77.910156 28.363281 -76.621094 26.890625 -74.78125 C 25.050781 -72.386719 23.761719 -71.28125 21.734375 -69.992188 C 23.945312 -71.648438 25.050781 -73.308594 26.890625 -76.253906 C 27.445312 -76.808594 27.996094 -77.175781 28.734375 -77.542969 C 28.179688 -78.097656 28.179688 -78.648438 28.917969 -79.203125 C 29.46875 -80.121094 30.574219 -80.492188 31.128906 -81.410156 C 32.050781 -82.699219 31.863281 -84.359375 32.96875 -85.648438 C 33.890625 -86.382812 35.179688 -86.9375 35.917969 -87.675781 C 37.574219 -89.148438 39.417969 -91.910156 38.679688 -94.304688 C 37.941406 -96.515625 36.101562 -99.277344 34.074219 -100.566406 C 31.679688 -101.855469 28.363281 -102.410156 25.785156 -101.304688 C 25.234375 -101.121094 23.023438 -100.566406 23.761719 -99.832031 C 23.945312 -99.460938 24.128906 -99.460938 24.496094 -99.460938 C 22.839844 -98.171875 20.078125 -95.960938 23.945312 -94.488281 C 23.578125 -94.121094 23.945312 -92.464844 23.945312 -92.277344 C 23.761719 -90.988281 21.183594 -84.175781 19.523438 -80.859375 L 21.734375 -84.175781 C 20.445312 -81.410156 18.972656 -78.832031 17.3125 -76.621094 C 18.417969 -79.015625 16.207031 -76.253906 16.207031 -75.703125 C 14.183594 -76.621094 14.734375 -70.914062 14.917969 -70.359375 C 14.917969 -70.175781 16.023438 -68.519531 16.023438 -68.519531 Z M 12.523438 -24.679688 L 12.523438 -24.496094 L 12.15625 -23.390625 L 12.523438 -24.867188 C 12.710938 -25.050781 12.710938 -25.050781 12.523438 -24.679688 Z M 18.601562 -79.386719 C 18.601562 -79.386719 18.972656 -79.753906 19.339844 -80.492188 Z M 16.761719 -75.886719 C 16.761719 -75.703125 16.761719 -75.703125 16.578125 -75.519531 C 16.578125 -75.519531 16.578125 -75.703125 16.394531 -75.703125 C 16.578125 -75.703125 16.578125 -75.703125 16.761719 -75.886719 Z M 16.761719 -75.886719 "/></g></g></g><g fill="#ffffff" fill-opacity="1"><g transform="translate(281.686597, 216.827824)"><g><path d="M 84.726562 -45.863281 C 84.726562 -45.863281 84.910156 -45.679688 84.726562 -46.046875 C 83.804688 -47.335938 82.515625 -46.414062 81.226562 -46.046875 C 75.886719 -44.941406 70.359375 -43.652344 64.835938 -42.730469 C 66.859375 -49.363281 68.886719 -56.363281 69.625 -63.175781 C 69.992188 -65.753906 70.175781 -68.519531 69.625 -71.097656 C 69.253906 -72.753906 68.703125 -74.414062 67.78125 -75.886719 C 67.78125 -75.886719 65.570312 -78.648438 66.125 -77.175781 L 65.941406 -77.359375 L 65.203125 -78.832031 L 65.941406 -78.097656 C 66.125 -79.203125 62.992188 -81.226562 62.992188 -81.226562 C 58.386719 -85.832031 52.125 -89.332031 45.863281 -85.832031 C 41.996094 -83.621094 38.863281 -79.9375 36.285156 -76.253906 C 35.363281 -74.964844 34.445312 -73.492188 33.707031 -72.019531 C 32.96875 -70.542969 31.863281 -65.753906 30.757812 -65.019531 C 29.839844 -64.28125 27.074219 -64.097656 25.785156 -63.359375 C 23.945312 -62.625 22.285156 -61.703125 20.8125 -60.597656 C 17.3125 -58.386719 14.550781 -55.257812 11.972656 -52.125 C 7.550781 -46.230469 5.339844 -39.601562 2.210938 -33.707031 C -3.683594 -22.472656 2.761719 -7.734375 13.628906 -2.394531 C 17.128906 -0.738281 21.183594 0 24.867188 -0.367188 C 28.734375 -0.921875 32.417969 -2.945312 35.363281 -5.15625 C 38.128906 -7.183594 44.207031 -10.867188 45.3125 -14 C 45.3125 -14.183594 44.941406 -14 44.390625 -13.445312 L 49.730469 -19.707031 C 49.914062 -19.523438 48.441406 -17.683594 48.441406 -17.683594 C 49.730469 -17.128906 56.363281 -26.890625 57.097656 -27.628906 C 58.386719 -29.839844 59.675781 -32.234375 61.152344 -34.445312 C 62.441406 -36.101562 62.070312 -35.917969 63.914062 -36.652344 C 63.730469 -36.46875 66.125 -37.207031 66.492188 -37.207031 C 68.519531 -37.574219 90.070312 -39.046875 84.726562 -45.863281 Z M 20.996094 -8.65625 L 20.8125 -8.65625 C 5.527344 -6.445312 23.207031 -38.863281 23.578125 -40.707031 L 22.472656 -39.046875 C 25.234375 -44.574219 27.8125 -48.996094 29.101562 -50.46875 C 31.128906 -41.257812 41.074219 -37.757812 49.179688 -36.652344 C 43.835938 -25.96875 33.890625 -11.050781 20.996094 -8.65625 Z M 57.28125 -59.675781 C 55.992188 -54.519531 54.886719 -47.703125 52.125 -43.101562 C 51.203125 -41.257812 51.757812 -41.8125 49.914062 -41.441406 C 48.808594 -41.074219 46.414062 -41.441406 45.3125 -41.625 C 43.285156 -41.8125 40.890625 -42.179688 39.417969 -43.46875 C 36.835938 -45.679688 37.207031 -49.179688 37.574219 -52.308594 C 37.941406 -55.441406 38.863281 -58.386719 39.96875 -61.335938 C 40.523438 -62.441406 44.019531 -68.335938 43.46875 -69.4375 C 43.285156 -69.992188 41.257812 -66.675781 41.074219 -66.492188 C 42.179688 -68.519531 43.285156 -69.625 44.207031 -70.914062 C 44.019531 -70.914062 44.207031 -71.097656 44.390625 -71.464844 L 44.390625 -71.28125 L 44.574219 -71.648438 C 44.574219 -71.648438 44.574219 -71.832031 44.757812 -71.832031 C 47.519531 -75.519531 54.335938 -83.804688 58.019531 -78.097656 C 60.78125 -73.308594 58.203125 -64.28125 57.28125 -59.675781 Z M 44.574219 -71.648438 L 44.757812 -71.832031 C 44.757812 -71.648438 44.574219 -71.648438 44.574219 -71.648438 Z M 44.574219 -71.648438 "/></g></g></g><g fill="#ffffff" fill-opacity="1"><g transform="translate(353.704512, 216.827824)"><g/></g></g><g fill="#ffffff" fill-opacity="1"><g transform="translate(405.277449, 216.827824)"><g><path d="M 31.496094 -88.226562 C 31.496094 -88.410156 31.3125 -88.777344 31.3125 -88.964844 C 31.3125 -88.777344 31.496094 -88.410156 31.496094 -88.226562 L 30.945312 -100.015625 C 30.945312 -99.832031 31.128906 -99.832031 31.128906 -99.832031 C 30.945312 -100.9375 30.945312 -102.039062 30.945312 -103.144531 C 30.757812 -103.515625 30.757812 -103.699219 30.757812 -104.066406 C 30.757812 -103.882812 30.945312 -103.699219 30.945312 -103.515625 C 30.945312 -103.882812 30.757812 -103.882812 30.757812 -104.25 L 30.757812 -104.066406 L 30.757812 -104.433594 L 30.757812 -104.25 L 30.757812 -104.621094 L 30.757812 -104.433594 L 30.757812 -106.460938 C 30.390625 -114.566406 30.023438 -120.828125 30.023438 -120.828125 C 30.023438 -120.828125 30.207031 -116.40625 30.390625 -111.25 C 30.023438 -117.511719 29.285156 -123.960938 28.363281 -130.222656 C 28.550781 -129.484375 28.734375 -128.75 29.101562 -128.933594 C 29.839844 -129.117188 28.363281 -136.851562 27.8125 -136.667969 C 27.628906 -136.300781 27.445312 -135.933594 27.445312 -135.746094 C 26.890625 -137.773438 26.890625 -139.246094 23.945312 -138.878906 C 20.261719 -138.695312 16.578125 -136.300781 13.628906 -134.273438 C 11.417969 -132.617188 7.921875 -130.222656 7.367188 -127.273438 C 7 -125.617188 7.921875 -124.695312 7.921875 -123.40625 C 7.921875 -122.300781 7.367188 -120.828125 7.550781 -119.355469 C 7.734375 -117.511719 8.105469 -115.488281 8.472656 -113.644531 C 9.023438 -110.144531 9.761719 -106.644531 9.945312 -102.960938 C 10.128906 -101.488281 12.15625 -81.78125 11.972656 -81.226562 C 12.15625 -81.410156 12.15625 -81.78125 12.339844 -82.148438 C 12.339844 -80.492188 12.339844 -78.648438 12.523438 -76.992188 C 12.15625 -76.992188 12.339844 -78.464844 11.972656 -78.28125 C 10.128906 -77.910156 11.417969 -60.964844 11.605469 -58.941406 C 11.972656 -55.074219 11.605469 -51.390625 11.234375 -47.519531 C 11.234375 -45.863281 10.867188 -44.207031 11.050781 -42.546875 C 11.050781 -42.363281 11.234375 -38.496094 11.789062 -40.152344 C 11.789062 -39.601562 11.605469 -39.230469 11.605469 -38.863281 C 11.605469 -39.046875 11.417969 -39.230469 11.417969 -39.417969 C 11.050781 -39.230469 11.234375 -34.996094 11.234375 -34.996094 C 11.050781 -33.152344 10.5 -32.050781 9.945312 -30.207031 C 8.472656 -25.050781 7.921875 -19.339844 7.183594 -14 C 6.261719 -8.289062 5.339844 -2.578125 3.5 2.945312 C 2.578125 5.339844 0 8.839844 0 11.417969 C -0.183594 19.15625 15.839844 15.839844 18.601562 12.15625 C 23.207031 6.078125 24.3125 -2.761719 27.8125 -9.578125 C 32.96875 -19.523438 38.863281 -28.917969 44.390625 -38.496094 C 45.496094 -40.523438 46.230469 -43.101562 47.152344 -44.941406 C 48.808594 -48.625 51.757812 -51.941406 53.96875 -55.257812 C 64.28125 -70.542969 74.964844 -85.09375 87.121094 -99.09375 C 90.621094 -103.144531 94.671875 -106.644531 98.542969 -110.328125 C 100.199219 -111.988281 102.226562 -113.277344 103.699219 -114.933594 C 105.171875 -116.40625 105.355469 -117.882812 106.828125 -119.171875 C 109.960938 -121.933594 122.484375 -124.144531 120.089844 -130.773438 C 119.171875 -133.167969 115.488281 -137.035156 112.539062 -136.117188 C 110.882812 -135.5625 111.433594 -135.011719 110.328125 -134.089844 C 106.09375 -130.40625 101.304688 -127.273438 97.25 -123.222656 C 88.042969 -114.199219 80.121094 -104.25 72.203125 -94.121094 C 62.992188 -81.964844 53.046875 -69.992188 45.863281 -56.546875 C 41.074219 -47.335938 34.628906 -39.046875 29.839844 -29.839844 C 29.839844 -30.023438 30.390625 -33.890625 29.65625 -33.523438 C 29.285156 -33.152344 29.101562 -32.601562 28.917969 -32.050781 C 30.390625 -43.285156 33.339844 -55.074219 32.601562 -67.230469 Z M 16.578125 -46.230469 C 15.472656 -34.074219 14.734375 -22.101562 11.972656 -10.128906 C 11.050781 -6.261719 9.945312 -2.761719 8.65625 0.550781 C 9.023438 -0.738281 9.578125 -2.394531 9.945312 -4.050781 C 11.234375 -10.5 12.523438 -16.945312 13.445312 -23.390625 C 15.65625 -39.417969 16.945312 -55.257812 16.761719 -71.28125 C 16.945312 -63.175781 17.128906 -54.703125 16.578125 -46.785156 Z M 16.578125 -46.230469 "/></g></g></g><g fill="#ffffff" fill-opacity="1"><g transform="translate(471.953855, 216.827824)"><g><path d="M 93.753906 -44.390625 C 93.566406 -48.441406 90.253906 -44.941406 89.148438 -43.46875 C 86.753906 -39.96875 84.542969 -36.285156 82.332031 -32.785156 C 77.359375 -25.234375 72.386719 -17.683594 66.675781 -10.5 C 47.703125 12.894531 60.964844 -28.734375 59.492188 -28.363281 C 58.757812 -28.179688 58.203125 -25.417969 58.019531 -24.867188 C 59.492188 -31.496094 62.257812 -39.417969 65.753906 -45.863281 C 67.78125 -49.914062 70.175781 -53.230469 66.492188 -57.652344 C 59.675781 -65.941406 51.757812 -58.386719 47.335938 -52.679688 C 45.496094 -59.675781 41.8125 -69.992188 32.785156 -69.992188 C 28.734375 -69.992188 26.339844 -67.964844 23.578125 -65.570312 C 21.917969 -64.464844 20.628906 -64.28125 19.15625 -62.992188 C 16.761719 -61.335938 15.105469 -58.757812 13.445312 -56.546875 C 7.183594 -47.335938 2.761719 -35.734375 0.738281 -25.050781 C -0.183594 -19.890625 -0.550781 -14.183594 0.921875 -9.023438 C 1.84375 -6.078125 5.15625 0.550781 9.394531 0 C 9.578125 0 9.210938 -0.183594 8.65625 -0.550781 C 11.234375 0.183594 14.183594 -0.183594 16.394531 -1.65625 C 16.578125 -1.289062 14.367188 -0.367188 14.367188 -0.367188 C 16.394531 2.761719 31.496094 -15.472656 32.601562 -17.128906 C 34.996094 -20.445312 36.652344 -23.945312 38.863281 -27.445312 C 40.523438 -30.023438 43.101562 -33.339844 44.941406 -36.101562 C 44.757812 -34.8125 44.757812 -33.152344 44.757812 -33.152344 C 41.441406 -22.65625 38.3125 -11.234375 42.730469 -0.367188 C 44.757812 5.15625 49.730469 10.316406 55.992188 9.210938 C 61.519531 8.289062 66.125 2.945312 69.4375 -1.289062 C 73.492188 -6.078125 76.992188 -11.417969 80.492188 -16.945312 C 83.4375 -21.917969 86.199219 -26.890625 88.59375 -32.417969 C 90.070312 -35.917969 94.121094 -40.152344 93.753906 -44.390625 Z M 40.890625 -43.101562 C 39.96875 -41.8125 39.046875 -40.523438 38.3125 -39.230469 L 33.523438 -32.417969 C 30.390625 -27.8125 27.074219 -23.390625 23.578125 -19.15625 C 22.65625 -17.867188 18.234375 -12.15625 16.394531 -12.710938 C 13.628906 -13.628906 16.578125 -23.207031 16.945312 -24.679688 C 17.496094 -27.261719 27.261719 -55.625 29.839844 -56.175781 C 26.523438 -56.363281 15.839844 -23.023438 15.289062 -20.261719 C 16.761719 -29.285156 20.078125 -38.128906 23.761719 -46.414062 C 25.785156 -50.652344 30.390625 -61.886719 36.46875 -61.886719 C 39.785156 -61.886719 40.523438 -55.074219 41.074219 -52.863281 C 40.890625 -53.230469 39.230469 -58.570312 39.046875 -58.386719 C 38.128906 -57.652344 41.8125 -47.519531 41.8125 -46.046875 C 41.8125 -44.574219 41.8125 -44.574219 40.890625 -43.101562 Z M 45.125 -34.074219 C 45.125 -34.074219 45.679688 -36.652344 45.863281 -37.207031 L 46.785156 -38.496094 Z M 42.363281 -45.496094 L 42.363281 -47.335938 C 42.917969 -46.601562 42.917969 -46.046875 42.363281 -45.496094 Z M 42.363281 -45.496094 "/></g></g></g><g fill="#ffffff" fill-opacity="1"><g transform="translate(552.260269, 216.827824)"><g><path d="M 76.253906 -43.835938 C 75.332031 -48.257812 72.753906 -45.3125 71.648438 -43.652344 C 69.070312 -40.523438 65.019531 -37.574219 61.886719 -34.628906 C 57.652344 -30.945312 53.414062 -27.074219 48.996094 -23.578125 C 46.785156 -21.734375 44.019531 -19.15625 41.257812 -18.234375 C 40.890625 -18.050781 39.601562 -17.867188 39.601562 -17.683594 L 39.417969 -17.867188 C 39.417969 -17.867188 39.230469 -20.8125 39.417969 -20.996094 C 39.601562 -23.390625 40.335938 -25.785156 41.074219 -27.996094 C 41.257812 -28.363281 43.285156 -34.628906 42.917969 -34.628906 L 41.996094 -33.523438 C 43.101562 -35.734375 44.574219 -37.941406 45.863281 -40.335938 C 42.917969 -37.574219 40.890625 -34.445312 39.417969 -30.574219 C 38.679688 -28.734375 36.652344 -25.417969 36.285156 -22.65625 C 36.652344 -26.707031 39.417969 -32.050781 40.707031 -34.445312 C 42.546875 -38.3125 44.574219 -42.730469 46.96875 -46.414062 C 51.390625 -53.046875 60.964844 -59.125 58.019531 -68.335938 C 55.441406 -76.992188 48.625 -77.175781 43.285156 -72.203125 C 40.707031 -69.808594 18.789062 -41.8125 19.339844 -41.441406 C 19.339844 -41.441406 21.183594 -43.652344 23.578125 -46.785156 L 12.710938 -30.945312 C 12.523438 -30.945312 14.550781 -34.074219 14.367188 -34.257812 C 14.183594 -34.445312 12.894531 -33.152344 12.710938 -32.417969 C 13.078125 -36.285156 14.367188 -40.152344 14.734375 -44.019531 C 14.917969 -45.496094 14.734375 -46.601562 15.105469 -48.074219 C 15.839844 -50.46875 16.578125 -53.046875 17.683594 -55.074219 C 18.417969 -56.546875 19.890625 -57.835938 20.261719 -59.308594 C 20.996094 -61.703125 20.8125 -62.625 22.472656 -64.652344 C 23.945312 -66.492188 26.15625 -68.335938 27.445312 -69.992188 C 30.574219 -74.597656 25.234375 -77.726562 22.285156 -78.28125 C 19.890625 -78.648438 17.496094 -78.832031 15.289062 -77.542969 C 12.894531 -76.070312 13.445312 -74.78125 12.894531 -72.753906 C 12.339844 -70.175781 10.5 -67.230469 9.578125 -64.835938 C 8.105469 -60.964844 6.816406 -57.097656 5.527344 -53.230469 C 4.050781 -49.363281 2.578125 -45.679688 1.472656 -41.8125 C 0.550781 -38.679688 0.738281 -35.734375 0.367188 -32.785156 C 0 -29.46875 -0.550781 -27.261719 1.105469 -24.3125 C 2.945312 -21.183594 7.921875 -16.394531 11.234375 -20.445312 L 11.972656 -18.972656 C 15.105469 -25.785156 19.890625 -31.863281 23.761719 -38.496094 C 25.417969 -41.441406 28.363281 -43.46875 30.757812 -46.601562 C 34.074219 -51.019531 37.023438 -55.441406 40.707031 -59.675781 C 40.152344 -58.757812 37.757812 -54.519531 37.941406 -54.335938 C 38.3125 -54.519531 38.496094 -54.886719 38.863281 -55.257812 L 36.285156 -50.097656 C 36.101562 -50.285156 37.023438 -51.574219 36.652344 -51.574219 C 35.363281 -51.941406 31.496094 -41.625 31.128906 -40.707031 C 29.839844 -36.652344 29.65625 -32.96875 29.285156 -28.734375 C 29.101562 -26.707031 28.734375 -24.679688 28.734375 -22.65625 C 28.734375 -20.628906 28.917969 -18.601562 29.839844 -16.578125 C 30.390625 -15.472656 31.128906 -14 32.050781 -13.078125 C 32.234375 -13.078125 34.257812 -11.234375 33.339844 -12.710938 L 34.445312 -11.605469 L 33.890625 -11.972656 C 33.707031 -11.050781 40.523438 -7.367188 41.625 -7 C 46.785156 -5.339844 52.308594 -11.234375 55.625 -14.734375 C 60.046875 -19.523438 63.730469 -25.050781 67.78125 -30.207031 C 69.992188 -33.152344 76.992188 -39.417969 76.253906 -43.835938 Z M 76.253906 -43.835938 "/></g></g></g><g fill="#ffffff" fill-opacity="1"><g transform="translate(615.068729, 216.827824)"><g><path d="M 60.414062 -28.734375 C 60.414062 -28.363281 60.230469 -27.996094 60.046875 -27.8125 C 56.546875 -37.941406 48.625 -42.546875 38.128906 -41.996094 C 39.417969 -43.101562 53.046875 -55.992188 53.046875 -55.992188 C 52.492188 -55.992188 52.125 -55.808594 51.574219 -55.441406 C 55.992188 -59.308594 62.441406 -62.808594 67.042969 -67.597656 C 68.519531 -69.070312 70.914062 -71.464844 71.28125 -73.675781 C 72.203125 -79.015625 65.019531 -78.832031 61.519531 -79.015625 C 59.492188 -79.015625 37.941406 -78.28125 37.941406 -77.910156 C 37.941406 -77.726562 40.335938 -77.726562 42.546875 -77.726562 C 38.679688 -77.542969 34.996094 -76.992188 31.128906 -76.4375 C 31.863281 -76.621094 32.417969 -76.992188 32.417969 -77.175781 C 32.417969 -77.726562 26.890625 -76.992188 27.074219 -76.253906 L 27.074219 -76.070312 C 26.339844 -76.070312 25.785156 -76.4375 24.679688 -76.253906 C 22.839844 -75.886719 20.628906 -73.308594 19.707031 -71.832031 C 18.601562 -69.992188 18.050781 -67.597656 19.15625 -65.570312 C 20.261719 -63.914062 21.550781 -64.28125 22.65625 -63.546875 C 23.761719 -62.808594 24.128906 -61.886719 25.601562 -61.335938 C 28.179688 -60.230469 32.050781 -61.335938 34.628906 -61.886719 C 35.917969 -62.070312 52.492188 -66.308594 52.125 -67.042969 L 51.574219 -67.042969 L 53.785156 -67.964844 C 50.835938 -64.835938 48.441406 -61.152344 45.496094 -58.203125 C 43.835938 -56.546875 41.625 -55.257812 39.96875 -53.597656 C 38.679688 -52.125 38.679688 -51.757812 38.128906 -51.019531 C 37.390625 -50.285156 34.628906 -48.074219 34.445312 -48.074219 C 31.496094 -46.230469 28.734375 -44.757812 26.15625 -42.546875 C 23.761719 -40.523438 21.917969 -39.417969 19.15625 -38.128906 C 18.972656 -38.128906 12.523438 -34.445312 13.445312 -34.074219 L 13.445312 -33.890625 C 12.339844 -32.601562 11.417969 -30.945312 11.972656 -29.101562 C 12.710938 -26.339844 15.105469 -24.3125 18.050781 -24.867188 C 21.734375 -25.785156 25.96875 -29.65625 29.46875 -31.496094 C 33.707031 -33.523438 40.707031 -36.285156 44.757812 -32.417969 C 46.785156 -30.390625 47.890625 -26.523438 48.257812 -23.761719 C 48.625 -19.890625 46.785156 -19.339844 43.46875 -17.3125 C 26.707031 -7.367188 8.472656 0 -8.472656 10.128906 C -15.105469 14 -22.65625 18.234375 -27.445312 24.496094 C -28.917969 26.707031 -34.8125 35.734375 -32.417969 38.128906 C -32.234375 38.128906 -31.863281 37.023438 -31.496094 36.101562 C -31.679688 37.023438 -31.679688 37.941406 -31.679688 39.046875 C -31.496094 39.785156 -31.679688 43.46875 -30.390625 45.496094 C -28.734375 48.257812 -25.96875 49.914062 -23.023438 51.203125 C -20.261719 52.308594 -17.128906 53.046875 -14.183594 53.414062 C -4.972656 54.519531 5.894531 53.785156 13.8125 48.625 C 21.367188 43.835938 29.101562 38.3125 34.445312 30.945312 C 38.496094 25.601562 42.730469 20.445312 46.046875 14.734375 C 48.808594 9.945312 52.308594 4.238281 54.152344 -1.105469 C 52.492188 3.867188 49.914062 9.023438 48.074219 13.8125 C 45.679688 20.078125 41.8125 25.601562 37.574219 30.757812 C 31.128906 38.679688 21.550781 44.757812 12.894531 49.730469 C 33.152344 41.441406 48.808594 22.101562 57.835938 2.578125 C 60.046875 -2.210938 61.703125 -7.183594 62.257812 -12.523438 C 62.441406 -14 62.441406 -15.65625 62.441406 -17.3125 C 62.441406 -19.523438 62.257812 -19.707031 63.730469 -21.367188 C 65.570312 -23.390625 68.519531 -25.234375 70.730469 -27.074219 C 75.703125 -31.128906 80.859375 -34.996094 85.28125 -39.601562 C 86.753906 -41.074219 89.148438 -43.652344 88.410156 -45.863281 C 86.382812 -49.730469 78.097656 -41.257812 76.621094 -40.152344 L 60.597656 -28.179688 C 60.597656 -28.363281 60.414062 -28.550781 60.414062 -28.734375 Z M 42.179688 -3.867188 C 38.3125 5.894531 33.152344 13.8125 25.96875 21.734375 C 21.734375 26.339844 17.128906 30.945312 12.339844 34.996094 C 10.316406 36.835938 8.105469 38.496094 5.894531 39.96875 C 4.605469 40.707031 1.84375 42.917969 0 43.835938 L 0.183594 43.835938 C -2.210938 45.125 -4.605469 46.230469 -7 47.152344 C -6.445312 46.785156 -5.710938 46.414062 -5.710938 46.414062 C -5.894531 46.414062 -13.8125 47.703125 -15.289062 47.335938 C -16.578125 46.96875 -17.683594 46.414062 -18.601562 45.3125 C -24.128906 39.046875 -15.65625 31.128906 -11.050781 27.074219 C -6.628906 23.023438 -1.289062 20.078125 3.867188 17.128906 L 12.15625 12.339844 C 14.183594 11.234375 18.601562 9.394531 19.890625 7.367188 C 19.890625 7.183594 19.707031 7 19.523438 7 L 23.578125 4.789062 L 20.628906 6.816406 C 21.734375 7 24.496094 4.238281 24.679688 4.050781 C 30.757812 0.367188 37.207031 -2.945312 43.285156 -6.816406 C 42.917969 -5.894531 42.730469 -4.972656 42.179688 -3.867188 Z M 51.390625 -40.335938 C 51.757812 -40.152344 43.46875 -43.46875 43.46875 -42.546875 C 43.46875 -43.101562 51.941406 -39.601562 51.757812 -39.785156 C 52.679688 -39.046875 57.097656 -34.8125 59.125 -31.496094 C 57.46875 -35.179688 54.886719 -38.3125 51.390625 -40.335938 Z M 61.703125 -13.078125 C 61.519531 -11.417969 61.152344 -9.761719 60.78125 -8.289062 C 61.152344 -10.683594 60.964844 -19.15625 61.886719 -19.890625 C 62.070312 -17.683594 61.886719 -15.289062 61.703125 -13.078125 Z M 60.230469 -78.464844 L 60.414062 -78.464844 C 60.597656 -78.464844 61.152344 -78.28125 61.519531 -78.28125 L 59.308594 -78.28125 C 59.492188 -78.28125 59.863281 -78.464844 60.230469 -78.464844 Z M 60.414062 -28.734375 C 60.414062 -29.46875 59.863281 -30.390625 59.125 -31.496094 C 59.675781 -30.574219 60.046875 -29.65625 60.414062 -28.734375 Z M 21.550781 -38.3125 L 21.734375 -38.3125 C 21.550781 -38.128906 21.550781 -38.128906 21.367188 -38.128906 Z M 48.625 17.496094 C 48.808594 17.3125 48.996094 17.3125 48.996094 17.128906 C 48.996094 17.3125 48.808594 17.3125 48.625 17.496094 Z M 48.625 17.496094 "/></g></g></g><g fill="#ffffff" fill-opacity="1"><g transform="translate(690.033667, 216.827824)"><g><path d="M 48.257812 -45.3125 C 47.890625 -47.703125 45.3125 -46.96875 44.019531 -46.046875 C 42.363281 -44.941406 33.152344 -32.785156 33.890625 -31.863281 C 34.445312 -31.863281 34.8125 -31.863281 35.179688 -32.234375 C 32.601562 -29.101562 27.8125 -25.601562 24.3125 -22.839844 C 22.285156 -21.183594 17.3125 -16.578125 14.367188 -18.050781 C 8.105469 -21.183594 20.8125 -43.285156 20.261719 -43.46875 C 19.707031 -43.652344 15.105469 -33.339844 14.183594 -30.945312 C 16.394531 -37.390625 19.339844 -43.835938 22.839844 -49.546875 C 22.65625 -48.996094 22.101562 -48.074219 22.472656 -48.074219 C 22.839844 -47.890625 25.601562 -51.757812 25.050781 -52.125 C 24.867188 -52.125 24.496094 -52.125 24.3125 -51.941406 C 24.867188 -52.492188 25.785156 -52.679688 25.785156 -53.785156 C 25.785156 -55.625 21.550781 -57.46875 20.078125 -58.019531 C 16.578125 -59.492188 13.078125 -59.863281 10.316406 -58.019531 C 6.628906 -55.808594 5.894531 -51.390625 4.421875 -47.519531 C 4.050781 -46.414062 0.550781 -33.339844 1.289062 -33.152344 C 1.65625 -33.339844 1.65625 -33.523438 1.84375 -33.890625 L 1.289062 -30.574219 C 1.105469 -30.574219 1.472656 -31.496094 1.105469 -31.496094 C -0.367188 -31.496094 0 -24.867188 0.183594 -23.945312 C 0.921875 -20.628906 3.5 -18.234375 5.527344 -15.472656 C 6.628906 -13.8125 7.734375 -12.15625 9.394531 -11.050781 C 11.605469 -9.394531 10.128906 -11.050781 11.605469 -10.316406 L 11.234375 -10.316406 C 11.050781 -9.210938 18.050781 -7.367188 19.523438 -7.550781 C 25.96875 -9.023438 30.574219 -16.945312 34.257812 -21.917969 C 37.757812 -26.339844 40.707031 -30.757812 43.835938 -35.363281 C 45.679688 -37.757812 48.996094 -41.8125 48.257812 -45.3125 Z M 16.023438 -68.519531 C 16.394531 -67.964844 15.839844 -67.230469 17.128906 -66.492188 C 18.417969 -65.941406 19.15625 -66.675781 20.261719 -67.042969 C 22.472656 -67.964844 24.128906 -70.359375 25.785156 -71.832031 C 26.339844 -72.203125 25.234375 -72.019531 25.234375 -72.019531 C 27.628906 -74.226562 25.601562 -71.648438 27.8125 -72.9375 C 30.023438 -74.414062 30.390625 -76.808594 32.234375 -78.832031 C 30.023438 -77.910156 28.363281 -76.621094 26.890625 -74.78125 C 25.050781 -72.386719 23.761719 -71.28125 21.734375 -69.992188 C 23.945312 -71.648438 25.050781 -73.308594 26.890625 -76.253906 C 27.445312 -76.808594 27.996094 -77.175781 28.734375 -77.542969 C 28.179688 -78.097656 28.179688 -78.648438 28.917969 -79.203125 C 29.46875 -80.121094 30.574219 -80.492188 31.128906 -81.410156 C 32.050781 -82.699219 31.863281 -84.359375 32.96875 -85.648438 C 33.890625 -86.382812 35.179688 -86.9375 35.917969 -87.675781 C 37.574219 -89.148438 39.417969 -91.910156 38.679688 -94.304688 C 37.941406 -96.515625 36.101562 -99.277344 34.074219 -100.566406 C 31.679688 -101.855469 28.363281 -102.410156 25.785156 -101.304688 C 25.234375 -101.121094 23.023438 -100.566406 23.761719 -99.832031 C 23.945312 -99.460938 24.128906 -99.460938 24.496094 -99.460938 C 22.839844 -98.171875 20.078125 -95.960938 23.945312 -94.488281 C 23.578125 -94.121094 23.945312 -92.464844 23.945312 -92.277344 C 23.761719 -90.988281 21.183594 -84.175781 19.523438 -80.859375 L 21.734375 -84.175781 C 20.445312 -81.410156 18.972656 -78.832031 17.3125 -76.621094 C 18.417969 -79.015625 16.207031 -76.253906 16.207031 -75.703125 C 14.183594 -76.621094 14.734375 -70.914062 14.917969 -70.359375 C 14.917969 -70.175781 16.023438 -68.519531 16.023438 -68.519531 Z M 12.523438 -24.679688 L 12.523438 -24.496094 L 12.15625 -23.390625 L 12.523438 -24.867188 C 12.710938 -25.050781 12.710938 -25.050781 12.523438 -24.679688 Z M 18.601562 -79.386719 C 18.601562 -79.386719 18.972656 -79.753906 19.339844 -80.492188 Z M 16.761719 -75.886719 C 16.761719 -75.703125 16.761719 -75.703125 16.578125 -75.519531 C 16.578125 -75.519531 16.578125 -75.703125 16.394531 -75.703125 C 16.578125 -75.703125 16.578125 -75.703125 16.761719 -75.886719 Z M 16.761719 -75.886719 "/></g></g></g><g fill="#ffffff" fill-opacity="1"><g transform="translate(724.845349, 216.827824)"><g><path d="M 76.253906 -43.835938 C 75.332031 -48.257812 72.753906 -45.3125 71.648438 -43.652344 C 69.070312 -40.523438 65.019531 -37.574219 61.886719 -34.628906 C 57.652344 -30.945312 53.414062 -27.074219 48.996094 -23.578125 C 46.785156 -21.734375 44.019531 -19.15625 41.257812 -18.234375 C 40.890625 -18.050781 39.601562 -17.867188 39.601562 -17.683594 L 39.417969 -17.867188 C 39.417969 -17.867188 39.230469 -20.8125 39.417969 -20.996094 C 39.601562 -23.390625 40.335938 -25.785156 41.074219 -27.996094 C 41.257812 -28.363281 43.285156 -34.628906 42.917969 -34.628906 L 41.996094 -33.523438 C 43.101562 -35.734375 44.574219 -37.941406 45.863281 -40.335938 C 42.917969 -37.574219 40.890625 -34.445312 39.417969 -30.574219 C 38.679688 -28.734375 36.652344 -25.417969 36.285156 -22.65625 C 36.652344 -26.707031 39.417969 -32.050781 40.707031 -34.445312 C 42.546875 -38.3125 44.574219 -42.730469 46.96875 -46.414062 C 51.390625 -53.046875 60.964844 -59.125 58.019531 -68.335938 C 55.441406 -76.992188 48.625 -77.175781 43.285156 -72.203125 C 40.707031 -69.808594 18.789062 -41.8125 19.339844 -41.441406 C 19.339844 -41.441406 21.183594 -43.652344 23.578125 -46.785156 L 12.710938 -30.945312 C 12.523438 -30.945312 14.550781 -34.074219 14.367188 -34.257812 C 14.183594 -34.445312 12.894531 -33.152344 12.710938 -32.417969 C 13.078125 -36.285156 14.367188 -40.152344 14.734375 -44.019531 C 14.917969 -45.496094 14.734375 -46.601562 15.105469 -48.074219 C 15.839844 -50.46875 16.578125 -53.046875 17.683594 -55.074219 C 18.417969 -56.546875 19.890625 -57.835938 20.261719 -59.308594 C 20.996094 -61.703125 20.8125 -62.625 22.472656 -64.652344 C 23.945312 -66.492188 26.15625 -68.335938 27.445312 -69.992188 C 30.574219 -74.597656 25.234375 -77.726562 22.285156 -78.28125 C 19.890625 -78.648438 17.496094 -78.832031 15.289062 -77.542969 C 12.894531 -76.070312 13.445312 -74.78125 12.894531 -72.753906 C 12.339844 -70.175781 10.5 -67.230469 9.578125 -64.835938 C 8.105469 -60.964844 6.816406 -57.097656 5.527344 -53.230469 C 4.050781 -49.363281 2.578125 -45.679688 1.472656 -41.8125 C 0.550781 -38.679688 0.738281 -35.734375 0.367188 -32.785156 C 0 -29.46875 -0.550781 -27.261719 1.105469 -24.3125 C 2.945312 -21.183594 7.921875 -16.394531 11.234375 -20.445312 L 11.972656 -18.972656 C 15.105469 -25.785156 19.890625 -31.863281 23.761719 -38.496094 C 25.417969 -41.441406 28.363281 -43.46875 30.757812 -46.601562 C 34.074219 -51.019531 37.023438 -55.441406 40.707031 -59.675781 C 40.152344 -58.757812 37.757812 -54.519531 37.941406 -54.335938 C 38.3125 -54.519531 38.496094 -54.886719 38.863281 -55.257812 L 36.285156 -50.097656 C 36.101562 -50.285156 37.023438 -51.574219 36.652344 -51.574219 C 35.363281 -51.941406 31.496094 -41.625 31.128906 -40.707031 C 29.839844 -36.652344 29.65625 -32.96875 29.285156 -28.734375 C 29.101562 -26.707031 28.734375 -24.679688 28.734375 -22.65625 C 28.734375 -20.628906 28.917969 -18.601562 29.839844 -16.578125 C 30.390625 -15.472656 31.128906 -14 32.050781 -13.078125 C 32.234375 -13.078125 34.257812 -11.234375 33.339844 -12.710938 L 34.445312 -11.605469 L 33.890625 -11.972656 C 33.707031 -11.050781 40.523438 -7.367188 41.625 -7 C 46.785156 -5.339844 52.308594 -11.234375 55.625 -14.734375 C 60.046875 -19.523438 63.730469 -25.050781 67.78125 -30.207031 C 69.992188 -33.152344 76.992188 -39.417969 76.253906 -43.835938 Z M 76.253906 -43.835938 "/></g></g></g><g fill="#ffffff" fill-opacity="1"><g transform="translate(137.844843, 309.709268)"><g><path d="M 24.8125 0 L 24.8125 -20.15625 L 15.859375 -4.5625 L 14.453125 -4.5625 L 5.5 -20.15625 L 5.5 0 L 3.078125 0 L 3.078125 -24.546875 L 5.5625 -24.546875 L 15.140625 -7.734375 L 24.78125 -24.546875 L 27.234375 -24.546875 L 27.234375 0 Z M 24.8125 0 "/></g></g></g><g fill="#ffffff" fill-opacity="1"><g transform="translate(180.261359, 309.709268)"><g><path d="M 10.6875 -24.546875 L 12.71875 -24.546875 L 22.921875 0 L 20.359375 0 L 17.171875 -7.671875 L 6.15625 -7.671875 L 3 0 L 0.421875 0 Z M 16.625 -9.578125 L 11.6875 -21.703125 L 6.671875 -9.578125 Z M 16.625 -9.578125 "/></g></g></g><g fill="#ffffff" fill-opacity="1"><g transform="translate(215.729451, 309.709268)"><g><path d="M 3.078125 0 L 3.078125 -24.546875 L 13.4375 -24.546875 C 14.5 -24.546875 15.472656 -24.316406 16.359375 -23.859375 C 17.253906 -23.410156 18.019531 -22.820312 18.65625 -22.09375 C 19.300781 -21.375 19.800781 -20.550781 20.15625 -19.625 C 20.519531 -18.707031 20.703125 -17.773438 20.703125 -16.828125 C 20.703125 -15.929688 20.566406 -15.070312 20.296875 -14.25 C 20.035156 -13.4375 19.664062 -12.703125 19.1875 -12.046875 C 18.71875 -11.390625 18.148438 -10.835938 17.484375 -10.390625 C 16.816406 -9.941406 16.066406 -9.632812 15.234375 -9.46875 L 21.25 0 L 18.53125 0 L 12.75 -9.0625 L 5.5 -9.0625 L 5.5 0 Z M 5.5 -11.203125 L 13.515625 -11.203125 C 14.222656 -11.203125 14.867188 -11.351562 15.453125 -11.65625 C 16.046875 -11.96875 16.550781 -12.390625 16.96875 -12.921875 C 17.382812 -13.453125 17.707031 -14.050781 17.9375 -14.71875 C 18.164062 -15.382812 18.28125 -16.085938 18.28125 -16.828125 C 18.28125 -17.566406 18.144531 -18.273438 17.875 -18.953125 C 17.613281 -19.640625 17.257812 -20.234375 16.8125 -20.734375 C 16.363281 -21.242188 15.832031 -21.644531 15.21875 -21.9375 C 14.613281 -22.238281 13.976562 -22.390625 13.3125 -22.390625 L 5.5 -22.390625 Z M 5.5 -11.203125 "/></g></g></g><g fill="#ffffff" fill-opacity="1"><g transform="translate(250.402463, 309.709268)"><g><path d="M 3.078125 0 L 3.078125 -24.5 L 5.5 -24.5 L 5.5 -10.265625 L 19.015625 -24.546875 L 21.671875 -24.546875 L 11.640625 -13.75 L 22.1875 0 L 19.53125 0 L 10.125 -12.34375 L 5.5 -7.53125 L 5.5 0 Z M 3.078125 0 "/></g></g></g><g fill="#ffffff" fill-opacity="1"><g transform="translate(284.729766, 309.709268)"><g><path d="M 19.5625 -2.140625 L 19.5625 0 L 3.078125 0 L 3.078125 -24.546875 L 19.25 -24.546875 L 19.25 -22.390625 L 5.5 -22.390625 L 5.5 -13.546875 L 17.484375 -13.546875 L 17.484375 -11.515625 L 5.5 -11.515625 L 5.5 -2.140625 Z M 19.5625 -2.140625 "/></g></g></g><g fill="#ffffff" fill-opacity="1"><g transform="translate(317.881701, 309.709268)"><g><path d="M 20.5 -22.390625 L 11.75 -22.390625 L 11.75 0 L 9.328125 0 L 9.328125 -22.390625 L 0.59375 -22.390625 L 0.59375 -24.546875 L 20.5 -24.546875 Z M 20.5 -22.390625 "/></g></g></g><g fill="#ffffff" fill-opacity="1"><g transform="translate(351.068219, 309.709268)"><g><path d="M 3.078125 0 L 3.078125 -24.546875 L 5.5 -24.546875 L 5.5 0 Z M 3.078125 0 "/></g></g></g><g fill="#ffffff" fill-opacity="1"><g transform="translate(371.740625, 309.709268)"><g><path d="M 5.5 -20.046875 L 5.5 0 L 3.078125 0 L 3.078125 -24.546875 L 4.9375 -24.546875 L 21.1875 -4.109375 L 21.1875 -24.5 L 23.609375 -24.5 L 23.609375 0 L 21.5 0 Z M 5.5 -20.046875 "/></g></g></g><g fill="#ffffff" fill-opacity="1"><g transform="translate(410.52735, 309.709268)"><g><path d="M 20.8125 -3.59375 C 18.53125 -1.082031 15.898438 0.171875 12.921875 0.171875 C 11.265625 0.171875 9.738281 -0.179688 8.34375 -0.890625 C 6.945312 -1.609375 5.738281 -2.554688 4.71875 -3.734375 C 3.695312 -4.910156 2.894531 -6.238281 2.3125 -7.71875 C 1.738281 -9.207031 1.453125 -10.734375 1.453125 -12.296875 C 1.453125 -13.941406 1.734375 -15.507812 2.296875 -17 C 2.859375 -18.5 3.644531 -19.816406 4.65625 -20.953125 C 5.675781 -22.097656 6.875 -23.007812 8.25 -23.6875 C 9.632812 -24.375 11.144531 -24.71875 12.78125 -24.71875 C 13.976562 -24.71875 15.070312 -24.582031 16.0625 -24.3125 C 17.0625 -24.050781 17.945312 -23.679688 18.71875 -23.203125 C 19.488281 -22.734375 20.15625 -22.171875 20.71875 -21.515625 C 21.28125 -20.859375 21.757812 -20.140625 22.15625 -19.359375 L 20.28125 -18.109375 C 19.476562 -19.628906 18.429688 -20.742188 17.140625 -21.453125 C 15.847656 -22.171875 14.382812 -22.53125 12.75 -22.53125 C 11.394531 -22.53125 10.171875 -22.242188 9.078125 -21.671875 C 7.984375 -21.097656 7.046875 -20.332031 6.265625 -19.375 C 5.492188 -18.414062 4.898438 -17.316406 4.484375 -16.078125 C 4.078125 -14.847656 3.875 -13.578125 3.875 -12.265625 C 3.875 -10.890625 4.109375 -9.578125 4.578125 -8.328125 C 5.046875 -7.085938 5.695312 -6 6.53125 -5.0625 C 7.363281 -4.125 8.335938 -3.378906 9.453125 -2.828125 C 10.566406 -2.273438 11.78125 -2 13.09375 -2 C 14.5 -2 15.84375 -2.328125 17.125 -2.984375 C 18.40625 -3.640625 19.632812 -4.6875 20.8125 -6.125 L 20.8125 -10.203125 L 15.34375 -10.203125 L 15.34375 -12.0625 L 22.84375 -12.0625 L 22.84375 0 L 20.8125 0 Z M 20.8125 -3.59375 "/></g></g></g><g fill="#ffffff" fill-opacity="1"><g transform="translate(447.378206, 309.709268)"><g/></g></g><g fill="#ffffff" fill-opacity="1"><g transform="translate(468.292612, 309.709268)"><g><path d="M 3.078125 0 L 3.078125 -24.546875 L 11.40625 -24.546875 C 13.363281 -24.546875 15.070312 -24.222656 16.53125 -23.578125 C 18 -22.929688 19.222656 -22.050781 20.203125 -20.9375 C 21.179688 -19.832031 21.914062 -18.535156 22.40625 -17.046875 C 22.90625 -15.566406 23.15625 -13.984375 23.15625 -12.296875 C 23.15625 -10.429688 22.878906 -8.742188 22.328125 -7.234375 C 21.773438 -5.734375 20.984375 -4.445312 19.953125 -3.375 C 18.929688 -2.300781 17.695312 -1.46875 16.25 -0.875 C 14.8125 -0.289062 13.195312 0 11.40625 0 Z M 20.734375 -12.296875 C 20.734375 -13.773438 20.523438 -15.128906 20.109375 -16.359375 C 19.703125 -17.597656 19.097656 -18.664062 18.296875 -19.5625 C 17.503906 -20.457031 16.53125 -21.148438 15.375 -21.640625 C 14.226562 -22.140625 12.90625 -22.390625 11.40625 -22.390625 L 5.5 -22.390625 L 5.5 -2.140625 L 11.40625 -2.140625 C 12.925781 -2.140625 14.265625 -2.398438 15.421875 -2.921875 C 16.585938 -3.441406 17.5625 -4.15625 18.34375 -5.0625 C 19.132812 -5.96875 19.726562 -7.035156 20.125 -8.265625 C 20.53125 -9.503906 20.734375 -10.847656 20.734375 -12.296875 Z M 20.734375 -12.296875 "/></g></g></g><g fill="#ffffff" fill-opacity="1"><g transform="translate(505.108901, 309.709268)"><g><path d="M 3.078125 0 L 3.078125 -24.546875 L 5.5 -24.546875 L 5.5 0 Z M 3.078125 0 "/></g></g></g><g fill="#ffffff" fill-opacity="1"><g transform="translate(525.781323, 309.709268)"><g><path d="M 20.8125 -3.59375 C 18.53125 -1.082031 15.898438 0.171875 12.921875 0.171875 C 11.265625 0.171875 9.738281 -0.179688 8.34375 -0.890625 C 6.945312 -1.609375 5.738281 -2.554688 4.71875 -3.734375 C 3.695312 -4.910156 2.894531 -6.238281 2.3125 -7.71875 C 1.738281 -9.207031 1.453125 -10.734375 1.453125 -12.296875 C 1.453125 -13.941406 1.734375 -15.507812 2.296875 -17 C 2.859375 -18.5 3.644531 -19.816406 4.65625 -20.953125 C 5.675781 -22.097656 6.875 -23.007812 8.25 -23.6875 C 9.632812 -24.375 11.144531 -24.71875 12.78125 -24.71875 C 13.976562 -24.71875 15.070312 -24.582031 16.0625 -24.3125 C 17.0625 -24.050781 17.945312 -23.679688 18.71875 -23.203125 C 19.488281 -22.734375 20.15625 -22.171875 20.71875 -21.515625 C 21.28125 -20.859375 21.757812 -20.140625 22.15625 -19.359375 L 20.28125 -18.109375 C 19.476562 -19.628906 18.429688 -20.742188 17.140625 -21.453125 C 15.847656 -22.171875 14.382812 -22.53125 12.75 -22.53125 C 11.394531 -22.53125 10.171875 -22.242188 9.078125 -21.671875 C 7.984375 -21.097656 7.046875 -20.332031 6.265625 -19.375 C 5.492188 -18.414062 4.898438 -17.316406 4.484375 -16.078125 C 4.078125 -14.847656 3.875 -13.578125 3.875 -12.265625 C 3.875 -10.890625 4.109375 -9.578125 4.578125 -8.328125 C 5.046875 -7.085938 5.695312 -6 6.53125 -5.0625 C 7.363281 -4.125 8.335938 -3.378906 9.453125 -2.828125 C 10.566406 -2.273438 11.78125 -2 13.09375 -2 C 14.5 -2 15.84375 -2.328125 17.125 -2.984375 C 18.40625 -3.640625 19.632812 -4.6875 20.8125 -6.125 L 20.8125 -10.203125 L 15.34375 -10.203125 L 15.34375 -12.0625 L 22.84375 -12.0625 L 22.84375 0 L 20.8125 0 Z M 20.8125 -3.59375 "/></g></g></g><g fill="#ffffff" fill-opacity="1"><g transform="translate(562.632195, 309.709268)"><g><path d="M 3.078125 0 L 3.078125 -24.546875 L 5.5 -24.546875 L 5.5 0 Z M 3.078125 0 "/></g></g></g><g fill="#ffffff" fill-opacity="1"><g transform="translate(583.304617, 309.709268)"><g><path d="M 20.5 -22.390625 L 11.75 -22.390625 L 11.75 0 L 9.328125 0 L 9.328125 -22.390625 L 0.59375 -22.390625 L 0.59375 -24.546875 L 20.5 -24.546875 Z M 20.5 -22.390625 "/></g></g></g><g fill="#ffffff" fill-opacity="1"><g transform="translate(616.491152, 309.709268)"><g><path d="M 10.6875 -24.546875 L 12.71875 -24.546875 L 22.921875 0 L 20.359375 0 L 17.171875 -7.671875 L 6.15625 -7.671875 L 3 0 L 0.421875 0 Z M 16.625 -9.578125 L 11.6875 -21.703125 L 6.671875 -9.578125 Z M 16.625 -9.578125 "/></g></g></g><g fill="#ffffff" fill-opacity="1"><g transform="translate(651.959256, 309.709268)"><g><path d="M 3.078125 0 L 3.078125 -24.546875 L 5.5 -24.546875 L 5.5 -2.140625 L 19.671875 -2.140625 L 19.671875 0 Z M 3.078125 0 "/></g></g></g></svg>