<svg xmlns="http://www.w3.org/2000/svg" xmlns:xlink="http://www.w3.org/1999/xlink" width="500" zoomAndPan="magnify" viewBox="0 0 375 374.999991" height="500" preserveAspectRatio="xMidYMid meet" version="1.0"><defs><g/></defs><g fill="#ffffff" fill-opacity="1"><g transform="translate(2.692431, 194.923391)"><g><path d="M 14.84375 -45.972656 L 14.84375 -45.316406 C 18.652344 -45.316406 19.179688 -44.792969 19.179688 -40.984375 L 19.179688 -10.179688 C 19.179688 -3.480469 16.023438 0 10.3125 0 C 5.582031 0 2.496094 -2.234375 1.578125 -5.78125 C 2.101562 -4.859375 3.085938 -4.269531 4.464844 -4.269531 C 6.765625 -4.269531 8.339844 -5.84375 8.339844 -8.144531 C 8.339844 -10.441406 6.765625 -11.953125 4.464844 -11.953125 C 2.167969 -11.953125 0.65625 -10.441406 0.65625 -8.144531 C 0.65625 -2.890625 4.203125 0.65625 10.3125 0.65625 C 15.304688 0.65625 18.980469 -0.394531 21.410156 -2.5625 C 24.300781 -4.992188 25.484375 -8.933594 25.484375 -13.660156 L 25.484375 -40.984375 C 25.484375 -44.792969 25.875 -45.316406 29.6875 -45.316406 L 29.6875 -45.972656 Z M 14.84375 -45.972656 "/></g></g></g><g fill="#ffffff" fill-opacity="1"><g transform="translate(33.82092, 194.923391)"><g><path d="M 23.90625 -50.441406 C 22.332031 -45.644531 19.703125 -41.835938 15.632812 -38.816406 L 16.023438 -38.355469 C 21.015625 -40.195312 24.628906 -42.691406 27.386719 -47.023438 Z M 1.707031 -31.984375 L 1.707031 -31.328125 C 5.582031 -31.328125 5.976562 -30.867188 5.976562 -26.992188 L 5.976562 -10.96875 C 5.976562 -4.53125 9.457031 0.65625 17.734375 0.65625 C 23.644531 0.65625 26.535156 -2.167969 27.714844 -6.4375 L 27.714844 0 L 37.765625 0 L 37.765625 -0.65625 C 34.019531 -0.65625 33.496094 -1.246094 33.496094 -4.992188 L 33.496094 -33.496094 L 32.839844 -33.496094 C 29.882812 -32.378906 27.386719 -31.984375 23.382812 -31.984375 L 23.382812 -31.328125 C 27.257812 -31.328125 27.714844 -30.867188 27.714844 -26.992188 L 27.714844 -12.019531 C 27.714844 -6.109375 26.007812 -0.984375 19.570312 -0.984375 C 13.792969 -0.984375 11.757812 -4.992188 11.757812 -10.246094 L 11.757812 -33.496094 L 11.097656 -33.496094 C 8.144531 -32.378906 5.714844 -31.984375 1.707031 -31.984375 Z M 1.707031 -31.984375 "/></g></g></g><g fill="#ffffff" fill-opacity="1"><g transform="translate(73.092725, 194.923391)"><g><path d="M 1.640625 -48.40625 L 1.640625 -47.746094 C 5.515625 -47.746094 5.976562 -47.351562 5.976562 -43.476562 L 5.976562 -4.992188 C 5.976562 -1.246094 5.386719 -0.65625 1.640625 -0.65625 L 1.640625 0 L 16.089844 0 L 16.089844 -0.65625 C 12.347656 -0.65625 11.757812 -1.246094 11.757812 -4.992188 L 11.757812 -49.914062 L 11.097656 -49.914062 C 8.144531 -48.796875 5.648438 -48.40625 1.640625 -48.40625 Z M 1.640625 -48.40625 "/></g></g></g><g fill="#ffffff" fill-opacity="1"><g transform="translate(90.692799, 194.923391)"><g><path d="M 8.867188 -47.617188 C 6.371094 -47.617188 4.925781 -46.171875 4.925781 -43.675781 C 4.925781 -41.179688 6.371094 -39.734375 8.867188 -39.734375 C 11.363281 -39.734375 12.808594 -41.179688 12.808594 -43.675781 C 12.808594 -46.171875 11.363281 -47.617188 8.867188 -47.617188 Z M 1.640625 -31.984375 L 1.640625 -31.328125 C 5.515625 -31.328125 5.976562 -30.867188 5.976562 -26.992188 L 5.976562 -4.992188 C 5.976562 -1.246094 5.386719 -0.65625 1.640625 -0.65625 L 1.640625 0 L 16.023438 0 L 16.023438 -0.65625 C 12.28125 -0.65625 11.757812 -1.246094 11.757812 -4.992188 L 11.757812 -33.496094 L 11.097656 -33.496094 C 8.144531 -32.378906 5.648438 -31.984375 1.640625 -31.984375 Z M 1.640625 -31.984375 "/></g></g></g><g fill="#ffffff" fill-opacity="1"><g transform="translate(108.292872, 194.923391)"><g><path d="M 18.785156 -33.496094 C 8.800781 -33.496094 3.414062 -28.042969 3.414062 -16.417969 C 3.414062 -4.792969 8.800781 0.65625 18.785156 0.65625 C 28.765625 0.65625 34.152344 -4.792969 34.152344 -16.417969 C 34.152344 -28.042969 28.765625 -33.496094 18.785156 -33.496094 Z M 18.785156 -32.839844 C 25.023438 -32.839844 28.371094 -28.636719 28.371094 -16.417969 C 28.371094 -4.203125 25.023438 0 18.785156 0 C 12.542969 0 9.128906 -4.203125 9.128906 -16.417969 C 9.128906 -28.636719 12.542969 -32.839844 18.785156 -32.839844 Z M 18.785156 -32.839844 "/></g></g></g><g fill="#ffffff" fill-opacity="1"><g transform="translate(145.725865, 194.923391)"><g/></g></g><g fill="#ffffff" fill-opacity="1"><g transform="translate(163.325938, 194.923391)"><g><path d="M 0.65625 -45.972656 L 0.65625 -45.316406 C 4.53125 -45.316406 5.515625 -44.464844 6.960938 -39.539062 L 19.113281 0 L 25.351562 0 L 36.78125 -37.566406 C 38.75 -43.542969 40.128906 -45.316406 43.871094 -45.316406 L 43.871094 -45.972656 L 30.804688 -45.972656 L 30.804688 -45.316406 C 35.070312 -45.316406 36.84375 -44.464844 36.84375 -41.574219 C 36.84375 -40.261719 36.515625 -38.550781 35.859375 -36.320312 L 25.15625 -1.578125 C 25.15625 -1.578125 16.355469 -31.195312 14.1875 -37.171875 C 13.59375 -39.210938 13.265625 -40.785156 13.265625 -41.902344 C 13.265625 -44.59375 14.972656 -45.316406 19.046875 -45.316406 L 19.046875 -45.972656 Z M 0.65625 -45.972656 "/></g></g></g><g fill="#ffffff" fill-opacity="1"><g transform="translate(207.588809, 194.923391)"><g><path d="M 15.695312 -33.496094 C 8.273438 -33.496094 5.320312 -30.082031 5.320312 -26.140625 C 5.320312 -24.300781 6.371094 -22.988281 8.605469 -22.988281 C 10.835938 -22.988281 11.820312 -24.367188 11.820312 -26.140625 C 11.820312 -28.042969 10.707031 -29.421875 8.605469 -29.421875 C 7.75 -29.421875 6.894531 -29.03125 6.371094 -28.371094 C 7.355469 -30.933594 10.113281 -32.839844 15.695312 -32.839844 C 21.738281 -32.839844 25.089844 -29.75 25.089844 -24.105469 L 25.089844 -18.847656 C 10.113281 -18.71875 3.347656 -15.5 3.347656 -7.617188 C 3.347656 -2.234375 6.832031 0.65625 13.265625 0.65625 C 18.785156 0.65625 23.382812 -2.101562 25.089844 -8.011719 L 25.089844 0 L 35.203125 0 L 35.203125 -0.65625 C 31.460938 -0.65625 30.867188 -1.246094 30.867188 -4.992188 L 30.867188 -22.660156 C 30.867188 -26.796875 29.292969 -29.75 26.140625 -31.523438 C 23.644531 -32.96875 20.164062 -33.496094 15.695312 -33.496094 Z M 25.089844 -13.53125 C 25.089844 -4.597656 20.359375 -0.984375 15.238281 -0.984375 C 10.640625 -0.984375 8.667969 -3.480469 8.667969 -7.816406 C 8.667969 -15.171875 13.265625 -18.128906 25.089844 -18.257812 Z M 25.089844 -13.53125 "/></g></g></g><g fill="#ffffff" fill-opacity="1"><g transform="translate(244.23375, 194.923391)"><g><path d="M 1.640625 -31.984375 L 1.640625 -31.328125 C 5.515625 -31.328125 5.976562 -30.867188 5.976562 -26.992188 L 5.976562 -4.992188 C 5.976562 -1.246094 5.386719 -0.65625 1.640625 -0.65625 L 1.640625 0 L 16.089844 0 L 16.089844 -0.65625 C 12.347656 -0.65625 11.757812 -1.246094 11.757812 -4.992188 L 11.757812 -20.820312 C 11.757812 -26.730469 13.464844 -31.855469 19.898438 -31.855469 C 25.679688 -31.855469 27.714844 -27.847656 27.714844 -22.59375 L 27.714844 0 L 37.765625 0 L 37.765625 -0.65625 C 34.019531 -0.65625 33.496094 -1.246094 33.496094 -4.992188 L 33.496094 -21.871094 C 33.496094 -28.308594 30.015625 -33.496094 21.738281 -33.496094 C 15.828125 -33.496094 12.9375 -30.671875 11.757812 -26.402344 L 11.757812 -33.496094 L 11.097656 -33.496094 C 8.144531 -32.378906 5.648438 -31.984375 1.640625 -31.984375 Z M 1.640625 -31.984375 "/></g></g></g><g fill="#ffffff" fill-opacity="1"><g transform="translate(283.505568, 194.923391)"><g><path d="M 3.808594 -32.839844 L 3.808594 -23.972656 L 4.402344 -23.972656 C 4.402344 -29.949219 6.699219 -32.183594 12.675781 -32.183594 L 22.855469 -32.183594 L 2.101562 -0.65625 L 2.101562 0 L 29.6875 0 L 29.6875 -8.867188 L 28.964844 -8.867188 C 28.964844 -2.691406 26.597656 -0.65625 20.292969 -0.65625 L 8.933594 -0.65625 L 29.6875 -32.183594 L 29.6875 -32.839844 Z M 3.808594 -32.839844 "/></g></g></g><g fill="#ffffff" fill-opacity="1"><g transform="translate(315.422131, 194.923391)"><g><path d="M 8.867188 -47.617188 C 6.371094 -47.617188 4.925781 -46.171875 4.925781 -43.675781 C 4.925781 -41.179688 6.371094 -39.734375 8.867188 -39.734375 C 11.363281 -39.734375 12.808594 -41.179688 12.808594 -43.675781 C 12.808594 -46.171875 11.363281 -47.617188 8.867188 -47.617188 Z M 1.640625 -31.984375 L 1.640625 -31.328125 C 5.515625 -31.328125 5.976562 -30.867188 5.976562 -26.992188 L 5.976562 -4.992188 C 5.976562 -1.246094 5.386719 -0.65625 1.640625 -0.65625 L 1.640625 0 L 16.023438 0 L 16.023438 -0.65625 C 12.28125 -0.65625 11.757812 -1.246094 11.757812 -4.992188 L 11.757812 -33.496094 L 11.097656 -33.496094 C 8.144531 -32.378906 5.648438 -31.984375 1.640625 -31.984375 Z M 1.640625 -31.984375 "/></g></g></g><g fill="#ffffff" fill-opacity="1"><g transform="translate(333.022204, 194.923391)"><g><path d="M 1.640625 -31.984375 L 1.640625 -31.328125 C 5.515625 -31.328125 5.976562 -30.867188 5.976562 -26.992188 L 5.976562 -4.992188 C 5.976562 -1.246094 5.386719 -0.65625 1.640625 -0.65625 L 1.640625 0 L 16.089844 0 L 16.089844 -0.65625 C 12.347656 -0.65625 11.757812 -1.246094 11.757812 -4.992188 L 11.757812 -20.820312 C 11.757812 -26.730469 13.464844 -31.855469 19.898438 -31.855469 C 25.679688 -31.855469 27.714844 -27.847656 27.714844 -22.59375 L 27.714844 0 L 37.765625 0 L 37.765625 -0.65625 C 34.019531 -0.65625 33.496094 -1.246094 33.496094 -4.992188 L 33.496094 -21.871094 C 33.496094 -28.308594 30.015625 -33.496094 21.738281 -33.496094 C 15.828125 -33.496094 12.9375 -30.671875 11.757812 -26.402344 L 11.757812 -33.496094 L 11.097656 -33.496094 C 8.144531 -32.378906 5.648438 -31.984375 1.640625 -31.984375 Z M 1.640625 -31.984375 "/></g></g></g><g fill="#ffffff" fill-opacity="1"><g transform="translate(22.553276, 226.976997)"><g><path d="M 2.121094 0 L 9.21875 0 L 9.21875 -0.617188 L 2.464844 -0.617188 L 2.464844 -5.988281 L 7.148438 -5.988281 L 7.148438 -6.605469 L 2.464844 -6.605469 L 2.464844 -13.382812 L 9.21875 -13.382812 L 9.21875 -14 L 2.121094 -14 C 1.945312 -14 1.847656 -13.898438 1.847656 -13.703125 L 1.847656 -0.296875 C 1.847656 -0.0976562 1.945312 0 2.121094 0 Z M 2.121094 0 "/></g></g></g><g fill="#ffffff" fill-opacity="1"><g transform="translate(32.953254, 226.976997)"><g><path d="M 1.726562 0 L 2.339844 0 L 2.339844 -7.320312 C 2.339844 -8.871094 3.300781 -9.511719 4.582031 -9.511719 C 5.9375 -9.511719 6.828125 -8.871094 6.828125 -7.320312 L 6.828125 0 L 7.417969 0 L 7.417969 -7.320312 C 7.417969 -8.871094 8.304688 -9.511719 9.660156 -9.511719 C 10.941406 -9.511719 11.902344 -8.871094 11.902344 -7.320312 L 11.902344 0 L 12.519531 0 L 12.519531 -7.441406 C 12.519531 -9.09375 11.164062 -10.128906 9.585938 -10.128906 C 8.722656 -10.128906 7.617188 -9.734375 7.121094 -8.722656 C 6.628906 -9.734375 5.519531 -10.128906 4.65625 -10.128906 C 3.082031 -10.128906 1.726562 -9.09375 1.726562 -7.441406 Z M 1.726562 0 "/></g></g></g><g fill="#ffffff" fill-opacity="1"><g transform="translate(47.197771, 226.976997)"><g><path d="M 1.847656 4.757812 L 2.464844 4.757812 L 2.464844 -1.160156 C 3.449219 0.0234375 4.683594 0.125 5.347656 0.125 C 7.222656 0.125 8.824219 -0.984375 8.824219 -3.03125 L 8.824219 -6.972656 C 8.824219 -9.019531 7.222656 -10.128906 5.347656 -10.128906 C 3.425781 -10.128906 1.847656 -9.019531 1.847656 -6.972656 Z M 5.347656 -0.492188 C 3.96875 -0.492188 2.464844 -1.257812 2.464844 -2.957031 L 2.464844 -6.972656 C 2.464844 -8.675781 3.894531 -9.511719 5.347656 -9.511719 C 6.703125 -9.511719 8.207031 -8.675781 8.207031 -6.972656 L 8.207031 -3.03125 C 8.207031 -1.304688 6.703125 -0.492188 5.347656 -0.492188 Z M 5.347656 -0.492188 "/></g></g></g><g fill="#ffffff" fill-opacity="1"><g transform="translate(57.622388, 226.976997)"><g><path d="M 1.726562 0 L 2.339844 0 L 2.339844 -7.320312 C 2.339844 -8.871094 3.328125 -9.511719 4.632812 -9.511719 C 5.71875 -9.511719 6.480469 -9.117188 6.851562 -7.863281 L 7.515625 -7.863281 C 7.097656 -9.539062 5.988281 -10.128906 4.632812 -10.128906 C 3.03125 -10.128906 1.726562 -9.117188 1.726562 -7.441406 Z M 1.726562 0 "/></g></g></g><g fill="#ffffff" fill-opacity="1"><g transform="translate(65.755074, 226.976997)"><g><path d="M 5.078125 0.125 C 6.851562 0.125 8.15625 -0.839844 8.527344 -2.515625 L 7.910156 -2.515625 C 7.417969 -0.960938 6.261719 -0.492188 5.078125 -0.492188 C 3.671875 -0.492188 2.21875 -1.304688 2.21875 -3.03125 L 2.21875 -4.042969 L 8.082031 -5.617188 C 8.402344 -5.691406 8.550781 -5.792969 8.550781 -5.9375 L 8.550781 -6.972656 C 8.550781 -9.019531 7 -10.128906 5.078125 -10.128906 C 3.15625 -10.128906 1.601562 -9.019531 1.601562 -6.972656 L 1.601562 -3.03125 C 1.601562 -0.984375 3.15625 0.125 5.078125 0.125 Z M 2.21875 -4.683594 L 2.21875 -6.972656 C 2.21875 -8.675781 3.671875 -9.511719 5.078125 -9.511719 C 6.507812 -9.511719 7.9375 -8.675781 7.9375 -6.972656 L 7.9375 -6.210938 Z M 2.21875 -4.683594 "/></g></g></g><g fill="#ffffff" fill-opacity="1"><g transform="translate(75.662155, 226.976997)"><g><path d="M 5.078125 0.125 C 6.851562 0.125 8.15625 -0.839844 8.527344 -2.515625 L 7.910156 -2.515625 C 7.417969 -0.960938 6.261719 -0.492188 5.078125 -0.492188 C 3.671875 -0.492188 2.21875 -1.304688 2.21875 -3.03125 L 2.21875 -4.042969 L 8.082031 -5.617188 C 8.402344 -5.691406 8.550781 -5.792969 8.550781 -5.9375 L 8.550781 -6.972656 C 8.550781 -9.019531 7 -10.128906 5.078125 -10.128906 C 3.15625 -10.128906 1.601562 -9.019531 1.601562 -6.972656 L 1.601562 -3.03125 C 1.601562 -0.984375 3.15625 0.125 5.078125 0.125 Z M 2.21875 -4.683594 L 2.21875 -6.972656 C 2.21875 -8.675781 3.671875 -9.511719 5.078125 -9.511719 C 6.507812 -9.511719 7.9375 -8.675781 7.9375 -6.972656 L 7.9375 -6.210938 Z M 2.21875 -4.683594 "/></g></g></g><g fill="#ffffff" fill-opacity="1"><g transform="translate(85.569236, 226.976997)"><g><path d="M 1.726562 0 L 2.339844 0 L 2.339844 -6.972656 C 2.339844 -8.675781 3.796875 -9.511719 5.199219 -9.511719 C 6.605469 -9.511719 8.058594 -8.675781 8.058594 -6.972656 L 8.058594 0 L 8.675781 0 L 8.675781 -6.972656 C 8.675781 -9.019531 7.097656 -10.128906 5.199219 -10.128906 C 3.328125 -10.128906 1.726562 -9.019531 1.726562 -6.972656 Z M 1.726562 0 "/></g></g></g><g fill="#ffffff" fill-opacity="1"><g transform="translate(95.969214, 226.976997)"><g><path d="M 5.078125 0.125 C 7 0.125 8.578125 -0.984375 8.578125 -3.03125 L 8.578125 -14 L 7.960938 -14 L 7.960938 -8.847656 C 6.972656 -10.03125 5.742188 -10.128906 5.078125 -10.128906 C 3.203125 -10.128906 1.601562 -9.019531 1.601562 -6.972656 L 1.601562 -3.03125 C 1.601562 -0.984375 3.203125 0.125 5.078125 0.125 Z M 5.078125 -0.492188 C 3.671875 -0.492188 2.21875 -1.304688 2.21875 -3.03125 L 2.21875 -6.972656 C 2.21875 -8.675781 3.671875 -9.511719 5.078125 -9.511719 C 6.457031 -9.511719 7.960938 -8.75 7.960938 -7.046875 L 7.960938 -3.03125 C 7.960938 -1.304688 6.53125 -0.492188 5.078125 -0.492188 Z M 5.078125 -0.492188 "/></g></g></g><g fill="#ffffff" fill-opacity="1"><g transform="translate(106.393831, 226.976997)"><g><path d="M 5.078125 0.125 C 6.851562 0.125 8.15625 -0.839844 8.527344 -2.515625 L 7.910156 -2.515625 C 7.417969 -0.960938 6.261719 -0.492188 5.078125 -0.492188 C 3.671875 -0.492188 2.21875 -1.304688 2.21875 -3.03125 L 2.21875 -4.042969 L 8.082031 -5.617188 C 8.402344 -5.691406 8.550781 -5.792969 8.550781 -5.9375 L 8.550781 -6.972656 C 8.550781 -9.019531 7 -10.128906 5.078125 -10.128906 C 3.15625 -10.128906 1.601562 -9.019531 1.601562 -6.972656 L 1.601562 -3.03125 C 1.601562 -0.984375 3.15625 0.125 5.078125 0.125 Z M 2.21875 -4.683594 L 2.21875 -6.972656 C 2.21875 -8.675781 3.671875 -9.511719 5.078125 -9.511719 C 6.507812 -9.511719 7.9375 -8.675781 7.9375 -6.972656 L 7.9375 -6.210938 Z M 2.21875 -4.683594 "/></g></g></g><g fill="#ffffff" fill-opacity="1"><g transform="translate(116.300912, 226.976997)"><g><path d="M 5.078125 0.125 C 7 0.125 8.578125 -0.984375 8.578125 -3.03125 L 8.578125 -14 L 7.960938 -14 L 7.960938 -8.847656 C 6.972656 -10.03125 5.742188 -10.128906 5.078125 -10.128906 C 3.203125 -10.128906 1.601562 -9.019531 1.601562 -6.972656 L 1.601562 -3.03125 C 1.601562 -0.984375 3.203125 0.125 5.078125 0.125 Z M 5.078125 -0.492188 C 3.671875 -0.492188 2.21875 -1.304688 2.21875 -3.03125 L 2.21875 -6.972656 C 2.21875 -8.675781 3.671875 -9.511719 5.078125 -9.511719 C 6.457031 -9.511719 7.960938 -8.75 7.960938 -7.046875 L 7.960938 -3.03125 C 7.960938 -1.304688 6.53125 -0.492188 5.078125 -0.492188 Z M 5.078125 -0.492188 "/></g></g></g><g fill="#ffffff" fill-opacity="1"><g transform="translate(126.725529, 226.976997)"><g><path d="M 5.078125 0.125 C 6.972656 0.125 8.550781 -0.984375 8.550781 -3.03125 L 8.550781 -6.972656 C 8.550781 -9.019531 6.972656 -10.128906 5.078125 -10.128906 C 3.203125 -10.128906 1.601562 -9.019531 1.601562 -6.972656 L 1.601562 -3.03125 C 1.601562 -0.984375 3.203125 0.125 5.078125 0.125 Z M 5.078125 -0.492188 C 3.671875 -0.492188 2.21875 -1.304688 2.21875 -3.03125 L 2.21875 -6.972656 C 2.21875 -8.675781 3.671875 -9.511719 5.078125 -9.511719 C 6.480469 -9.511719 7.9375 -8.675781 7.9375 -6.972656 L 7.9375 -3.03125 C 7.9375 -1.304688 6.480469 -0.492188 5.078125 -0.492188 Z M 5.078125 -0.492188 "/></g></g></g><g fill="#ffffff" fill-opacity="1"><g transform="translate(136.879059, 226.976997)"><g><path d="M 1.726562 0 L 2.339844 0 L 2.339844 -7.320312 C 2.339844 -8.871094 3.328125 -9.511719 4.632812 -9.511719 C 5.71875 -9.511719 6.480469 -9.117188 6.851562 -7.863281 L 7.515625 -7.863281 C 7.097656 -9.539062 5.988281 -10.128906 4.632812 -10.128906 C 3.03125 -10.128906 1.726562 -9.117188 1.726562 -7.441406 Z M 1.726562 0 "/></g></g></g><g fill="#ffffff" fill-opacity="1"><g transform="translate(145.011745, 226.976997)"><g><path d="M 2.144531 -11.78125 C 2.464844 -11.78125 2.734375 -12.027344 2.734375 -12.347656 C 2.734375 -12.667969 2.464844 -12.9375 2.144531 -12.9375 C 1.824219 -12.9375 1.578125 -12.667969 1.578125 -12.347656 C 1.578125 -12.027344 1.824219 -11.78125 2.144531 -11.78125 Z M 1.847656 0 L 2.464844 0 L 2.464844 -9.980469 L 1.847656 -9.980469 Z M 1.847656 0 "/></g></g></g><g fill="#ffffff" fill-opacity="1"><g transform="translate(149.324531, 226.976997)"><g><path d="M 4.855469 0.125 C 6.949219 0.125 8.328125 -0.839844 8.328125 -2.539062 C 8.328125 -5.964844 1.972656 -4.582031 1.972656 -7.46875 C 1.972656 -9.339844 3.871094 -9.511719 4.757812 -9.511719 C 6.011719 -9.511719 7.171875 -8.945312 7.46875 -7.589844 L 8.109375 -7.589844 C 7.8125 -9.242188 6.433594 -10.128906 4.757812 -10.128906 C 2.808594 -10.128906 1.355469 -9.21875 1.355469 -7.417969 C 1.355469 -4.089844 7.714844 -5.371094 7.714844 -2.539062 C 7.714844 -0.765625 5.9375 -0.492188 4.855469 -0.492188 C 3.597656 -0.492188 2.390625 -0.984375 2.019531 -2.367188 L 1.378906 -2.367188 C 1.675781 -0.765625 3.179688 0.125 4.855469 0.125 Z M 4.855469 0.125 "/></g></g></g><g fill="#ffffff" fill-opacity="1"><g transform="translate(158.886595, 226.976997)"><g><path d="M 1.726562 0 L 2.339844 0 L 2.339844 -7.320312 C 2.339844 -8.871094 3.300781 -9.511719 4.582031 -9.511719 C 5.9375 -9.511719 6.828125 -8.871094 6.828125 -7.320312 L 6.828125 0 L 7.417969 0 L 7.417969 -7.320312 C 7.417969 -8.871094 8.304688 -9.511719 9.660156 -9.511719 C 10.941406 -9.511719 11.902344 -8.871094 11.902344 -7.320312 L 11.902344 0 L 12.519531 0 L 12.519531 -7.441406 C 12.519531 -9.09375 11.164062 -10.128906 9.585938 -10.128906 C 8.722656 -10.128906 7.617188 -9.734375 7.121094 -8.722656 C 6.628906 -9.734375 5.519531 -10.128906 4.65625 -10.128906 C 3.082031 -10.128906 1.726562 -9.09375 1.726562 -7.441406 Z M 1.726562 0 "/></g></g></g><g fill="#ffffff" fill-opacity="1"><g transform="translate(173.131113, 226.976997)"><g><path d="M 5.078125 0.125 C 6.972656 0.125 8.550781 -0.984375 8.550781 -3.03125 L 8.550781 -6.972656 C 8.550781 -9.019531 6.972656 -10.128906 5.078125 -10.128906 C 3.203125 -10.128906 1.601562 -9.019531 1.601562 -6.972656 L 1.601562 -3.03125 C 1.601562 -0.984375 3.203125 0.125 5.078125 0.125 Z M 5.078125 -0.492188 C 3.671875 -0.492188 2.21875 -1.304688 2.21875 -3.03125 L 2.21875 -6.972656 C 2.21875 -8.675781 3.671875 -9.511719 5.078125 -9.511719 C 6.480469 -9.511719 7.9375 -8.675781 7.9375 -6.972656 L 7.9375 -3.03125 C 7.9375 -1.304688 6.480469 -0.492188 5.078125 -0.492188 Z M 5.078125 -0.492188 "/></g></g></g><g fill="#ffffff" fill-opacity="1"><g transform="translate(183.284642, 226.976997)"><g/></g></g><g fill="#ffffff" fill-opacity="1"><g transform="translate(188.188893, 226.976997)"><g><path d="M 6.605469 0.125 C 9.464844 0.125 11.828125 -1.945312 11.828125 -5.988281 L 11.828125 -8.304688 L 11.214844 -8.304688 L 11.214844 -5.988281 C 11.214844 -4.289062 10.84375 -3.03125 9.882812 -1.945312 L 3.375 -13.382812 L 10.152344 -13.382812 L 10.152344 -14 L 3.203125 -14 C 2.980469 -14 2.882812 -13.898438 2.882812 -13.703125 L 2.882812 -12.9375 L 5.398438 -8.578125 C 3.128906 -7.910156 1.847656 -6.261719 1.847656 -4.191406 C 1.847656 -1.550781 3.425781 0.125 6.605469 0.125 Z M 6.628906 -0.492188 C 4.609375 -0.492188 2.464844 -1.304688 2.464844 -4.191406 C 2.464844 -6.359375 3.871094 -7.6875 5.71875 -8.007812 L 9.4375 -1.480469 C 8.476562 -0.617188 7.589844 -0.492188 6.628906 -0.492188 Z M 6.628906 -0.492188 "/></g></g></g><g fill="#ffffff" fill-opacity="1"><g transform="translate(201.866584, 226.976997)"><g/></g></g><g fill="#ffffff" fill-opacity="1"><g transform="translate(206.770835, 226.976997)"><g><path d="M 1.726562 0 L 2.339844 0 L 2.339844 -9.734375 C 2.339844 -12.324219 3.03125 -13.503906 5.199219 -13.503906 C 7.34375 -13.503906 7.960938 -11.804688 7.960938 -9.242188 L 7.9375 0 L 8.550781 0 L 8.550781 -9.242188 C 8.550781 -11.804688 9.167969 -13.503906 11.3125 -13.503906 C 13.480469 -13.503906 14.171875 -12.324219 14.171875 -9.734375 L 14.171875 0 L 14.785156 0 L 14.785156 -9.757812 C 14.785156 -12.324219 13.972656 -14.121094 11.3125 -14.121094 C 9.957031 -14.121094 9.117188 -13.605469 8.257812 -12.125 C 7.394531 -13.605469 6.554688 -14.121094 5.199219 -14.121094 C 2.539062 -14.121094 1.726562 -12.324219 1.726562 -9.757812 Z M 1.726562 0 "/></g></g></g><g fill="#ffffff" fill-opacity="1"><g transform="translate(223.282633, 226.976997)"><g><path d="M 4.832031 0.125 C 6.753906 0.125 8.304688 -0.886719 8.304688 -2.882812 L 8.304688 -6.972656 C 8.304688 -9.019531 6.679688 -10.128906 4.757812 -10.128906 C 2.980469 -10.128906 1.75 -9.167969 1.378906 -7.492188 L 1.996094 -7.492188 C 2.488281 -9.042969 3.574219 -9.511719 4.757812 -9.511719 C 6.160156 -9.511719 7.6875 -8.675781 7.6875 -6.972656 L 7.6875 -5.152344 L 3.917969 -5.152344 C 2.539062 -5.152344 1.355469 -4.4375 1.355469 -2.539062 C 1.355469 -0.664062 2.980469 0.125 4.832031 0.125 Z M 4.832031 -0.492188 C 3.5 -0.492188 1.972656 -0.886719 1.972656 -2.539062 C 1.972656 -4.289062 2.980469 -4.511719 3.894531 -4.511719 L 7.6875 -4.511719 L 7.6875 -2.882812 C 7.6875 -1.109375 6.234375 -0.492188 4.832031 -0.492188 Z M 4.832031 -0.492188 "/></g></g></g><g fill="#ffffff" fill-opacity="1"><g transform="translate(233.189714, 226.976997)"><g><path d="M 1.726562 0 L 2.339844 0 L 2.339844 -7.320312 C 2.339844 -8.871094 3.328125 -9.511719 4.632812 -9.511719 C 5.71875 -9.511719 6.480469 -9.117188 6.851562 -7.863281 L 7.515625 -7.863281 C 7.097656 -9.539062 5.988281 -10.128906 4.632812 -10.128906 C 3.03125 -10.128906 1.726562 -9.117188 1.726562 -7.441406 Z M 1.726562 0 "/></g></g></g><g fill="#ffffff" fill-opacity="1"><g transform="translate(241.322411, 226.976997)"><g><path d="M 1.847656 0 L 2.464844 0 L 2.464844 -4.707031 L 2.808594 -4.707031 C 3.96875 -4.707031 5.347656 -5.101562 6.359375 -5.667969 L 8.625 0 L 9.265625 0 L 6.875 -6.039062 C 7.835938 -6.679688 9.117188 -8.699219 9.242188 -9.980469 L 8.625 -9.980469 C 7.714844 -5.964844 4.140625 -5.324219 2.859375 -5.324219 L 2.464844 -5.324219 L 2.464844 -14 L 1.847656 -14 Z M 1.847656 0 "/></g></g></g><g fill="#ffffff" fill-opacity="1"><g transform="translate(251.574532, 226.976997)"><g><path d="M 5.078125 0.125 C 6.851562 0.125 8.15625 -0.839844 8.527344 -2.515625 L 7.910156 -2.515625 C 7.417969 -0.960938 6.261719 -0.492188 5.078125 -0.492188 C 3.671875 -0.492188 2.21875 -1.304688 2.21875 -3.03125 L 2.21875 -4.042969 L 8.082031 -5.617188 C 8.402344 -5.691406 8.550781 -5.792969 8.550781 -5.9375 L 8.550781 -6.972656 C 8.550781 -9.019531 7 -10.128906 5.078125 -10.128906 C 3.15625 -10.128906 1.601562 -9.019531 1.601562 -6.972656 L 1.601562 -3.03125 C 1.601562 -0.984375 3.15625 0.125 5.078125 0.125 Z M 2.21875 -4.683594 L 2.21875 -6.972656 C 2.21875 -8.675781 3.671875 -9.511719 5.078125 -9.511719 C 6.507812 -9.511719 7.9375 -8.675781 7.9375 -6.972656 L 7.9375 -6.210938 Z M 2.21875 -4.683594 "/></g></g></g><g fill="#ffffff" fill-opacity="1"><g transform="translate(261.481613, 226.976997)"><g><path d="M 5.152344 0.125 C 6.507812 0.125 7.417969 -0.542969 7.640625 -1.503906 L 7 -1.503906 C 6.800781 -0.886719 6.210938 -0.492188 5.152344 -0.492188 C 3.871094 -0.492188 3.105469 -1.132812 3.105469 -2.6875 L 3.105469 -9.363281 L 6.332031 -9.363281 L 6.332031 -9.980469 L 3.105469 -9.980469 L 3.105469 -14 L 2.488281 -14 L 2.488281 -9.980469 L 0.738281 -9.980469 L 0.738281 -9.363281 L 2.488281 -9.363281 L 2.488281 -2.5625 C 2.488281 -0.886719 3.574219 0.125 5.152344 0.125 Z M 5.152344 0.125 "/></g></g></g><g fill="#ffffff" fill-opacity="1"><g transform="translate(269.61431, 226.976997)"><g><path d="M 2.144531 -11.78125 C 2.464844 -11.78125 2.734375 -12.027344 2.734375 -12.347656 C 2.734375 -12.667969 2.464844 -12.9375 2.144531 -12.9375 C 1.824219 -12.9375 1.578125 -12.667969 1.578125 -12.347656 C 1.578125 -12.027344 1.824219 -11.78125 2.144531 -11.78125 Z M 1.847656 0 L 2.464844 0 L 2.464844 -9.980469 L 1.847656 -9.980469 Z M 1.847656 0 "/></g></g></g><g fill="#ffffff" fill-opacity="1"><g transform="translate(273.927084, 226.976997)"><g><path d="M 1.726562 0 L 2.339844 0 L 2.339844 -6.972656 C 2.339844 -8.675781 3.796875 -9.511719 5.199219 -9.511719 C 6.605469 -9.511719 8.058594 -8.675781 8.058594 -6.972656 L 8.058594 0 L 8.675781 0 L 8.675781 -6.972656 C 8.675781 -9.019531 7.097656 -10.128906 5.199219 -10.128906 C 3.328125 -10.128906 1.726562 -9.019531 1.726562 -6.972656 Z M 1.726562 0 "/></g></g></g><g fill="#ffffff" fill-opacity="1"><g transform="translate(284.327062, 226.976997)"><g><path d="M 5.101562 4.757812 C 7.023438 4.757812 8.578125 3.648438 8.578125 1.601562 L 8.578125 -6.972656 C 8.578125 -9.019531 7 -10.128906 5.078125 -10.128906 C 3.203125 -10.128906 1.601562 -9.019531 1.601562 -6.972656 L 1.601562 -3.03125 C 1.601562 -0.984375 3.203125 0.125 5.078125 0.125 C 5.742188 0.125 6.972656 0.0234375 7.960938 -1.160156 L 7.960938 1.601562 C 7.960938 3.328125 6.53125 4.140625 5.152344 4.140625 C 3.96875 4.140625 2.761719 3.671875 2.265625 2.121094 L 1.652344 2.121094 C 2.019531 3.796875 3.328125 4.757812 5.101562 4.757812 Z M 5.078125 -0.492188 C 3.671875 -0.492188 2.21875 -1.304688 2.21875 -3.03125 L 2.21875 -6.972656 C 2.21875 -8.675781 3.671875 -9.511719 5.078125 -9.511719 C 6.53125 -9.511719 7.960938 -8.675781 7.960938 -6.972656 L 7.960938 -2.957031 C 7.960938 -1.257812 6.457031 -0.492188 5.078125 -0.492188 Z M 5.078125 -0.492188 "/></g></g></g><g fill="#ffffff" fill-opacity="1"><g transform="translate(294.505254, 226.976997)"><g/></g></g><g fill="#ffffff" fill-opacity="1"><g transform="translate(299.409505, 226.976997)"><g><path d="M 2.167969 0 L 5.867188 0 C 8.625 0 10.328125 -1.871094 10.328125 -4.363281 L 10.328125 -9.636719 C 10.328125 -12.125 8.625 -14 5.867188 -14 L 2.167969 -14 C 1.945312 -14 1.847656 -13.898438 1.847656 -13.703125 L 1.847656 -0.296875 C 1.847656 -0.0976562 1.945312 0 2.167969 0 Z M 2.464844 -0.617188 L 2.464844 -13.382812 L 5.867188 -13.382812 C 7.886719 -13.382812 9.710938 -12.199219 9.710938 -9.636719 L 9.710938 -4.363281 C 9.710938 -1.800781 7.886719 -0.617188 5.867188 -0.617188 Z M 2.464844 -0.617188 "/></g></g></g><g fill="#ffffff" fill-opacity="1"><g transform="translate(311.337452, 226.976997)"><g><path d="M 2.144531 -11.78125 C 2.464844 -11.78125 2.734375 -12.027344 2.734375 -12.347656 C 2.734375 -12.667969 2.464844 -12.9375 2.144531 -12.9375 C 1.824219 -12.9375 1.578125 -12.667969 1.578125 -12.347656 C 1.578125 -12.027344 1.824219 -11.78125 2.144531 -11.78125 Z M 1.847656 0 L 2.464844 0 L 2.464844 -9.980469 L 1.847656 -9.980469 Z M 1.847656 0 "/></g></g></g><g fill="#ffffff" fill-opacity="1"><g transform="translate(315.650226, 226.976997)"><g><path d="M 5.101562 4.757812 C 7.023438 4.757812 8.578125 3.648438 8.578125 1.601562 L 8.578125 -6.972656 C 8.578125 -9.019531 7 -10.128906 5.078125 -10.128906 C 3.203125 -10.128906 1.601562 -9.019531 1.601562 -6.972656 L 1.601562 -3.03125 C 1.601562 -0.984375 3.203125 0.125 5.078125 0.125 C 5.742188 0.125 6.972656 0.0234375 7.960938 -1.160156 L 7.960938 1.601562 C 7.960938 3.328125 6.53125 4.140625 5.152344 4.140625 C 3.96875 4.140625 2.761719 3.671875 2.265625 2.121094 L 1.652344 2.121094 C 2.019531 3.796875 3.328125 4.757812 5.101562 4.757812 Z M 5.078125 -0.492188 C 3.671875 -0.492188 2.21875 -1.304688 2.21875 -3.03125 L 2.21875 -6.972656 C 2.21875 -8.675781 3.671875 -9.511719 5.078125 -9.511719 C 6.53125 -9.511719 7.960938 -8.675781 7.960938 -6.972656 L 7.960938 -2.957031 C 7.960938 -1.257812 6.457031 -0.492188 5.078125 -0.492188 Z M 5.078125 -0.492188 "/></g></g></g><g fill="#ffffff" fill-opacity="1"><g transform="translate(325.828418, 226.976997)"><g><path d="M 2.144531 -11.78125 C 2.464844 -11.78125 2.734375 -12.027344 2.734375 -12.347656 C 2.734375 -12.667969 2.464844 -12.9375 2.144531 -12.9375 C 1.824219 -12.9375 1.578125 -12.667969 1.578125 -12.347656 C 1.578125 -12.027344 1.824219 -11.78125 2.144531 -11.78125 Z M 1.847656 0 L 2.464844 0 L 2.464844 -9.980469 L 1.847656 -9.980469 Z M 1.847656 0 "/></g></g></g><g fill="#ffffff" fill-opacity="1"><g transform="translate(330.141192, 226.976997)"><g><path d="M 5.152344 0.125 C 6.507812 0.125 7.417969 -0.542969 7.640625 -1.503906 L 7 -1.503906 C 6.800781 -0.886719 6.210938 -0.492188 5.152344 -0.492188 C 3.871094 -0.492188 3.105469 -1.132812 3.105469 -2.6875 L 3.105469 -9.363281 L 6.332031 -9.363281 L 6.332031 -9.980469 L 3.105469 -9.980469 L 3.105469 -14 L 2.488281 -14 L 2.488281 -9.980469 L 0.738281 -9.980469 L 0.738281 -9.363281 L 2.488281 -9.363281 L 2.488281 -2.5625 C 2.488281 -0.886719 3.574219 0.125 5.152344 0.125 Z M 5.152344 0.125 "/></g></g></g><g fill="#ffffff" fill-opacity="1"><g transform="translate(338.273867, 226.976997)"><g><path d="M 4.832031 0.125 C 6.753906 0.125 8.304688 -0.886719 8.304688 -2.882812 L 8.304688 -6.972656 C 8.304688 -9.019531 6.679688 -10.128906 4.757812 -10.128906 C 2.980469 -10.128906 1.75 -9.167969 1.378906 -7.492188 L 1.996094 -7.492188 C 2.488281 -9.042969 3.574219 -9.511719 4.757812 -9.511719 C 6.160156 -9.511719 7.6875 -8.675781 7.6875 -6.972656 L 7.6875 -5.152344 L 3.917969 -5.152344 C 2.539062 -5.152344 1.355469 -4.4375 1.355469 -2.539062 C 1.355469 -0.664062 2.980469 0.125 4.832031 0.125 Z M 4.832031 -0.492188 C 3.5 -0.492188 1.972656 -0.886719 1.972656 -2.539062 C 1.972656 -4.289062 2.980469 -4.511719 3.894531 -4.511719 L 7.6875 -4.511719 L 7.6875 -2.882812 C 7.6875 -1.109375 6.234375 -0.492188 4.832031 -0.492188 Z M 4.832031 -0.492188 "/></g></g></g><g fill="#ffffff" fill-opacity="1"><g transform="translate(348.180948, 226.976997)"><g><path d="M 1.847656 0 L 2.464844 0 L 2.464844 -14 L 1.847656 -14 Z M 1.847656 0 "/></g></g></g></svg>